<?xml version="1.0" encoding="UTF-8" standalone="no"?>
<!-- Created with Inkscape (http://www.inkscape.org/) -->

<svg
   width="1050mm"
   height="1485mm"
   viewBox="0 0 1050 1485"
   version="1.1"
   id="svg5"
   inkscape:version="1.2.2 (732a01da63, 2022-12-09)"
   sodipodi:docname="autumn_ascent_part_two.svg"
   inkscape:export-filename="autumn_ascent_part_two_elements_updated.png"
   inkscape:export-xdpi="98.310097"
   inkscape:export-ydpi="98.310097"
   xml:space="preserve"
   xmlns:inkscape="http://www.inkscape.org/namespaces/inkscape"
   xmlns:sodipodi="http://sodipodi.sourceforge.net/DTD/sodipodi-0.dtd"
   xmlns="http://www.w3.org/2000/svg"
   xmlns:svg="http://www.w3.org/2000/svg"><sodipodi:namedview
     id="namedview7"
     pagecolor="#ffffff"
     bordercolor="#000000"
     borderopacity="0.25"
     inkscape:showpageshadow="2"
     inkscape:pageopacity="0.0"
     inkscape:pagecheckerboard="0"
     inkscape:deskcolor="#d1d1d1"
     inkscape:document-units="mm"
     showgrid="false"
     inkscape:zoom="0.09064429"
     inkscape:cx="5278.8764"
     inkscape:cy="1533.4667"
     inkscape:window-width="1920"
     inkscape:window-height="986"
     inkscape:window-x="-11"
     inkscape:window-y="-11"
     inkscape:window-maximized="1"
     inkscape:current-layer="layer1" /><defs
     id="defs2" /><g
     inkscape:label="Layer 1"
     inkscape:groupmode="layer"
     id="layer1"><path
       style="fill:#ba6f25;fill-opacity:1;stroke-width:8.10277;paint-order:markers stroke fill;stroke:#000000"
       id="path49866"
       sodipodi:type="arc"
       sodipodi:cx="239.45169"
       sodipodi:cy="-972.45428"
       sodipodi:rx="97.459106"
       sodipodi:ry="215.62219"
       sodipodi:start="0"
       sodipodi:end="3.1381448"
       sodipodi:arc-type="slice"
       d="m 336.9108,-972.45428 a 97.459106,215.62219 0 0 1 -97.2911,215.62187 97.459106,215.62219 0 0 1 -97.62654,-214.87844 l 97.45853,-0.74343 z"
       transform="scale(1,-1)" /><path
       style="fill:#82bcdf;fill-opacity:1;stroke-width:3.68546;paint-order:markers stroke fill"
       d="m 2541.905,2468.1431 c -3.6877,2.5286 -2.2902,7.4479 -3.5148,11.209 -3.0105,19.9054 -1.3296,40.0834 0.7107,59.991 2.1393,27.1431 1.1696,54.413 1.4263,81.766 0.3541,5.8398 -0.7529,11.8685 0.6484,17.5729 3.0356,3.5297 8.1314,3.9522 12.184,5.8929 16.7824,6.3935 35.0772,4.9489 52.678,5.4808 12.1411,0.1439 24.4504,0.059 36.4211,0.8076 1.8822,-0.1206 4.5878,-2.5397 5.4907,0.3647 12.143,19.0749 23.9636,38.397 34.5489,58.3877 3.1528,5.8569 5.8073,11.9938 9.2007,17.712 2.4675,2.8832 6.6455,1.9508 9.0015,-0.5383 17.8019,-14.2982 33.5549,-31.2305 45.6329,-50.6571 7.0698,-10.5916 12.5582,-22.1355 19.4408,-32.8299 3.9149,-6.0768 11.9507,-5.6096 18.2463,-6.7026 29.2834,-3.3041 58.5309,-4.2162 88.0712,-4.506 7.3538,-0.477 14.9494,0.4703 22.143,-1.3612 8.0284,-3.4887 11.2054,-12.6456 13.5811,-20.3996 5.068,-19.6253 4.8532,-40.0737 6.6687,-60.1395 0.8726,-16.6018 2.3161,-33.2702 1.2303,-49.8907 -0.8255,-4.6186 -0.3017,-10.8685 -5.0098,-13.4964 -12.6962,-2.9182 -25.7052,-4.4581 -38.6054,-6.2839 -13.8444,-1.6835 -27.6914,-3.2805 -41.5871,-3.9767 -49.0438,-0.7274 -98.4478,-0.3524 -147.241,-1.4674 -30.4415,-2.2111 -60.8882,-4.1524 -91.3158,-6.7148 -16.008,-0.5386 -32.0683,-0.779 -48.0601,-0.7191 -0.6636,0.1662 -1.3271,0.3324 -1.9906,0.4986 z m 136.908,32.9167 c 22.3912,0.4929 44.7745,0.322 67.1047,1.3922 1.957,0.7945 0.703,4.2226 -1.453,3.218 -22.3508,-0.2021 -44.7387,-0.7395 -67.065,-0.8142 -4.9513,0.4137 -4.8175,6.1217 -5.0804,9.8749 -0.778,11.3891 -1.5927,22.9177 -0.6123,34.2789 0.9946,4.9586 6.9168,3.8175 10.6961,4.3241 20.4506,1.9312 40.9692,4.1417 61.5272,5.1958 2.1297,-0.5195 2.9744,2.6626 0.9704,3.2558 -22.2544,0.2668 -44.5983,-3.8021 -66.9228,-4.9222 -3.8614,-0.7235 -7.434,2.5376 -6.7834,6.461 -0.6101,16.8754 -4.2867,33.3022 -5.7855,50.1202 0.03,4.2616 -2.2102,9.5119 1.4265,12.8136 4.7062,1.831 9.9889,0.9157 14.9619,1.2303 20.55,0.053 41.1616,-0.9658 61.6321,-0.6846 1.9483,0.4495 1.2852,3.8338 -0.8599,3.1291 -21.0854,0.8173 -42.2501,1.2023 -63.2718,1.3669 -5.6888,-0.1556 -11.3921,-0.1685 -17.0998,-0.8613 -2.841,-2.8457 -0.767,-7.1996 -0.9941,-10.7329 1.2272,-15.8612 4.1124,-31.471 5.7002,-47.3662 1.1442,-21.2156 -7e-4,-42.341 2.3506,-63.3758 0.017,-4.3628 3.687,-8.5137 8.2604,-7.8912 0.4325,-0.018 0.8652,-0.016 1.2979,-0.012 z"
       id="path48946"
       transform="scale(0.26458333)" /><rect
       style="fill:#edae6f;fill-opacity:1;stroke:none;stroke-width:1.1918"
       id="rect2408-0-3"
       width="100"
       height="100"
       x="0"
       y="0" /><rect
       style="fill:#edae6f;fill-opacity:1;stroke:none;stroke-width:1.1918"
       id="rect27241"
       width="100"
       height="100"
       x="200"
       y="0" /><rect
       style="fill:#f0c392;fill-opacity:1;stroke:none;stroke-width:1.1918"
       id="rect27243"
       width="100"
       height="100"
       x="200"
       y="0" /><rect
       style="fill:#e99e53;fill-opacity:1;stroke:none;stroke-width:1.1918"
       id="rect27252"
       width="100"
       height="100"
       x="400"
       y="0" /><rect
       style="fill:#e99e53;fill-opacity:1;stroke:none;stroke-width:1.1918"
       id="rect27254"
       width="100"
       height="100"
       x="400"
       y="0" /><rect
       style="fill:#ba6f25;fill-opacity:1;stroke:none;stroke-width:1.1918"
       id="rect4662"
       width="100"
       height="100"
       x="600"
       y="200" /><rect
       style="fill:#000000;fill-opacity:1;stroke-width:101.262"
       id="rect4716"
       width="100"
       height="5.9339638"
       x="600"
       y="200" /><rect
       style="fill:#ba6f25;fill-opacity:1;stroke:none;stroke-width:1.1918"
       id="rect4782"
       width="100"
       height="100"
       x="800"
       y="200" /><rect
       style="fill:#000000;fill-opacity:1;stroke-width:101.262"
       id="rect4784"
       width="100"
       height="5.9339638"
       x="800"
       y="200" /><rect
       style="fill:#000000;fill-opacity:1;stroke-width:101.262"
       id="rect4786"
       width="100"
       height="5.9339638"
       x="200"
       y="800"
       transform="matrix(0,1,1,0,0,0)" /><rect
       style="fill:#ba6f25;fill-opacity:1;stroke:none;stroke-width:1.1918"
       id="rect4808"
       width="100"
       height="100"
       x="800"
       y="0" /><rect
       style="fill:#000000;fill-opacity:1;stroke-width:101.262"
       id="rect4810"
       width="100"
       height="5.9339638"
       x="800"
       y="0" /><rect
       style="fill:#000000;fill-opacity:1;stroke-width:101.262"
       id="rect4812"
       width="100"
       height="5.9339638"
       x="0"
       y="800"
       transform="matrix(0,1,1,0,0,0)" /><rect
       style="fill:#000000;fill-opacity:1;stroke-width:101.262"
       id="rect4814"
       width="100"
       height="5.9339638"
       x="800"
       y="94.06601" /><rect
       style="fill:#ba6f25;fill-opacity:1;stroke:none;stroke-width:1.1918"
       id="rect4879"
       width="100"
       height="100"
       x="600"
       y="0" /><rect
       style="fill:#000000;fill-opacity:1;stroke-width:101.262"
       id="rect4883"
       width="100"
       height="5.9339638"
       x="0"
       y="600"
       transform="matrix(0,1,1,0,0,0)" /><rect
       style="fill:#000000;fill-opacity:1;stroke-width:101.262"
       id="rect4887"
       width="100"
       height="5.934"
       x="0"
       y="694.06592"
       transform="matrix(0,1,1,0,0,0)" /><rect
       style="fill:#b87c3e;fill-opacity:1;stroke:none;stroke-width:1.1918"
       id="rect32395"
       width="100"
       height="100"
       x="0"
       y="200" /><rect
       style="fill:#7c4710;fill-opacity:1;stroke:none;stroke-width:1.1918"
       id="rect32397"
       width="100"
       height="100"
       x="200"
       y="200" /><rect
       style="fill:#7c4710;fill-opacity:1;stroke:none;stroke-width:1.1918"
       id="rect32399"
       width="100"
       height="100"
       x="200"
       y="200" /><rect
       style="fill:#a65e16;fill-opacity:1;stroke:none;stroke-width:1.1918"
       id="rect32401"
       width="100"
       height="100"
       x="400"
       y="200" /><rect
       style="fill:#a65e16;fill-opacity:1;stroke:none;stroke-width:1.1918"
       id="rect32403"
       width="100"
       height="100"
       x="400"
       y="200" /><rect
       style="fill:#ba6f25;fill-opacity:1;stroke:none;stroke-width:1.1918"
       id="rect32914"
       width="100"
       height="100"
       x="800"
       y="400" /><rect
       style="fill:#653d16;fill-opacity:1;stroke:none;stroke-width:1.1918"
       id="rect32943"
       width="100"
       height="100"
       x="0"
       y="400" /><rect
       style="fill:#994b00;fill-opacity:1;stroke:none;stroke-width:1.1918"
       id="rect34397"
       width="100"
       height="100"
       x="200"
       y="400" /><path
       sodipodi:type="star"
       style="fill:#dc954f;fill-opacity:1;stroke:#000000;stroke-width:2.37;paint-order:markers stroke fill"
       id="path8009"
       inkscape:flatsided="true"
       sodipodi:sides="3"
       sodipodi:cx="18.521778"
       sodipodi:cy="32.179253"
       sodipodi:r1="22.30125"
       sodipodi:r2="11.150625"
       sodipodi:arg1="0.52747058"
       sodipodi:arg2="1.5746681"
       inkscape:rounded="0"
       inkscape:randomized="0"
       d="M 37.79191,43.404572 -0.8346995,43.255017 18.608124,9.8781693 Z"
       inkscape:transform-center-x="0.050947378"
       inkscape:transform-center-y="-6.9529702"
       transform="matrix(1.180106,0,0,1.2555289,403.41257,443.6076)" /><path
       sodipodi:type="star"
       style="fill:#9f5f1f;fill-opacity:1;stroke:#000000;stroke-width:2.37;paint-order:markers stroke fill"
       id="path8011"
       inkscape:flatsided="true"
       sodipodi:sides="3"
       sodipodi:cx="18.521778"
       sodipodi:cy="32.179253"
       sodipodi:r1="22.30125"
       sodipodi:r2="11.150625"
       sodipodi:arg1="0.52747058"
       sodipodi:arg2="1.5746681"
       inkscape:rounded="0"
       inkscape:randomized="0"
       d="M 37.79191,43.404572 -0.8346995,43.255017 18.608124,9.8781693 Z"
       inkscape:transform-center-x="0.050947378"
       inkscape:transform-center-y="-6.9529702"
       transform="matrix(1.180106,0,0,1.2555289,453.41257,443.6076)" /><path
       sodipodi:type="star"
       style="fill:#dc954f;fill-opacity:1;stroke:#000000;stroke-width:2.37;paint-order:markers stroke fill"
       id="path9492"
       inkscape:flatsided="true"
       sodipodi:sides="3"
       sodipodi:cx="18.521778"
       sodipodi:cy="32.179253"
       sodipodi:r1="22.30125"
       sodipodi:r2="11.150625"
       sodipodi:arg1="0.52747058"
       sodipodi:arg2="1.5746681"
       inkscape:rounded="0"
       inkscape:randomized="0"
       d="M 37.79191,43.404572 -0.8346995,43.255017 18.608124,9.8781693 Z"
       inkscape:transform-center-x="0.050947378"
       inkscape:transform-center-y="-6.9529702"
       transform="matrix(1.180106,0,0,1.2555289,503.41257,443.6076)" /><path
       sodipodi:type="star"
       style="fill:#9f5f1f;fill-opacity:1;stroke:#000000;stroke-width:2.37;paint-order:markers stroke fill"
       id="path9494"
       inkscape:flatsided="true"
       sodipodi:sides="3"
       sodipodi:cx="18.521778"
       sodipodi:cy="32.179253"
       sodipodi:r1="22.30125"
       sodipodi:r2="11.150625"
       sodipodi:arg1="0.52747058"
       sodipodi:arg2="1.5746681"
       inkscape:rounded="0"
       inkscape:randomized="0"
       d="M 37.79191,43.404572 -0.8346995,43.255017 18.608124,9.8781693 Z"
       inkscape:transform-center-x="0.050947378"
       inkscape:transform-center-y="-6.9529702"
       transform="matrix(1.180106,0,0,1.2555289,553.41257,443.6076)" /><path
       sodipodi:type="star"
       style="fill:#dc954f;fill-opacity:1;stroke:#000000;stroke-width:2.37;paint-order:markers stroke fill"
       id="path9496"
       inkscape:flatsided="true"
       sodipodi:sides="3"
       sodipodi:cx="18.521778"
       sodipodi:cy="32.179253"
       sodipodi:r1="22.30125"
       sodipodi:r2="11.150625"
       sodipodi:arg1="0.52747058"
       sodipodi:arg2="1.5746681"
       inkscape:rounded="0"
       inkscape:randomized="0"
       d="M 37.79191,43.404572 -0.8346995,43.255017 18.608124,9.8781693 Z"
       inkscape:transform-center-x="0.050947378"
       inkscape:transform-center-y="-6.9529702"
       transform="matrix(1.180106,0,0,1.2555289,603.41257,443.6076)" /><path
       sodipodi:type="star"
       style="fill:#9f5f1f;fill-opacity:1;stroke:#000000;stroke-width:2.37;paint-order:markers stroke fill"
       id="path9498"
       inkscape:flatsided="true"
       sodipodi:sides="3"
       sodipodi:cx="18.521778"
       sodipodi:cy="32.179253"
       sodipodi:r1="22.30125"
       sodipodi:r2="11.150625"
       sodipodi:arg1="0.52747058"
       sodipodi:arg2="1.5746681"
       inkscape:rounded="0"
       inkscape:randomized="0"
       d="M 37.79191,43.404572 -0.8346995,43.255017 18.608124,9.8781693 Z"
       inkscape:transform-center-x="0.050947378"
       inkscape:transform-center-y="-6.9529702"
       transform="matrix(1.180106,0,0,1.2555289,653.41257,443.6076)" /><path
       style="fill:#ba6f25;fill-opacity:1;stroke:#000000;stroke-width:7.38155;stroke-dasharray:none"
       id="path190849-7"
       sodipodi:type="arc"
       sodipodi:cx="643.96405"
       sodipodi:cy="1154.103"
       sodipodi:rx="296.27124"
       sodipodi:ry="246.99019"
       sodipodi:start="0"
       sodipodi:end="3.1415927"
       sodipodi:arc-type="slice"
       d="m 940.23529,1154.103 a 296.27124,246.99019 0 0 1 -148.13562,213.8998 296.27124,246.99019 0 0 1 -296.27125,0 296.27124,246.99019 0 0 1 -148.13561,-213.8998 h 296.27124 z" /><path
       style="fill:#d5aa8b;fill-opacity:1;stroke:#000000;stroke-width:0;stroke-dasharray:none"
       id="path190851-1"
       d="m 511.05053,1365.7464 c 0.5506,-0.8679 1.0036,-1.6412 1.6624,-2.4374 1.3396,-1.6176 2.8,-3.1314 4.1872,-4.7087 6.4656,-7.3514 -0.784,0.8366 5.7092,-6.4832 5.8136,-6.3785 12.2984,-12.132 19.2824,-17.195 5.6872,-4.2209 11.4176,-7.0916 18.1043,-9.3352 9.8341,-3.1754 20.0388,-4.7909 30.2697,-6.0089 12.8422,-1.408 25.7682,-1.6125 38.673,-1.7785 10.3056,-0.04 20.6814,0.3714 30.7914,2.5331 1.6926,0.3619 3.3576,0.8432 5.0364,1.2652 5.7838,1.8056 11.5844,3.7181 16.9806,6.5101 2.8532,1.4761 4.6348,2.6299 7.3936,4.3106 11.154,7.2055 22.2192,14.5511 33.238,21.9621 5.1498,3.3929 10.40221,6.6808 15.18621,10.5876 1.9856,1.7027 3.8036,3.6247 5.418,5.6832 1.049,1.318 2.2406,2.5101 3.371,3.7553 0.1281,0.142 0.3876,0.2518 0.3644,0.4414 -0.02,0.18 -0.3116,-0.228 -0.3696,-0.398 -0.854,-2.5189 -1.567,-5.0837 -2.3506,-7.625 2.3008,-7.1456 0.6564,-5.5693 6.0837,-10.0638 0.3337,-0.2758 0.7975,-0.3458 1.1693,-0.5687 0.038,-0.03 -0.072,-0.063 -0.1166,-0.063 -0.3169,0 -0.6327,0.042 -0.9496,0.059 -0.4895,0.03 -0.9794,0.042 -1.4691,0.066 -5.9663,0.084 -11.8775,0.927 -17.78651,1.671 -6.2802,0.7728 -12.5198,1.8063 -18.8116,2.4892 -5.9736,0.8783 -11.986,1.4387 -17.9748,2.1971 -5.5504,0.6026 -11.0554,1.4557 -16.5472,2.4472 -5.1302,0.9851 -10.3098,1.6363 -15.5,2.212 -5.7498,0.4787 -11.5204,0.711 -17.283,1.007 -5.8782,0.2907 -11.7638,0.3568 -17.6478,0.4006 -5.2058,-0.082 -10.397,0.3169 -15.5966,0.4938 -6.2152,0.198 -12.4338,0.2546 -18.6516,0.2848 -4.8648,0.162 -9.7155,-0.148 -14.5678,-0.4299 -4.2515,-0.1739 -8.4106,-1.0494 -12.5612,-1.921 -7.3814,-1.345 -14.6982,-2.9841 -21.9228,-5.0059 -5.272,-1.3594 -10.4312,-2.9748 -15.3672,-5.2784 -3.8194,-1.916 -7.3854,-4.2789 -11.1264,-6.3415 -16.4074,-8.9814 -29.1144,14.2127 -12.707,23.1945 v 0 c 4.3026,2.3297 8.3306,5.1532 12.7984,7.1816 6.2314,2.8273 12.666,5.0396 19.3036,6.7186 7.7834,2.1579 15.6495,3.9763 23.5993,5.4142 5.4288,1.1332 10.8854,2.1882 16.4404,2.4376 5.4092,0.3156 10.819,0.6326 16.2411,0.4746 6.4764,-0.034 12.9536,-0.09 19.4272,-0.2998 4.9638,-0.172 9.9176,-0.5555 14.8868,-0.4792 6.2716,-0.048 12.5446,-0.124 18.8096,-0.4348 6.2858,-0.3228 12.581,-0.5705 18.8498,-1.1344 5.7856,-0.6448 11.5578,-1.3889 17.2794,-2.4713 5.0386,-0.9103 10.0882,-1.6938 15.1832,-2.2371 5.8318,-0.746 11.6908,-1.2716 17.507,-2.142 6.4358,-0.7061 12.8232,-1.73 19.24521,-2.5405 5.255,-0.6614 10.508,-1.4454 15.8155,-1.497 6.356,-0.3444 13.3547,-1.0194 17.5093,-6.7826 1.5535,-2.1548 1.895,-4.9629 2.8426,-7.4443 -0.7558,-2.9953 -1.2815,-6.058 -2.2674,-8.9857 -0.5042,-1.497 -3.5096,-3.9743 -4.6033,-5.4527 -2.8343,-3.4463 -5.8596,-6.758 -9.3248,-9.5856 -5.4194,-4.3581 -11.2205,-8.2067 -17.0619,-11.9727 -11.36781,-7.6452 -22.77921,-15.2302 -34.30141,-22.6412 -3.805,-2.2918 -5.8152,-3.5999 -9.8144,-5.6093 -7.0038,-3.5189 -14.4514,-6.0655 -21.9564,-8.2736 -2.2402,-0.5401 -4.4642,-1.1538 -6.7208,-1.6207 -11.7522,-2.4313 -23.7874,-3.0027 -35.7578,-2.938 -13.8476,0.18 -27.717,0.4273 -41.4949,1.9658 -12.0936,1.4715 -24.1513,3.4413 -35.7552,7.2732 -1.6716,0.5896 -3.363,1.1262 -5.0149,1.7684 -7.1788,2.7915 -13.8094,6.7662 -20.0672,11.2205 -8.4598,6.2346 -16.4128,13.1638 -23.4496,20.9889 -6.533,7.3668 0.4198,-0.4896 -5.7336,6.5104 -2.992,3.404 -6.154,6.7175 -8.4638,10.6466 -9.91441,15.8568 12.5194,29.8724 22.4338,14.0157 z" /><path
       style="fill:#d5aa8b;fill-opacity:1;stroke:none;stroke-width:0;stroke-dasharray:none"
       id="path190853-8"
       d="m 603.46013,1396.4006 c -0.7106,0.03 -1.4219,0 -2.1314,0.054 -0.1039,0 0.2026,0.036 0.3042,0.053 0.2142,0.036 0.4294,0.07 0.6428,0.112 0.763,0.148 1.5214,0.3308 2.2823,0.4887 1.8851,0.4712 3.7987,0.8094 5.7233,1.069 1.0072,0.148 2.0254,0.1619 3.0392,0.2187 0.5038,0.03 1.0328,0.1121 1.535,0.1621 2.4756,0.252 4.951,0.5046 7.4336,0.6786 2.7786,0.172 5.565,0.066 8.3436,-0.052 2.5924,-0.088 5.1826,-0.225 7.7728,-0.3588 2.0804,-0.118 4.1632,-0.174 6.2464,-0.2011 2.2128,-0.03 4.425,-0.03 6.6364,0.054 2.042,0.07 4.0762,0.2698 6.1146,0.4 1.9162,0.112 3.836,0.112 5.7544,0.118 2.091,0 4.1806,0 6.27,-0.065 2.3232,-0.126 4.637,-0.3678 6.9566,-0.5403 3.8198,-0.2968 7.6198,-0.7786 11.3878,-1.4686 2.9402,-0.5301 5.851,-1.2065 8.784,-1.7758 1.5982,-0.366 3.2196,-0.5638 4.8476,-0.7262 2.1428,-0.2366 4.291,-0.415 6.4332,-0.6558 2.2194,-0.108 4.435,-0.231 6.6492,-0.424 2.147,-0.172 4.296,-0.314 6.4408,-0.5119 1.956,-0.1299 3.7966,-0.5604 5.651,-1.1992 0.7938,-0.2727 1.6326,-0.6664 2.4018,-1.0106 1.6282,-0.7006 3.04841,-1.7603 4.54481,-2.6869 0.068,-0.04 0.1321,-0.082 0.2016,-0.1199 0.02,0 0,0.03 -0.02,0.03 -0.072,0.046 -0.146,0.084 -0.219,0.126 -0.02,0 -0.074,0.046 -0.054,0.036 0.18,-0.076 0.3582,-0.156 0.5372,-0.2309 -0.02,0.04 -0.7288,0.2699 -0.5396,0.225 0.2448,-0.059 0.4796,-0.1539 0.72,-0.228 0.4428,-0.138 0.8866,-0.27 1.3386,-0.373 1.5294,-0.4138 3.0744,-0.7616 4.6092,-1.1526 1.4332,-0.4002 2.8982,-0.6754 4.328,-1.0897 0.4826,-0.1419 0.9602,-0.2969 1.4402,-0.4449 5.9688,-1.9435 9.4826,-4.006 10.5837,-14.1464 0.4277,-3.9419 -3.6431,-7.069 -5.8885,-10.3381 -0.2537,-0.3694 -4.1058,-2.6564 -4.5128,-2.904 -2.383,-1.3936 -4.8468,-2.6412 -7.3334,-3.8379 -1.0346,-0.498 -2.6992,-1.284 -3.7644,-1.7076 -0.8294,-0.33 -1.6752,-0.617 -2.513,-0.9257 -4.96301,-1.6336 -10.05161,-2.8907 -14.95861,-4.6961 -0.558,-0.207 -1.1026,-0.4447 -1.6538,-0.6672 -0.6692,-0.4644 -1.3904,-0.8512 -2.055,-1.322 -0.8794,-0.6228 -2.6208,-2.0761 -3.3162,-2.6611 -1.907,-1.6042 -3.0234,-2.5959 -4.9092,-4.2437 -2.9844,-2.5725 -5.857,-5.2899 -9.1682,-7.4509 -2.0672,-1.3493 -3.7194,-2.2029 -5.8612,-3.3743 -3.2904,-1.8213 -6.6592,-3.5115 -9.8623,-5.486 -0.2453,-0.156 -0.4957,-0.3072 -0.7354,-0.4724 -0.1301,-0.09 -0.5487,-0.4596 -0.6459,-0.5366 -0.3852,-0.3062 -0.7681,-0.6153 -1.1653,-0.9054 -1.5249,-1.1143 -2.1422,-1.4981 -3.6739,-2.5087 -2.8094,-1.8064 -5.7416,-3.4892 -8.9219,-4.5611 -2.8687,-0.9665 -4.1945,-1.1625 -7.1016,-1.7764 -1.2191,-0.2009 -2.4357,-0.4191 -3.6575,-0.6044 -2.5297,-0.3847 -5.5959,-0.7817 -8.1287,-1.0177 -4.6898,-0.4366 -9.3964,-0.6474 -14.0999,-0.8682 -6.9193,-0.2338 -13.8427,0 -20.7619,0.126 -7.5374,0.124 -15.0758,0.126 -22.614,0.138 -5.1431,0.2638 -6.9203,0.2368 -12.1043,1.0127 -2.3826,0.3564 -4.7502,0.8109 -7.1112,1.2897 -6.3876,1.2951 -12.678,2.9857 -18.9608,4.7037 -4.3844,1.2915 -8.687,2.8457 -12.9106,4.589 -0.9172,0.379 -1.836,0.7552 -2.7334,1.1781 -2.4248,1.1427 -2.8772,1.4719 -5.0602,2.762 -2.5774,1.6524 -5.043,3.5071 -7.0266,5.8619 -1.209,1.4359 -1.7764,2.4051 -2.742,3.9105 -1.2144,1.8973 -2.2088,3.9203 -3.3086,5.8831 -0.192,0.3424 -0.3906,0.6813 -0.586,1.0219 -0.234,0.4184 -0.468,0.8368 -0.7018,1.2554 -1.9138,3.7079 -3.0744,7.1953 -2.5534,11.5131 0.437,3.6231 1.4726,4.7163 3.227,7.6672 0.868,0.9354 1.6822,1.9232 2.6038,2.8058 1.6568,1.5859 3.6564,2.8531 5.6198,4.0007 2.3412,1.3687 5.0264,2.6032 7.6058,3.3696 2.0252,0.6019 4.1178,0.9477 6.1766,1.4214 2.3676,0.3053 4.7298,0.6568 7.103,0.9156 3.647,0.3976 10.0296,0.8446 13.6938,1.1198 6.7206,0.505 13.4416,0.9937 20.1656,1.4496 1.9544,0.148 3.91,0.282 5.8632,0.4446 3.9409,0.3306 6.1611,0.5635 10.0365,1.0424 3.0868,0.3666 6.1598,0.8403 9.2444,1.2237 1.5538,0.192 3.1108,0.359 4.6662,0.5386 1.5766,0.156 3.1524,0.3225 4.73,0.4686 1.71,0.16 3.4226,0.2909 5.133,0.4458 5.8564,0.5345 11.7029,1.1717 17.5696,1.5904 2.4542,0.1741 4.9118,0.3025 7.3676,0.4535 11.3523,0.249 22.7683,0.2368 34.0507,-1.2303 5.8882,-0.7653 7.3046,-1.207 12.8614,-2.4562 4.0304,-1.1086 8.0578,-2.3236 11.8754,-4.0479 0.897,-0.4052 1.8978,-0.6762 2.6402,-1.3223 2.1394,-1.8613 5.5692,-3.3034 5.911,-6.118 0.6882,-5.6684 -2.0818,-11.2286 -3.1228,-16.8425 -1.9072,-1.2514 -3.7198,-2.6604 -5.7216,-3.7547 -1.8952,-1.036 -7.4288,-2.9623 -9.5154,-3.6509 -4.6846,-1.5458 -9.4492,-2.807 -14.2162,-4.0664 -6.0642,-1.5529 -12.0805,-3.2919 -18.1696,-4.7483 -3.8196,-0.9133 -5.1781,-1.1693 -8.9691,-1.9602 -6.2625,-1.2755 -12.626,-2.0582 -19.0174,-2.2416 -3.7475,-0.108 -7.1354,0 -10.8792,0.094 -1.7052,0.072 -3.4116,0.1139 -5.1152,0.2127 -3.9202,0.228 -6.6452,0.4861 -10.5424,1.0084 -4.6718,0.6265 -9.3144,1.4877 -13.9594,2.2823 -3.613,0.5332 -3.5916,0.6148 -7.1615,0.8184 -1.2036,0.07 -2.409,0.132 -3.6146,0.1301 -2.83,0 -4.5876,-0.2461 -7.4256,-0.4331 -1.3648,-0.09 -2.7312,-0.15 -4.0966,-0.228 -2.6918,-0.12 -5.3862,-0.184 -8.0808,-0.18 -1.4652,0 -1.309,0.156 -2.2292,-0.172 -2.2756,-0.516 -4.505,-1.229 -6.7982,-1.6691 -0.6962,-0.136 -1.3984,-0.2339 -2.0976,-0.3499 -0.5794,-0.076 -1.1586,-0.148 -1.738,-0.2189 -18.568,-2.2706 -21.7806,23.9782 -3.2124,26.2489 v 0 c 0.2814,0.032 0.563,0.063 0.8444,0.096 0.931,0.118 1.7924,0.328 2.7042,0.5656 1.912,0.4976 3.8248,0.992 5.7626,1.3825 0.8996,0.138 1.7938,0.3161 2.6986,0.4138 2.0406,0.219 2.2808,0.1539 3.9718,0.148 1.298,0 2.557,0 3.8584,0.042 0.9562,0.03 1.9116,0.064 2.8676,0.096 1.2038,0.066 2.4086,0.1199 3.6118,0.196 1.6468,0.1059 3.2898,0.2732 4.9382,0.3493 1.8228,0.084 3.648,0.148 5.4726,0.1321 1.613,0 3.2252,-0.1001 4.8344,-0.2068 4.6395,-0.3133 4.9927,-0.4488 9.3553,-1.1 4.2,-0.7189 8.3974,-1.5025 12.6188,-2.0881 3.1602,-0.4384 5.334,-0.6556 8.5316,-0.8469 1.5278,-0.09 3.0582,-0.1319 4.5874,-0.1959 2.3474,-0.054 6.4556,-0.1801 8.8904,-0.1241 5.0506,0.1181 10.0805,0.7075 15.0277,1.7239 3.2391,0.6723 4.6869,0.9484 7.9338,1.7226 5.9823,1.4267 11.8898,3.1451 17.8478,4.6659 4.1146,1.0833 8.229,2.1633 12.2786,3.4753 1.2045,0.39 2.397,0.8156 3.592,1.2341 0.7362,0.2577 1.447,0.9924 2.201,0.7932 0.4584,-0.12 -0.5516,-0.7706 -0.8274,-1.1565 -0.317,-4.8703 -1.9466,-9.8331 -0.951,-14.6113 0.444,-2.1312 3.2962,-2.8469 4.8964,-4.3237 0.1759,-0.162 -0.3998,0.2698 -0.6167,0.3744 -0.5603,0.267 -1.1313,0.5137 -1.7103,0.738 -2.3848,0.9244 -3.3174,1.1521 -5.8727,1.9328 -4.0496,0.9509 -5.3265,1.3431 -9.6525,1.9266 -9.8488,1.3282 -19.8218,1.2985 -29.7363,1.1411 -2.2685,-0.138 -4.5381,-0.2518 -6.8046,-0.4128 -4.069,-0.288 -7.9393,-0.6746 -11.9976,-1.06 -1.8217,-0.174 -3.6432,-0.3474 -5.4646,-0.5214 -1.606,-0.138 -3.2128,-0.2698 -4.8178,-0.4166 -1.4372,-0.132 -2.8728,-0.2818 -4.309,-0.4236 -1.394,-0.16 -2.7896,-0.305 -4.182,-0.4782 -11.2772,-1.4031 2.641,0.2308 -9.7196,-1.2828 -4.259,-0.5215 -6.7608,-0.7804 -11.0671,-1.1407 -2.0224,-0.168 -4.0474,-0.3064 -6.071,-0.4594 -6.663,-0.452 -13.3226,-0.9374 -19.982,-1.4369 -3.9568,-0.2968 -8.4894,-0.6086 -12.455,-0.9978 -1.6438,-0.162 -3.2826,-0.3709 -4.9236,-0.556 -1.157,-0.18 -2.8202,-0.335 -3.9994,-0.7976 -0.537,-0.21 -1.0276,-0.5254 -1.5496,-0.771 -0.196,-0.094 -0.4076,-0.154 -0.6054,-0.2428 -0.118,-0.054 -0.3876,-0.311 -0.3424,-0.19 0.124,0.3354 0.401,0.5928 0.6016,0.889 0.8876,1.8009 1.4264,2.5308 1.5558,4.7607 0.068,1.1682 -0.114,2.3409 -0.2808,3.4993 -0.054,0.3708 -0.2338,0.7127 -0.3716,1.061 -0.02,0.03 -0.072,0.084 -0.07,0.054 0.02,-0.094 0.058,-0.1741 0.088,-0.2611 0.8464,-1.5172 0.3822,-0.6918 1.3964,-2.4734 0.8304,-1.4876 1.5824,-3.0193 2.4774,-4.4707 0.6636,-1.1029 0.2888,-0.4604 -0.2282,-0.186 -0.082,0.042 0.1221,-0.1421 0.19,-0.2038 0.3926,-0.3582 0.6384,-0.5127 1.0932,-0.8427 0.5626,-0.3562 1.3196,-0.8564 1.9112,-1.14 0.6723,-0.3226 1.3625,-0.6069 2.0508,-0.8937 3.2955,-1.3732 6.6502,-2.6069 10.0704,-3.6354 5.5692,-1.5286 11.1425,-3.0183 16.7968,-4.2075 1.7863,-0.3758 3.5763,-0.7395 5.3789,-1.0274 3.8856,-0.621 5.1661,-0.6017 9.0502,-0.8309 7.6883,0 15.3771,-0.03 23.0647,-0.142 6.3434,-0.1179 12.6904,-0.3326 19.0346,-0.15 7.2976,0.3395 14.6156,0.6776 21.819,1.9821 0.6378,0.124 1.276,0.243 1.9132,0.368 0.2718,0.054 1.2874,0.228 1.668,0.3786 1.1358,0.4479 2.1742,1.1255 3.2004,1.7726 0.6658,0.4358 1.3512,0.8435 1.9966,1.3089 1.6522,1.192 3.1628,2.5882 4.9576,3.5803 3.5988,2.1916 7.3306,4.1511 11.0326,6.1611 1.2842,0.6925 2.2672,1.2055 3.502,1.9269 0.2942,0.172 0.5962,0.3338 0.869,0.5376 0.5206,0.3888 1.01,0.818 1.5064,1.2374 1.0384,0.8773 3.4568,2.9965 4.3862,3.8073 3.7926,3.3105 7.553,6.7194 11.7596,9.5079 2.421,1.6046 3.5256,2.0482 6.221,3.405 0.9322,0.3624 1.8568,0.7446 2.7964,1.087 4.8072,1.7537 9.7612,3.0686 14.6438,4.5867 0.2956,0.096 0.5964,0.174 0.8864,0.2848 0.7594,0.2878 1.9832,0.8761 2.6634,1.2013 1.7874,0.855 3.563,1.7376 5.28301,2.723 0.4676,0.2789 0.932,0.5614 1.4026,0.8343 0.152,0.088 0.5354,0.4114 0.4662,0.249 -1.3086,-3.0583 -4.86721,-5.7754 -4.22701,-9.0392 2.46701,-12.5774 13.61361,-14.4124 7.77061,-12.4927 -1.3672,0.527 -2.8696,0.6388 -4.2578,1.1006 -1.5326,0.3932 -3.07661,0.7386 -4.60401,1.1516 -1.8626,0.488 -3.723,1.0179 -5.5092,1.7428 -1.4136,0.6257 -2.8302,1.252 -4.1204,2.1157 -0.497,0.3188 -1.0022,0.6354 -1.4892,0.9699 -0.02,0 0.1641,-0.04 0.188,-0.042 -0.602,0.2941 -0.03,0.066 0.5462,-0.048 0.2048,-0.042 0.4128,-0.064 0.62,-0.09 0.034,0 -0.068,0.03 -0.104,0.03 -0.2124,0.03 -0.4258,0.042 -0.6386,0.063 -2.0912,0.207 -4.1908,0.3143 -6.284,0.4975 -0.6572,0.06 -1.313,0.1319 -1.9712,0.174 -1.7704,0.1179 -3.5498,0.102 -5.3136,0.3141 -2.0326,0.2309 -4.0714,0.3929 -6.1042,0.6211 -2.439,0.2458 -4.8682,0.5642 -7.2665,1.0816 -2.8603,0.5576 -5.7011,1.2094 -8.5671,1.7345 -2.8178,0.5364 -5.6684,0.8568 -8.5258,1.0968 -1.9938,0.15 -3.9837,0.3393 -5.9778,0.4852 -1.7355,0.07 -3.472,0.048 -5.2088,0.048 -1.3916,0 -2.7837,0 -4.1741,-0.063 -2.2673,-0.138 -4.5286,-0.3754 -6.8004,-0.4336 -2.6486,-0.094 -5.2975,-0.1081 -7.9475,-0.07 -2.4255,0.034 -4.8506,0.102 -7.2729,0.234 -2.5023,0.1299 -5.0042,0.2638 -7.5086,0.3459 -1.7986,0.076 -3.6024,0.1661 -5.4022,0.09 -2.1914,-0.15 -4.3746,-0.3857 -6.5602,-0.6033 -1.2902,-0.1319 -2.583,-0.2668 -3.8794,-0.3027 -1.2694,-0.138 -2.5074,-0.4616 -3.7508,-0.7376 -3.0084,-0.6209 -5.9918,-1.3377 -9.0986,-1.1261 -18.6137,1.8607 -15.9813,28.1741 2.6324,26.3132 z" /><path
       style="fill:none;fill-opacity:1;stroke:#000000;stroke-width:7.38155;stroke-dasharray:none"
       id="path190855-6"
       sodipodi:type="arc"
       sodipodi:cx="643.96405"
       sodipodi:cy="1154.103"
       sodipodi:rx="296.27124"
       sodipodi:ry="246.99019"
       sodipodi:start="0"
       sodipodi:end="3.1415927"
       sodipodi:arc-type="slice"
       d="m 940.23529,1154.103 a 296.27124,246.99019 0 0 1 -148.13562,213.8998 296.27124,246.99019 0 0 1 -296.27125,0 296.27124,246.99019 0 0 1 -148.13561,-213.8998 h 296.27124 z" /><path
       style="fill:#000000;fill-opacity:1;stroke:none;stroke-width:7.38155;stroke-dasharray:none"
       id="path190857-8"
       d="m 485.97253,1359.7829 c 1.0648,-1.4756 2.2058,-2.8925 3.275,-4.3646 1.3234,-1.8442 2.4668,-3.8071 3.8068,-5.64 1.113,-1.4587 2.3922,-2.7792 3.614,-4.1461 1.4422,-1.5938 2.908,-3.1685 4.459,-4.6583 1.4602,-1.421 2.9952,-2.7537 4.5754,-4.0383 1.3962,-1.1006 2.7912,-2.1902 4.115,-3.3777 1.6374,-1.4434 3.4134,-2.7142 5.144,-4.0399 1.6998,-1.3838 3.425,-2.7348 5.0818,-4.1699 1.3966,-1.2392 2.8528,-2.398 4.387,-3.4612 1.9196,-1.3451 3.831,-2.6987 5.8046,-3.9638 1.6534,-0.9972 3.2326,-2.1088 4.855,-3.1545 1.6556,-1.1524 3.3914,-2.1658 5.197,-3.0608 2.1968,-1.0039 4.4552,-1.8631 6.6625,-2.8439 1.6495,-0.7392 3.3217,-1.4382 5.0409,-1.999 1.7637,-0.6705 3.5743,-1.2024 5.4132,-1.6229 1.5892,-0.486 3.2286,-0.6908 4.8581,-0.9734 2.5437,-0.498 5.1046,-0.8949 7.6512,-1.3753 2.0989,-0.3464 4.222,-0.5176 6.3325,-0.7842 3.1545,-0.3026 6.2873,-0.7709 9.4206,-1.2368 2.4336,-0.2788 4.8684,-0.5402 7.301,-0.8286 1.8619,-0.2818 3.7026,-0.6759 5.5611,-0.9825 2.0201,-0.3655 4.0257,-0.7936 6.0511,-1.1305 2.5788,-0.4018 5.1784,-0.6113 7.7824,-0.7541 2.2604,-0.126 4.5242,-0.138 6.7872,-0.144 3.0352,0 6.0704,0 9.1056,0 2.8768,0 5.7536,0 8.6306,0 4.236,0 8.4722,0 12.7082,0 3.0152,-0.063 6.024,0.064 9.0264,0.3292 2.5066,0.186 4.9868,0.5909 7.4588,1.0334 1.7882,0.3581 3.603,0.6045 5.38,1.018 1.0558,0.2461 2.0764,0.5765 3.1124,0.8917 2.9962,0.9392 6.0876,1.556 9.065,2.5502 4.1138,1.3949 7.958,3.4435 11.8542,5.3376 3.1192,1.3628 6.1462,2.899 9.073,4.6361 2.541,1.7687 5.1112,3.4921 7.6888,5.2071 2.1984,1.5118 4.4802,2.9167 6.605,4.5321 1.4764,1.2677 3.0924,2.3643 4.5924,3.6007 0.4352,0.3588 2.1322,1.9127 2.4726,2.2223 2.859,2.6017 5.68,5.2455 8.59601,7.7844 1.8482,1.4836 3.5602,3.1109 5.252,4.7661 1.6214,1.5212 3.0534,3.2229 4.5906,4.8269 2.762,2.7608 5.7715,5.2597 8.7542,7.7766 1.7236,1.4478 3.5989,2.7009 5.3309,4.136 1.9348,1.7715 3.9051,3.5054 5.6079,5.5059 0.5026,0.7047 1.1446,1.3015 1.6514,2.0026 0.315,0.4352 0.5589,0.9494 0.807,1.4252 0.582,1.1084 1.0088,2.2878 1.5619,3.4115 0.4294,0.844 0.7489,1.7454 0.9819,2.6624 0.3444,1.0261 0.4495,2.1265 0.9875,3.0857 0.193,0.3434 0.4433,0.6505 0.6651,0.9754 3.2794,4.0829 9.0552,-0.5531 5.7761,-4.6355 v 0 c 0.072,0.142 0.1589,0.276 0.2194,0.4207 0.024,0.053 0.088,0.2038 0.034,0.1779 -0.1769,-0.094 -0.3343,-1.6282 -0.5219,-1.917 -0.3823,-1.4129 -0.863,-2.8042 -1.5327,-4.1094 -0.6233,-1.1445 -0.9544,-2.4349 -1.6353,-3.553 -0.9345,-1.7308 -2.0591,-3.3078 -3.3765,-4.7703 -1.995,-2.3054 -4.2372,-4.3633 -6.511,-6.3906 -1.7173,-1.4122 -3.5494,-2.6754 -5.2698,-4.0855 -2.7848,-2.348 -5.5942,-4.6793 -8.1849,-7.2426 -1.5931,-1.6584 -3.0715,-3.4248 -4.7561,-4.9942 -1.7948,-1.7553 -3.613,-3.4812 -5.5696,-5.0589 -2.8778,-2.5015 -5.6546,-5.1144 -8.47601,-7.6781 -0.8708,-0.7906 -2.0362,-1.8678 -2.9414,-2.6138 -1.517,-1.2504 -3.151,-2.3606 -4.6454,-3.6407 -2.2532,-1.6887 -4.631,-3.2069 -6.9616,-4.785 -2.6856,-1.7872 -5.3538,-3.596 -8.0178,-5.4139 -3.1038,-1.8352 -6.3036,-3.4824 -9.6094,-4.925 -4.1982,-2.0402 -8.3466,-4.2331 -12.7872,-5.7148 -3.0414,-0.9815 -6.162,-1.6848 -9.2242,-2.6005 -1.5552,-0.4686 -2.2344,-0.7002 -3.8268,-1.0696 -1.82,-0.4225 -3.6782,-0.6768 -5.5096,-1.0423 -2.688,-0.4792 -5.3854,-0.9158 -8.1106,-1.1204 -3.2192,-0.2817 -6.4452,-0.4236 -9.6776,-0.3578 -4.236,0 -8.472,2e-4 -12.7078,0 -2.8752,-4e-4 -5.7504,-4e-4 -8.6256,0 -3.0442,0 -6.0882,0 -9.1322,0 -2.3926,0 -4.7858,0.03 -7.1756,0.1561 -2.874,0.16 -5.7436,0.3955 -8.5892,0.8433 -2.022,0.3367 -4.0254,0.7567 -6.0406,1.1291 -1.7476,0.2878 -3.4808,0.6472 -5.2274,0.9354 -2.5053,0.2966 -5.0138,0.5622 -7.5193,0.8573 -3.0802,0.4586 -6.1597,0.9181 -9.2611,1.2152 -2.2584,0.2877 -4.5318,0.4629 -6.7753,0.8542 -2.5225,0.4758 -5.06,0.8675 -7.5796,1.3614 -1.7469,0.325 -3.5176,0.5218 -5.2244,1.0486 -2.0587,0.48 -4.0958,1.0555 -6.0733,1.8078 -1.9476,0.6513 -3.8566,1.4153 -5.7266,2.2643 -2.3014,1.0277 -4.6666,1.9053 -6.9476,2.9781 -2.0488,1.0214 -4.029,2.1615 -5.9114,3.4675 -1.6184,1.0432 -3.1942,2.1511 -4.8428,3.1467 -2.0504,1.317 -4.0416,2.7172 -6.0354,4.1181 -1.7454,1.219 -3.4164,2.5298 -5.0084,3.9445 -1.5434,1.3402 -3.1572,2.594 -4.7378,3.889 -1.879,1.4439 -3.81,2.8249 -5.5816,4.4033 -1.2342,1.1071 -2.543,2.1129 -3.8418,3.1445 -1.7414,1.4163 -3.4322,2.888 -5.043,4.4527 -1.6778,1.6219 -3.2798,3.3194 -4.8404,5.0542 -1.387,1.551 -2.8376,3.0521 -4.081,4.7243 -1.3372,1.8442 -2.514,3.7925 -3.8196,5.6578 -1.037,1.4418 -2.161,2.8182 -3.19799,4.2596 -3.14261,4.1887 2.78339,8.6317 5.92599,4.4429 z" /><path
       style="fill:#000000;fill-opacity:1;stroke-width:7.57512;paint-order:markers stroke fill"
       id="path48611"
       sodipodi:type="arc"
       sodipodi:cx="239.19371"
       sodipodi:cy="-972.45428"
       sodipodi:rx="89.461128"
       sodipodi:ry="205.30225"
       sodipodi:start="0"
       sodipodi:end="3.1381448"
       sodipodi:arc-type="slice"
       d="m 328.65484,-972.45428 a 89.461128,205.30225 0 0 1 -89.30691,205.30194 89.461128,205.30225 0 0 1 -89.61482,-204.59409 l 89.4606,-0.70785 z"
       transform="scale(1,-1)" /><path
       style="fill:#000000;fill-opacity:1;stroke-width:2;paint-order:markers stroke fill"
       id="path48794"
       d="m 698.66623,702.46848 c 2.34714,3.92678 4.80237,7.78761 7.06178,11.76628 1.52898,2.40787 2.68073,5.01505 3.9401,7.56566 0.91707,1.69322 1.29013,2.91094 3.91541,2.61683 0.92276,-0.1034 1.69791,-0.77192 2.47046,-1.28704 1.25119,-0.8342 3.41625,-2.94002 4.49776,-3.94957 3.31303,-3.19418 6.07605,-6.88805 8.54594,-10.75618 1.13503,-1.84126 2.19771,-3.71951 3.23672,-5.61462 0.56187,-0.74353 0.87593,-2.26647 1.79232,-2.62898 3.43151,-0.5421 6.9083,-0.77226 10.37196,-1.02227 4.82089,-0.36819 9.65514,-0.44265 14.48752,-0.48837 2.24965,-0.0132 2.26293,0.003 4.39693,-0.0652 1.44941,-0.0457 2.1722,0.039 3.56846,-0.65818 1.68407,-0.84097 1.95723,-1.52865 3.07922,-2.96923 0.33988,-0.72993 0.73692,-1.43589 1.01965,-2.18982 0.63246,-1.68654 0.95983,-3.44967 1.23513,-5.22142 0.37846,-2.43581 0.54853,-4.8939 0.7053,-7.35111 0.21561,-3.48686 0.53848,-6.96433 0.69522,-10.45488 0.0875,-2.23604 0.12477,-4.47368 0.13644,-6.71126 0.0188,-1.13847 -0.13292,-2.27848 -0.34364,-3.39555 -0.21537,-1.17198 -0.61775,-2.1684 -1.36027,-3.10137 -0.30965,-0.20601 -0.59185,-0.46085 -0.9289,-0.61801 -0.59256,-0.27628 -1.74977,-0.45691 -2.36429,-0.56563 -2.02457,-0.35819 -4.05776,-0.65704 -6.09174,-0.95546 -4.68789,-0.68977 -9.4034,-1.17007 -14.13248,-1.45516 -3.70764,-0.1692 -7.42014,-0.16663 -11.13076,-0.16957 -3.45146,0.003 -6.90293,0.008 -10.35439,0.0119 -3.27303,0.003 -6.54606,0.003 -9.81911,0.003 -3.44085,0.11322 -6.86824,-0.17364 -10.29507,-0.43444 -2.56733,-0.17997 -5.13776,-0.29954 -7.70448,-0.48969 -3.26258,-0.22963 -6.52354,-0.48128 -9.78363,-0.7439 -2.42956,-0.22622 -4.86283,-0.39273 -7.30126,-0.47935 -1.81295,-0.0463 -3.62664,-0.0474 -5.44007,-0.0473 -0.85767,0 -1.71535,0.003 -2.57305,0.003 -0.41944,0 -1.26595,-0.0269 -1.65115,0.10372 -0.46456,0.15758 -0.8803,0.43312 -1.32046,0.64968 -0.34388,0.45043 -0.76414,0.85169 -1.03166,1.35128 -0.43837,0.81862 -0.7333,2.33982 -0.8703,3.24321 -0.28231,1.86161 -0.33959,3.7501 -0.41685,5.62771 -0.0971,3.45247 0.3134,6.88502 0.66506,10.31187 0.25342,2.70767 0.32155,5.42769 0.3652,8.14539 0.0265,2.28285 0.0201,4.56591 0.0183,6.84889 -0.003,2.24111 -0.004,4.48223 -0.005,6.72336 0.0151,1.39062 -0.0415,2.78252 0.0473,4.17089 0.15563,0.87125 0.12105,1.16776 0.84691,1.97644 1.21464,1.35321 3.62656,2.00038 5.29873,2.52661 2.49015,0.70197 5.06026,0.96078 7.63426,1.08283 1.50677,0.0575 3.01479,0.0488 4.52228,0.0402 1.07995,-0.008 2.1599,-0.0114 3.23988,-0.0132 1.10458,-0.003 2.20916,-0.003 3.31374,-0.003 0.89512,0 1.7902,8e-5 2.68531,1.1e-4 0.0359,0.01 0.0718,0.0193 0.10764,0.0289 2.47364,0.32208 2.92912,-3.17619 0.45548,-3.49824 v 0 c -0.18767,-0.0196 -0.37531,-0.0389 -0.56298,-0.0584 -0.89517,-5e-5 -1.79033,-1.1e-4 -2.6855,-1.3e-4 -1.10659,2e-5 -2.21316,-1.4e-4 -3.31975,0.003 -1.08469,0.003 -2.16935,0.005 -3.25401,0.0132 -1.44555,0.008 -2.89163,0.0175 -4.33654,-0.0363 -2.27402,-0.10575 -4.54547,-0.3207 -6.74931,-0.92667 -1.10496,-0.34108 -2.13209,-0.74864 -3.1968,-1.19031 -0.11407,-0.0473 -0.23363,-0.14843 -0.3523,-0.11438 -0.0758,0.0217 0.0148,0.27101 -0.0531,0.23066 -0.0904,-0.0538 -0.0498,-0.20452 -0.0747,-0.30675 -0.1021,-1.30411 -0.004,-2.61729 -0.0388,-3.92407 0,-2.24059 0.003,-4.48119 0.005,-6.72179 0.003,-2.30285 0.008,-4.60584 -0.0188,-6.90861 -0.0455,-2.81901 -0.11814,-5.64034 -0.38317,-8.44878 -0.33457,-3.25956 -0.73255,-6.52402 -0.64955,-9.80795 0.0691,-1.70968 0.1239,-3.42466 0.35949,-5.12207 0.0581,-0.41857 0.13901,-0.8338 0.22217,-1.24812 0.0541,-0.26955 0.15642,-0.5298 0.18949,-0.80274 0.01,-0.0787 -0.043,-0.15251 -0.0645,-0.22879 -0.22503,-0.19531 -0.24749,-0.15467 0.30988,-0.18904 1.10328,-0.068 2.21805,0.0498 3.32221,-0.003 1.77173,-5e-5 3.54372,0 5.31506,0.0451 2.38564,0.0843 4.76607,0.249 7.14303,0.47019 3.26776,0.26295 6.53632,0.5156 9.80654,0.74568 2.56427,0.18931 5.13207,0.31078 7.69697,0.48914 3.51589,0.26757 7.03289,0.55686 10.56304,0.4446 3.27414,-2.4e-4 6.54828,0 9.82242,-0.003 3.44935,-0.003 6.89869,-0.01 10.34804,-0.0119 3.64093,0.003 7.28366,-1.4e-4 10.92176,0.16322 4.62873,0.27773 9.24393,0.74975 13.83234,1.42417 1.99382,0.29234 3.98433,0.59251 5.97014,0.93543 0.3352,0.0579 0.66926,0.12208 1.00467,0.1786 0.1269,0.0214 0.26988,0.11803 0.38206,0.0551 0.0683,-0.0384 -0.0796,-0.13499 -0.11946,-0.20249 0.24863,0.0323 0.49662,1.2201 0.55851,1.46556 0.18695,0.88069 0.28064,1.79596 0.27712,2.69512 -0.0114,2.19109 -0.0477,4.38221 -0.13298,6.5718 -0.15478,3.46866 -0.47966,6.92401 -0.69164,10.3891 -0.23376,3.70073 -0.44749,7.8349 -1.64193,11.35984 -0.17872,0.52742 -0.4291,1.0278 -0.64362,1.5417 -0.42252,0.64494 -0.7293,1.28251 -1.39094,1.72124 -0.883,0.58547 -1.40772,0.42913 -2.50045,0.4639 -2.09677,0.0667 -2.10013,0.051 -4.34049,0.0642 -4.90604,0.0465 -9.81392,0.12369 -14.70829,0.49739 -2.55738,0.18487 -5.10987,0.38423 -7.65972,0.65622 -0.97678,0.10419 -2.11166,0.19682 -3.07885,0.45278 -0.4115,0.1089 -0.80515,0.27662 -1.20774,0.41495 -0.25855,0.17092 -0.53525,0.31715 -0.77565,0.51279 -1.09257,0.88921 -1.57263,2.27139 -2.28262,3.43918 -0.99893,1.82756 -2.02599,3.63562 -3.11687,5.41203 -2.30555,3.6222 -4.8882,7.08128 -7.98084,10.07602 -2.63652,2.47028 -1.36712,1.34411 -3.92485,3.51428 -0.30798,0.26132 -0.81804,0.39362 -0.92459,0.78322 -0.0884,0.32318 0.41299,0.55943 0.46694,0.89011 0.0971,0.59541 -1.25899,-2.46777 -0.92861,-1.55345 -1.29019,-2.61115 -2.47279,-5.27918 -4.03574,-7.74592 -2.25827,-3.97359 -4.70405,-7.8342 -7.05437,-11.75326 -1.22299,-2.17417 -4.29771,-0.44464 -3.07475,1.72952 z" /><path
       style="fill:#000000;fill-opacity:1;stroke-width:2;paint-order:markers stroke fill"
       id="path48802"
       d="m 726.41576,660.76938 c -2.10183,-0.0888 -4.2058,-0.141 -6.30918,-0.18513 -2.27052,-0.043 -4.54141,-0.0578 -6.81228,-0.0653 -1.14535,-0.003 -2.29071,-0.003 -3.43606,-0.003 -0.94682,0.0576 -1.94959,-0.21164 -2.86751,0.13581 -0.29408,0.11131 -0.55176,0.30178 -0.82761,0.4527 -0.22413,0.26712 -0.4816,0.50953 -0.67239,0.8014 -0.49792,0.76176 -0.57105,1.96283 -0.64428,2.85406 -0.097,0.85307 -0.12714,1.71156 -0.19778,2.56659 -0.0944,1.25007 -0.11303,2.50393 -0.12901,3.75695 -0.014,1.35368 -0.014,2.70745 -0.0143,4.06119 0,1.21452 0,2.42901 0,3.64353 -0.0572,1.32781 -0.23974,2.64752 -0.41833,3.96356 -0.14835,1.24275 -0.33089,2.48089 -0.51943,3.71806 -0.10456,0.7234 -0.23059,1.44301 -0.30197,2.17077 -0.0324,0.6255 -0.14727,1.24172 -0.21394,1.86399 -0.0613,0.70435 -0.14219,1.40616 -0.18352,2.1122 -0.0153,0.56319 -0.0308,1.12376 -0.0895,1.68412 -0.0399,0.4109 -0.15412,0.81603 -0.0911,1.2333 0.0291,0.19257 0.0936,0.37807 0.14042,0.56711 0.28665,0.32465 0.49051,0.74793 0.85992,0.97396 0.51253,0.31356 1.52043,0.32538 2.12379,0.34512 1.32402,0.0434 2.65027,0.0356 3.97475,0.041 2.23359,0.0198 4.46641,-0.0538 6.6993,-0.0963 1.38967,-0.009 2.77781,-0.0782 4.16611,-0.13316 1.45383,-0.0342 2.9083,-0.0322 4.36245,-0.0349 0.20121,-2.1e-4 0.40243,0 0.60362,0 2.49451,-0.003 2.49092,-3.53033 -0.004,-3.52776 v 0 c -0.20214,1.8e-4 -0.40428,0 -0.60642,0 -1.49855,0.003 -2.99741,0 -4.49556,0.0376 -1.3642,0.054 -2.7282,0.12266 -4.09372,0.13105 -2.2057,0.042 -4.41132,0.11488 -6.6177,0.0956 -0.91416,-0.004 -1.90421,-0.006 -2.82033,-0.0177 -0.33824,-0.005 -0.67646,-0.0106 -1.01462,-0.0198 -0.22564,-0.006 -0.46654,-0.10859 -0.6767,-0.0262 -0.41177,0.1615 3.19103,0.9388 0.85122,1.01793 0.0557,0.31531 0.0791,0.27567 0.0508,0.51298 0,0.0108 -0.004,-0.0214 -0.003,-0.0323 0.01,-0.0739 0.0254,-0.147 0.0369,-0.22069 0.0151,-0.0971 0.0301,-0.19415 0.0427,-0.29157 0.008,-0.063 0.013,-0.12631 0.0196,-0.18947 0.0638,-0.61481 0.0904,-1.23015 0.10268,-1.84803 0.0363,-0.64977 0.1161,-1.29517 0.16976,-1.9435 0.0658,-0.63407 0.18809,-1.26161 0.21749,-1.89926 0.0607,-0.66254 0.18915,-1.31567 0.27768,-1.97466 0.19148,-1.25635 0.3769,-2.5137 0.52774,-3.77571 0.19947,-1.47315 0.4028,-2.95085 0.45029,-4.43818 0,-1.21406 0,-2.42811 0,-3.64217 2.1e-4,-1.33901 1.9e-4,-2.67804 0.014,-4.01699 0.0148,-1.17332 0.0309,-2.34749 0.11788,-3.51819 0.0676,-0.85484 0.10308,-1.71225 0.19767,-2.56505 0.0274,-0.34362 0.0553,-0.6876 0.0966,-1.02992 0.008,-0.0651 0.055,-0.22476 -0.004,-0.19664 -0.0968,0.046 -0.17926,0.11737 -0.26887,0.17606 -0.0893,0.0204 -0.17658,0.0547 -0.26797,0.0609 -0.0236,0.003 -0.0823,-0.035 -0.059,-0.0389 0.11613,-0.0193 0.23535,-0.0119 0.35306,-0.0103 0.54914,0.007 1.09813,0.0587 1.64782,0.0375 1.14086,0 2.28169,-0.003 3.42252,0.003 2.25012,0.007 4.50027,0.022 6.75005,0.0646 2.01105,0.0421 4.02191,0.0983 6.03208,0.16841 2.48213,0.2482 2.83316,-3.26208 0.35102,-3.51028 z" /><path
       style="fill:#000000;fill-opacity:1;stroke-width:2;paint-order:markers stroke fill"
       id="path48804"
       d="m 708.08653,677.71975 c 0.55282,0 0.63802,-0.009 1.26961,0.0438 0.76882,0.0643 3.06194,0.31104 3.65889,0.37304 2.24782,0.23333 2.14056,0.22034 4.33017,0.43796 2.44917,0.25662 4.90289,0.4576 7.36405,0.54359 0.87727,0.0214 0.4609,0.0132 1.24915,0.0257 2.4942,0.0392 2.5496,-3.48816 0.0554,-3.52734 v 0 c -0.74589,-0.0116 -0.3519,-0.004 -1.18197,-0.0238 -2.38562,-0.0825 -4.76375,-0.28032 -7.13772,-0.52842 -2.18768,-0.21744 -2.0629,-0.2027 -4.31107,-0.43604 -0.76869,-0.0798 -2.96201,-0.31779 -3.84109,-0.38737 -0.71797,-0.0569 -0.85317,-0.0487 -1.45542,-0.0487 -2.49451,0 -2.49451,3.52777 0,3.52777 z" /></g></svg>
