<?xml version="1.0" encoding="UTF-8" standalone="no"?>
<!-- Created with Inkscape (http://www.inkscape.org/) -->

<svg
   width="210mm"
   height="297mm"
   viewBox="0 0 210 297"
   version="1.1"
   id="svg5"
   sodipodi:docname="checkpoint_star.svg"
   inkscape:version="1.2.2 (732a01da63, 2022-12-09)"
   inkscape:export-filename="checkpoint_star.png"
   inkscape:export-xdpi="982.1333"
   inkscape:export-ydpi="982.1333"
   xmlns:inkscape="http://www.inkscape.org/namespaces/inkscape"
   xmlns:sodipodi="http://sodipodi.sourceforge.net/DTD/sodipodi-0.dtd"
   xmlns="http://www.w3.org/2000/svg"
   xmlns:svg="http://www.w3.org/2000/svg">
  <sodipodi:namedview
     id="namedview7"
     pagecolor="#ffffff"
     bordercolor="#000000"
     borderopacity="0.25"
     inkscape:showpageshadow="2"
     inkscape:pageopacity="0.0"
     inkscape:pagecheckerboard="0"
     inkscape:deskcolor="#d1d1d1"
     inkscape:document-units="mm"
     showgrid="false"
     inkscape:zoom="0.36257716"
     inkscape:cx="391.64077"
     inkscape:cy="364.06044"
     inkscape:window-width="1920"
     inkscape:window-height="986"
     inkscape:window-x="-11"
     inkscape:window-y="-11"
     inkscape:window-maximized="1"
     inkscape:current-layer="layer1" />
  <defs
     id="defs2" />
  <g
     inkscape:label="Layer 1"
     inkscape:groupmode="layer"
     id="layer1">
    <path
       style="fill:#ffff00;stroke:none;stroke-width:1.22337"
       d="m 104.1074,62.50917 c -2.45009,0.57999 -3.08004,3.47433 -4.380473,5.18463 0.543363,17.24194 1.510083,34.52185 2.222383,51.77824 0.53155,10.28767 0.80125,20.61209 1.51927,30.87686 1.58909,1.08368 1.39147,-1.3452 1.42153,-2.24463 1.24278,-27.00515 2.41767,-54.01305 3.63297,-81.01932 -1.01645,-1.67243 -2.14637,-3.91186 -4.24293,-4.57456 l -0.0866,-0.003 z"
       id="path6234" />
    <ellipse
       id="path6132"
       style="fill:#ffff00;stroke:#000000;stroke-width:1.19259"
       cx="114.02609"
       cy="92.088623"
       rx="0.023733428"
       ry="0.028082663" />
    <ellipse
       id="path6134"
       style="fill:#ffff00;stroke:#000000;stroke-width:1.19259"
       cx="67.521393"
       cy="197.7148"
       rx="0.023733428"
       ry="0.028082663" />
    <path
       style="fill:#ffff00;stroke:#000000;stroke-width:4.50744"
       d="m 100.12814,63.62639 -29.399523,48.06942 -58.799041,0.63252 54.522741,44.27447 -15.501557,52.49684 53.98821,-37.31705"
       id="path6194" />
    <path
       style="fill:#ffff00;stroke:#000000;stroke-width:4.50744"
       d="m 108.04473,62.8734 29.39952,48.06942 58.79902,0.63252 -54.52272,44.27452 15.50155,52.49683 -53.9882,-37.31704"
       id="path6194-1" />
    <path
       style="fill:#000000;stroke:none;stroke-width:5.01839"
       id="path6226"
       d="m 98.973317,63.37495 c 0.19388,-0.17814 0.35492,-0.38377 0.49747,-0.60019 0.1409,-0.21887 0.27952,-0.43824 0.44071,-0.64463 0.172003,-0.22905 0.340273,-0.46216 0.504143,-0.6966 0.18825,-0.27282 0.36206,-0.55475 0.54728,-0.82975 0.30628,-0.46521 0.60857,-0.93292 0.90896,-1.40165 0.28314,-0.44485 0.56487,-0.89047 0.87325,-1.32051 0.21531,-0.30946 0.46441,-0.59378 0.71097,-0.88095 0.23668,-0.28707 0.49101,-0.561 0.73631,-0.84161 0.0243,-0.0255 0.0486,-0.0529 0.0731,-0.0789 0.67585,-0.73437 -0.42824,-1.63339 -1.1041,-0.89907 v 0 c -0.0326,0.0356 -0.0653,0.0713 -0.098,0.10688 -0.24728,0.28402 -0.50533,0.56004 -0.74421,0.85077 -0.27249,0.31812 -0.54705,0.63435 -0.78602,0.9767 -0.32055,0.44994 -0.61774,0.91271 -0.91203,1.37782 -0.29495,0.46012 -0.59171,0.91933 -0.892323,1.3762 -0.18131,0.26976 -0.35218,0.54563 -0.53617,0.81356 -0.14882,0.21683 -0.30597,0.42806 -0.46244,0.63964 -0.18229,0.2377 -0.34653,0.48506 -0.50596,0.73655 -0.10157,0.16186 -0.23367,0.30234 -0.37292,0.43671 -0.66107,0.74613 0.46078,1.6255 1.12186,0.87938 z" />
    <path
       style="fill:#000000;stroke:none;stroke-width:5.01839"
       id="path6228"
       d="m 103.39897,56.08969 c 0.57023,0.69115 1.25079,1.29058 1.89069,1.92279 0.25588,0.26671 0.51599,0.53245 0.73251,0.82919 0.14777,0.19189 0.26348,0.40312 0.3843,0.61007 0.14271,0.25042 0.30866,0.48812 0.47367,0.72597 0.12351,0.2041 0.23663,0.41329 0.36309,0.61562 0.15498,0.23871 0.33608,0.46114 0.5161,0.68331 0.16967,0.1929 0.34369,0.38174 0.51253,0.5751 0.13277,0.18324 0.29583,0.34204 0.46958,0.49117 0.11228,0.0758 0.19813,0.17204 0.27637,0.2774 0.0641,0.083 0.13418,0.16084 0.20464,0.23871 0.0109,0.0153 0.0233,0.0255 0.0341,0.0407 10e-4,0.001 0.003,0.005 9.1e-4,0.005 -0.006,-0.005 -0.01,-0.0102 -0.015,-0.0153 -0.006,-0.0102 -0.0187,-0.0356 -0.0166,-0.0254 0.0176,0.0784 0.0729,0.15117 0.11363,0.2209 0.49581,0.85199 1.77681,0.1924 1.28097,-0.65954 v 0 c -0.0435,-0.0748 -0.0156,-0.0255 -0.0952,-0.19291 -0.0908,-0.14557 -0.19866,-0.27485 -0.31508,-0.40312 -0.14307,-0.18934 -0.3027,-0.36646 -0.49793,-0.51046 -0.12279,-0.0967 -0.21898,-0.2153 -0.31203,-0.33695 -0.15756,-0.18069 -0.31884,-0.35781 -0.47941,-0.53565 -0.14545,-0.17967 -0.29323,-0.35782 -0.42037,-0.5494 -0.13888,-0.21937 -0.2549,-0.45096 -0.39797,-0.66845 -0.14472,-0.20818 -0.29101,-0.41635 -0.41607,-0.63562 -0.14561,-0.24992 -0.28775,-0.50237 -0.4656,-0.73345 -0.2626,-0.35222 -0.56374,-0.67685 -0.87413,-0.99247 -0.58709,-0.57948 -1.20747,-1.13122 -1.74472,-1.75356 -0.58501,-0.80038 -1.7884,-0.0255 -1.20338,0.77814 z" />
    <path
       style="fill:#000000;stroke:none;stroke-width:5.01839"
       id="path6230"
       d="m 107.15718,63.39531 c -0.2403,-0.17763 -0.49348,-0.34153 -0.71677,-0.53901 -0.28786,-0.25501 -0.57283,-0.51154 -0.87771,-0.74837 -0.26467,-0.21224 -0.53446,-0.41533 -0.84321,-0.56772 -0.12089,-0.0458 -0.26442,-0.1079 -0.39714,-0.10689 -0.13998,4.1e-4 -0.28077,0.0153 -0.41691,0.0509 -0.24728,0.055 -0.62675,0.29114 -0.8409,0.41534 -0.43015,0.2606 -0.85304,0.53138 -1.28152,0.79427 -0.26778,0.15015 -0.55066,0.27281 -0.81587,0.42704 -0.29686,0.18527 -0.52633,0.43467 -0.69667,0.72632 -0.11497,0.25704 -0.22566,0.60834 -0.0284,0.86746 0.11845,0.15575 0.29003,0.28198 0.47559,0.36087 0.12744,0.054 0.27926,0.0153 0.41892,0.0204 0.27905,-0.0672 0.57847,-0.14608 0.81173,-0.31455 0.0672,-0.0509 0.12704,-0.10536 0.19058,-0.15779 0.23725,-0.22446 0.33944,-0.53168 0.52288,-0.78897 0.10431,-0.0967 0.19885,-0.20105 0.29406,-0.3054 0.66823,-0.74047 -0.4451,-1.62936 -1.11335,-0.88889 v 0 c -0.13734,0.15422 -0.29153,0.29369 -0.41416,0.45962 -0.0844,0.12826 -0.15819,0.25551 -0.23239,0.38886 -0.015,0.0305 -0.0829,0.12165 -0.0831,0.1583 0.0124,-0.005 0.0228,-0.0153 0.0357,-0.0153 0.007,-5e-5 -0.01,0.0102 -0.015,0.0153 -0.0166,0.0102 -0.0341,0.0204 -0.0519,0.0305 -0.0445,0.0204 -0.0942,0.0305 -0.13744,0.0529 -0.004,0.003 0.008,0.005 0.0109,0.005 0.0767,0.0153 0.16465,10e-4 0.22985,0.0458 0.37789,0.23414 0.37742,0.27587 0.41364,0.63033 0.001,0.0153 -0.008,0.0611 -0.0305,0.0728 -0.01,-0.0458 0.13634,-0.15881 0.17303,-0.19138 0.27057,-0.16186 0.5719,-0.27333 0.83955,-0.44078 0.42017,-0.25806 0.83505,-0.52319 1.25645,-0.77921 0.47781,-0.28401 -0.0109,5e-5 0.40185,-0.22446 0.0156,-0.0102 0.0615,-0.0255 0.0445,-0.0305 -0.12719,-0.0458 -0.14872,0.0153 -0.22179,-0.0407 0.22059,0.0865 0.37862,0.27638 0.57236,0.40159 0.28625,0.2209 0.54997,0.4647 0.82102,0.7022 0.32697,0.27638 0.67586,0.53402 1.04886,0.7536 0.9236,0.43417 1.5767,-0.79422 0.65308,-1.22859 z" />
    <path
       style="fill:#000000;stroke:none;stroke-width:0.216264"
       d="m 103.40447,56.09732 c -1.42674,1.49927 -2.38564,3.32297 -3.563433,4.99066 -0.39308,0.62936 -0.9119,1.19963 -1.20547,1.878 -0.12254,0.57582 0.50807,0.8524 0.94294,1.08475 0.37735,0.27689 0.976913,0.43773 1.309703,0.0153 0.41823,-0.50338 1.08856,-0.70678 1.59948,-1.09997 0.61104,-0.2606 1.11226,-0.77386 1.78219,-0.89281 0.65747,0.2209 1.12747,0.77982 1.64701,1.17245 0.42349,0.3965 1.00965,0.87647 1.64656,0.59673 0.55297,-0.28248 1.14251,-0.54115 1.61223,-0.94024 0.32188,-0.33339 0.13851,-0.84217 -0.22999,-1.06338 -0.71765,-0.74877 -1.32902,-1.64143 -1.86793,-2.55546 -0.66519,-1.22203 -1.78196,-2.13672 -2.76847,-3.12125 -0.26373,-0.21581 -0.60996,-0.23974 -0.90482,-0.0626 z m -1.05276,6.9133 c -0.011,0.003 0.0123,-0.004 0,0 z"
       id="path6232" />
  </g>
</svg>
