<?xml version="1.0" encoding="UTF-8" standalone="no"?>
<!-- Created with Inkscape (http://www.inkscape.org/) -->

<svg
   width="3840mm"
   height="2160mm"
   viewBox="0 0 3840 2160"
   version="1.1"
   id="svg5"
   inkscape:version="1.2.2 (732a01da63, 2022-12-09)"
   sodipodi:docname="end_screen_maps.svg"
   inkscape:export-filename="medals.png"
   inkscape:export-xdpi="96.096664"
   inkscape:export-ydpi="96.096664"
   xmlns:inkscape="http://www.inkscape.org/namespaces/inkscape"
   xmlns:sodipodi="http://sodipodi.sourceforge.net/DTD/sodipodi-0.dtd"
   xmlns:xlink="http://www.w3.org/1999/xlink"
   xmlns="http://www.w3.org/2000/svg"
   xmlns:svg="http://www.w3.org/2000/svg">
  <sodipodi:namedview
     id="namedview7"
     pagecolor="#ffffff"
     bordercolor="#000000"
     borderopacity="0.25"
     inkscape:showpageshadow="2"
     inkscape:pageopacity="0.0"
     inkscape:pagecheckerboard="0"
     inkscape:deskcolor="#d1d1d1"
     inkscape:document-units="mm"
     showgrid="false"
     inkscape:zoom="0.04"
     inkscape:cx="787.5"
     inkscape:cy="7175"
     inkscape:window-width="1920"
     inkscape:window-height="986"
     inkscape:window-x="-11"
     inkscape:window-y="-11"
     inkscape:window-maximized="1"
     inkscape:current-layer="svg5" />
  <defs
     id="defs2">
    <linearGradient
       inkscape:collect="always"
       id="linearGradient48402">
      <stop
         style="stop-color:#ffffff;stop-opacity:1;"
         offset="0"
         id="stop48398" />
      <stop
         style="stop-color:#aa0088;stop-opacity:1;"
         offset="1"
         id="stop48400" />
    </linearGradient>
    <linearGradient
       inkscape:collect="always"
       id="linearGradient36762">
      <stop
         style="stop-color:#eaf0f9;stop-opacity:1;"
         offset="0"
         id="stop36758" />
      <stop
         style="stop-color:#87aade;stop-opacity:1;"
         offset="1"
         id="stop36760" />
    </linearGradient>
    <linearGradient
       inkscape:collect="always"
       id="linearGradient30242">
      <stop
         style="stop-color:#e09494;stop-opacity:1;"
         offset="0"
         id="stop30238" />
      <stop
         style="stop-color:#c83737;stop-opacity:1;"
         offset="1"
         id="stop30240" />
    </linearGradient>
    <linearGradient
       inkscape:collect="always"
       id="linearGradient29657">
      <stop
         style="stop-color:#ffffff;stop-opacity:1;"
         offset="0"
         id="stop29653" />
      <stop
         style="stop-color:#cccccc;stop-opacity:1;"
         offset="1"
         id="stop29655" />
    </linearGradient>
    <linearGradient
       inkscape:collect="always"
       id="linearGradient21364">
      <stop
         style="stop-color:#ff0066;stop-opacity:1;"
         offset="0"
         id="stop21360" />
      <stop
         style="stop-color:#ff80b2;stop-opacity:1"
         offset="1"
         id="stop21362" />
    </linearGradient>
    <rect
       x="-5771.9298"
       y="2894.7368"
       width="122.80702"
       height="17.54386"
       id="rect19742" />
    <rect
       x="-2087.7193"
       y="6000"
       width="245.61404"
       height="17.54386"
       id="rect15206" />
    <linearGradient
       inkscape:collect="always"
       xlink:href="#linearGradient21364"
       id="linearGradient21366"
       x1="1252.9094"
       y1="723.21466"
       x2="1374.5171"
       y2="1070.4979"
       gradientUnits="userSpaceOnUse"
       gradientTransform="translate(-70.379167,400.18229)" />
    <radialGradient
       inkscape:collect="always"
       xlink:href="#linearGradient29657"
       id="radialGradient29659"
       cx="2260.6074"
       cy="746.36426"
       fx="2260.6074"
       fy="746.36426"
       r="198.96945"
       gradientTransform="matrix(0.39490438,0.19953653,-0.19258964,0.38115547,1446.9607,466.64597)"
       gradientUnits="userSpaceOnUse" />
    <radialGradient
       inkscape:collect="always"
       xlink:href="#linearGradient30242"
       id="radialGradient30244"
       cx="2620.5364"
       cy="852.41974"
       fx="2620.5364"
       fy="852.41974"
       r="198.96945"
       gradientTransform="matrix(-0.33210489,0.30830378,-0.36943435,-0.397954,3866.4935,726.06166)"
       gradientUnits="userSpaceOnUse" />
    <radialGradient
       inkscape:collect="always"
       xlink:href="#linearGradient36762"
       id="radialGradient36764"
       cx="3317.4507"
       cy="836.89624"
       fx="3317.4507"
       fy="836.89624"
       r="198.96945"
       gradientTransform="matrix(-0.17154044,-0.23165259,0.21248833,-0.15734917,3500.7896,2108.3524)"
       gradientUnits="userSpaceOnUse" />
    <radialGradient
       inkscape:collect="always"
       xlink:href="#linearGradient48402"
       id="radialGradient48404"
       cx="4296.3442"
       cy="538.41968"
       fx="4296.3442"
       fy="538.41968"
       r="198.96945"
       gradientTransform="matrix(-1.1105406,1.0839424,-0.27029798,-0.27693102,8489.1721,-3221.0204)"
       gradientUnits="userSpaceOnUse" />
  </defs>
  <g
     inkscape:groupmode="layer"
     id="layer3"
     inkscape:label="stuff"
     style="display:inline;fill:#999999;stroke:#000000">
    <path
       style="fill:#ff5555;stroke:#000000;stroke-width:8.81104;stroke-dasharray:none"
       d="m 1060.8046,1418.3242 -1.1657,409.7573 45.4634,-68.2929 48.9604,75.4067 43.132,-71.1383 51.292,65.4472 40.8004,-58.3334 54.7891,51.2196 20.9831,-51.2196 1.1657,-355.6921 z"
       id="path20592" />
    <ellipse
       style="fill:#ff0569;fill-opacity:1;stroke:#000000;stroke-width:5;stroke-dasharray:none"
       id="ellipse23022"
       cx="1217.6708"
       cy="1300.4766"
       rx="210.61647"
       ry="210.61646" />
    <ellipse
       style="fill:#ff80b2;fill-opacity:1;stroke:#000000;stroke-width:5;stroke-dasharray:none"
       id="ellipse22461"
       cx="-1288.8535"
       cy="1413.175"
       rx="58.757534"
       ry="36.248428"
       transform="rotate(-90)" />
    <ellipse
       style="fill:#ff80b2;fill-opacity:1;stroke:#000000;stroke-width:5;stroke-dasharray:none"
       id="ellipse22459"
       cx="-1291.1921"
       cy="1023.7968"
       rx="58.757534"
       ry="36.248428"
       transform="rotate(-90)" />
    <ellipse
       style="fill:#ff80b2;fill-opacity:1;stroke:#000000;stroke-width:5;stroke-dasharray:none"
       id="path22455"
       cx="1221.4092"
       cy="1111.1193"
       rx="58.757534"
       ry="36.248428" />
    <path
       style="fill:#ff5555;stroke:#000000;stroke-width:8.81104;stroke-dasharray:none"
       d="m 1523.8491,1418.3242 -1.1657,409.7573 45.4634,-68.2929 48.9604,75.4067 43.132,-71.1383 51.292,65.4472 40.8004,-58.3334 54.7891,51.2196 20.9831,-51.2196 1.1657,-355.6921 z"
       id="path16669" />
    <rect
       style="fill:#999999;stroke:#000000;stroke-width:7.63032;stroke-dasharray:none"
       id="rect9801"
       width="705.8006"
       height="750.93292"
       x="444.33737"
       y="1116.887"
       transform="matrix(1,0,-0.22709749,0.97387203,0,0)" />
    <rect
       style="fill:#6d6d6d;fill-opacity:1;stroke:#000000;stroke-width:7.63032;stroke-dasharray:none"
       id="rect9801-8"
       width="705.8006"
       height="750.93292"
       x="401.12476"
       y="211.29213"
       transform="matrix(1,0,-0.22709749,0.97387203,0,0)" />
    <ellipse
       style="fill:#ffd42a;fill-opacity:1;stroke:#000000;stroke-width:15;stroke-dasharray:none"
       id="path10923"
       cx="1680.662"
       cy="1301.25"
       rx="191.46945"
       ry="191.46944" />
    <path
       style="fill:#ffe680;fill-opacity:1;stroke:none;stroke-width:4.99999;stroke-dasharray:none"
       d="m 1621.3004,1477.5325 241.4323,-210.8398 12.4023,19.0169 4.1341,14.056 -224.069,190.9961 -27.2852,-4.1341 z"
       id="path27579" />
    <path
       style="fill:#ffe680;fill-opacity:1;stroke:none;stroke-width:4.99999;stroke-dasharray:none"
       d="m 1557.635,1440.3255 267.8906,-252.181 23.9779,24.8047 -272.0247,253.0078 z"
       id="path27577" />
    <path
       style="fill:#ffe680;fill-opacity:1;stroke:none;stroke-width:4.99999;stroke-dasharray:none"
       d="m 1494.1497,1308.7316 223.3371,-188.8426 -33.9098,-12.2777 -195.8585,172.4724 4.0926,32.7405"
       id="path26849" />
    <path
       style="fill:#ffe680;fill-opacity:1;stroke:none;stroke-width:4.99999;stroke-dasharray:none"
       d="m 1505.5452,1367.5651 259.6224,-232.3372 12.4023,5.7877 16.5365,8.2682 -273.6784,247.2201 -15.7097,-13.2292 z"
       id="path25666" />
    <rect
       style="fill:none;stroke:#000000;stroke-width:7.2;stroke-dasharray:none"
       id="rect12046"
       width="106.99149"
       height="107.576"
       x="1629.4427"
       y="1137.3794"
       ry="23.674654" />
    <rect
       style="fill:none;stroke:#000000;stroke-width:7.2;stroke-dasharray:none"
       id="rect12048"
       width="83.304672"
       height="107.86704"
       x="1639.2191"
       y="1245.5476"
       ry="15.470479" />
    <rect
       style="fill:none;stroke:#000000;stroke-width:7.23175;stroke-dasharray:none"
       id="rect12050"
       width="28.356506"
       height="74.184135"
       x="1982.043"
       y="304.77722"
       ry="15.827112"
       transform="matrix(0.87395604,0.48600498,-0.36632057,0.93048871,0,0)" />
    <rect
       style="fill:none;stroke:#000000;stroke-width:7.23175;stroke-dasharray:none"
       id="rect12050-7"
       width="28.356506"
       height="74.184135"
       x="-1175.3031"
       y="1948.5649"
       ry="15.827112"
       transform="matrix(-0.87395604,0.48600498,0.36632057,0.93048871,0,0)" />
    <rect
       style="fill:none;stroke:#000000;stroke-width:6.6186;stroke-dasharray:none"
       id="rect12800"
       width="26.879574"
       height="73.740356"
       x="1687.7833"
       y="1353.8223"
       ry="4.9627333" />
    <rect
       style="fill:none;stroke:#000000;stroke-width:6.6186;stroke-dasharray:none"
       id="rect12853"
       width="26.879574"
       height="73.740356"
       x="1645.6884"
       y="1353.5299"
       ry="4.9627333" />
    <rect
       style="fill:none;stroke:#000000;stroke-width:8;stroke-dasharray:none"
       id="rect13581"
       width="46.117966"
       height="18.25515"
       x="1625.4077"
       y="1428.9861"
       ry="1.2285734" />
    <rect
       style="fill:none;stroke:#000000;stroke-width:8;stroke-dasharray:none"
       id="rect13583"
       width="42.898399"
       height="19.712803"
       x="1688.5519"
       y="1428.6958"
       ry="1.3266735" />
    <path
       style="fill:#ff5555;stroke:#000000;stroke-width:8.81104;stroke-dasharray:none"
       d="m 1963.7189,1415.0169 -1.1657,409.7573 45.4634,-68.2929 48.9604,75.4067 43.132,-71.1383 51.292,65.4472 40.8004,-58.3334 54.7891,51.2196 20.9831,-51.2196 1.1657,-355.6921 z"
       id="path18407" />
    <ellipse
       style="fill:url(#radialGradient29659);fill-opacity:1;stroke:#000000;stroke-width:15;stroke-dasharray:none"
       id="ellipse18409"
       cx="2120.5339"
       cy="1297.9427"
       rx="191.46945"
       ry="191.46944" />
    <rect
       style="fill:none;stroke:#000000;stroke-width:7.2;stroke-dasharray:none"
       id="rect18411"
       width="106.99149"
       height="107.576"
       x="2069.3147"
       y="1134.072"
       ry="23.674654" />
    <rect
       style="fill:none;stroke:#000000;stroke-width:7.2;stroke-dasharray:none"
       id="rect18413"
       width="83.304672"
       height="107.86704"
       x="2079.0911"
       y="1242.2404"
       ry="15.470479" />
    <rect
       style="fill:none;stroke:#000000;stroke-width:7.23175;stroke-dasharray:none"
       id="rect18415"
       width="28.356506"
       height="74.184135"
       x="2393.7314"
       y="86.193085"
       ry="15.827112"
       transform="matrix(0.87395604,0.48600498,-0.36632057,0.93048871,0,0)" />
    <rect
       style="fill:none;stroke:#000000;stroke-width:7.23175;stroke-dasharray:none"
       id="rect18417"
       width="28.356506"
       height="74.184135"
       x="-1589.4364"
       y="2161.3171"
       ry="15.827112"
       transform="matrix(-0.87395604,0.48600498,0.36632057,0.93048871,0,0)" />
    <rect
       style="fill:none;stroke:#000000;stroke-width:6.6186;stroke-dasharray:none"
       id="rect18419"
       width="26.879574"
       height="73.740356"
       x="2127.6553"
       y="1350.5149"
       ry="4.9627333" />
    <rect
       style="fill:none;stroke:#000000;stroke-width:6.6186;stroke-dasharray:none"
       id="rect18421"
       width="26.879574"
       height="73.740356"
       x="2085.5603"
       y="1350.2227"
       ry="4.9627333" />
    <rect
       style="fill:none;stroke:#000000;stroke-width:8;stroke-dasharray:none"
       id="rect18423"
       width="46.117966"
       height="18.25515"
       x="2065.2798"
       y="1425.6788"
       ry="1.2285734" />
    <rect
       style="fill:none;stroke:#000000;stroke-width:8;stroke-dasharray:none"
       id="rect18425"
       width="42.898399"
       height="19.712803"
       x="2128.4238"
       y="1425.3885"
       ry="1.3266735" />
    <path
       style="fill:#ff5555;stroke:#000000;stroke-width:8.81104;stroke-dasharray:none"
       d="m 2430.047,1411.7096 -1.1657,409.7573 45.4634,-68.2929 48.9604,75.4067 43.132,-71.1383 51.292,65.4472 40.8004,-58.3334 54.7891,51.2196 20.9831,-51.2196 1.1657,-355.6921 z"
       id="path18427" />
    <ellipse
       style="fill:url(#radialGradient30244);fill-opacity:1;stroke:#000000;stroke-width:15;stroke-dasharray:none"
       id="ellipse18429"
       cx="2586.8621"
       cy="1294.6354"
       rx="191.46945"
       ry="191.46944" />
    <rect
       style="fill:none;stroke:#000000;stroke-width:7.2;stroke-dasharray:none"
       id="rect18431"
       width="106.99149"
       height="107.576"
       x="2535.6428"
       y="1130.7648"
       ry="23.674654" />
    <rect
       style="fill:none;stroke:#000000;stroke-width:7.2;stroke-dasharray:none"
       id="rect18433"
       width="83.304672"
       height="107.86704"
       x="2545.4192"
       y="1238.933"
       ry="15.470479" />
    <rect
       style="fill:none;stroke:#000000;stroke-width:7.23175;stroke-dasharray:none"
       id="rect18435"
       width="28.356506"
       height="74.184135"
       x="2830.2571"
       y="-145.36316"
       ry="15.827112"
       transform="matrix(0.87395604,0.48600498,-0.36632057,0.93048871,0,0)" />
    <rect
       style="fill:none;stroke:#000000;stroke-width:7.23175;stroke-dasharray:none"
       id="rect18437"
       width="28.356506"
       height="74.184135"
       x="-2028.4061"
       y="2387.0417"
       ry="15.827112"
       transform="matrix(-0.87395604,0.48600498,0.36632057,0.93048871,0,0)" />
    <rect
       style="fill:none;stroke:#000000;stroke-width:6.6186;stroke-dasharray:none"
       id="rect18439"
       width="26.879574"
       height="73.740356"
       x="2593.9834"
       y="1347.2076"
       ry="4.9627333" />
    <rect
       style="fill:none;stroke:#000000;stroke-width:6.6186;stroke-dasharray:none"
       id="rect18441"
       width="26.879574"
       height="73.740356"
       x="2551.8884"
       y="1346.9153"
       ry="4.9627333" />
    <rect
       style="fill:none;stroke:#000000;stroke-width:8;stroke-dasharray:none"
       id="rect18443"
       width="46.117966"
       height="18.25515"
       x="2531.6079"
       y="1422.3716"
       ry="1.2285734" />
    <rect
       style="fill:none;stroke:#000000;stroke-width:8;stroke-dasharray:none"
       id="rect18445"
       width="42.898399"
       height="19.712803"
       x="2594.752"
       y="1422.0813"
       ry="1.3266735" />
    <path
       style="fill:#ff5555;stroke:#000000;stroke-width:8.81104;stroke-dasharray:none"
       d="m 2873.2241,1421.6315 -1.1657,409.7573 45.4634,-68.2929 48.9604,75.4067 43.132,-71.1383 51.292,65.4472 40.8004,-58.3334 54.7891,51.2196 20.9831,-51.2196 1.1657,-355.6921 z"
       id="path18447" />
    <ellipse
       style="fill:#afc6e9;stroke:#000000;stroke-width:5.08351;stroke-dasharray:none"
       id="ellipse34840"
       cx="3030.6238"
       cy="1303.9727"
       rx="213.79816"
       ry="209.12093" />
    <ellipse
       style="fill:url(#radialGradient36764);fill-opacity:1;stroke:#000000;stroke-width:15;stroke-dasharray:none"
       id="ellipse18449"
       cx="3030.0391"
       cy="1304.5573"
       rx="191.46945"
       ry="191.46944" />
    <rect
       style="fill:none;stroke:#000000;stroke-width:8;stroke-dasharray:none"
       id="rect18463"
       width="46.117966"
       height="18.25515"
       x="2974.7849"
       y="1432.2935"
       ry="1.2285734" />
    <rect
       style="fill:none;stroke:#000000;stroke-width:8;stroke-dasharray:none"
       id="rect18465"
       width="42.898399"
       height="19.712803"
       x="3037.929"
       y="1432.0033"
       ry="1.3266735" />
    <rect
       style="fill:none;stroke:#000000;stroke-width:7.2;stroke-dasharray:none"
       id="rect18451"
       width="106.99149"
       height="107.576"
       x="2978.8198"
       y="1140.6866"
       ry="23.674654" />
    <rect
       style="fill:none;stroke:#000000;stroke-width:7.2;stroke-dasharray:none"
       id="rect18453"
       width="83.304672"
       height="107.86704"
       x="2988.5962"
       y="1248.8549"
       ry="15.470479" />
    <rect
       style="fill:none;stroke:#000000;stroke-width:7.23175;stroke-dasharray:none"
       id="rect18455"
       width="28.356506"
       height="74.184135"
       x="3249.9395"
       y="-353.905"
       ry="15.827112"
       transform="matrix(0.87395604,0.48600498,-0.36632057,0.93048871,0,0)" />
    <rect
       style="fill:none;stroke:#000000;stroke-width:7.23175;stroke-dasharray:none"
       id="rect18457"
       width="28.356506"
       height="74.184135"
       x="-2440.7551"
       y="2613.0796"
       ry="15.827112"
       transform="matrix(-0.87395604,0.48600498,0.36632057,0.93048871,0,0)" />
    <rect
       style="fill:none;stroke:#000000;stroke-width:6.6186;stroke-dasharray:none"
       id="rect18459"
       width="26.879574"
       height="73.740356"
       x="3037.1604"
       y="1357.1295"
       ry="4.9627333" />
    <rect
       style="fill:none;stroke:#000000;stroke-width:6.6186;stroke-dasharray:none"
       id="rect18461"
       width="26.879574"
       height="73.740356"
       x="2995.0654"
       y="1356.8372"
       ry="4.9627333" />
    <path
       style="fill:#ff5555;stroke:#000000;stroke-width:8.81104;stroke-dasharray:none"
       d="m 3393.395,1418.3242 -1.1657,409.7572 45.4634,-68.2929 48.9604,75.4067 43.132,-71.1383 51.292,65.4472 40.8004,-58.3334 54.7891,51.2196 20.9831,-51.2196 1.1657,-355.692 z"
       id="path18467" />
    <circle
       style="fill:#ffaaee;stroke:#000000;stroke-width:4.2;stroke-dasharray:none"
       id="circle47202"
       cx="3548.4607"
       cy="1299.6537"
       r="235.22047" />
    <circle
       style="fill:#d400aa;stroke:#000000;stroke-width:5.85001;stroke-dasharray:none"
       id="ellipse45278"
       cx="3548.8528"
       cy="1300.0457"
       r="224.01944" />
    <ellipse
       style="fill:url(#radialGradient48404);fill-opacity:1;stroke:#000000;stroke-width:15;stroke-dasharray:none"
       id="ellipse18469"
       cx="3550.2083"
       cy="1301.25"
       rx="191.46945"
       ry="191.46944" />
    <rect
       style="fill:none;stroke:#000000;stroke-width:7.2;stroke-dasharray:none"
       id="rect18471"
       width="106.99149"
       height="107.576"
       x="3498.989"
       y="1137.3793"
       ry="23.674654" />
    <rect
       style="fill:none;stroke:#000000;stroke-width:7.2;stroke-dasharray:none"
       id="rect18473"
       width="83.304672"
       height="107.86704"
       x="3508.7654"
       y="1245.5476"
       ry="15.470479" />
    <rect
       style="fill:none;stroke:#000000;stroke-width:7.23175;stroke-dasharray:none"
       id="rect18475"
       width="28.356506"
       height="74.184135"
       x="3737.0085"
       y="-611.86127"
       ry="15.827112"
       transform="matrix(0.87395604,0.48600498,-0.36632057,0.93048871,0,0)" />
    <rect
       style="fill:none;stroke:#000000;stroke-width:7.23175;stroke-dasharray:none"
       id="rect18477"
       width="28.356506"
       height="74.184135"
       x="-2930.2688"
       y="2865.2029"
       ry="15.827112"
       transform="matrix(-0.87395604,0.48600498,0.36632057,0.93048871,0,0)" />
    <rect
       style="fill:none;stroke:#000000;stroke-width:6.6186;stroke-dasharray:none"
       id="rect18479"
       width="26.879574"
       height="73.740356"
       x="3557.3296"
       y="1353.8221"
       ry="4.9627333" />
    <rect
       style="fill:none;stroke:#000000;stroke-width:6.6186;stroke-dasharray:none"
       id="rect18481"
       width="26.879574"
       height="73.740356"
       x="3515.2346"
       y="1353.5299"
       ry="4.9627333" />
    <rect
       style="fill:none;stroke:#000000;stroke-width:8;stroke-dasharray:none"
       id="rect18483"
       width="46.117966"
       height="18.25515"
       x="3494.9541"
       y="1428.9861"
       ry="1.2285734" />
    <rect
       style="fill:none;stroke:#000000;stroke-width:8;stroke-dasharray:none"
       id="rect18485"
       width="42.898399"
       height="19.712803"
       x="3558.0981"
       y="1428.6958"
       ry="1.3266735" />
    <ellipse
       style="fill:#ff80b2;fill-opacity:1;stroke:#000000;stroke-width:5;stroke-dasharray:none"
       id="ellipse22457"
       cx="1216.7319"
       cy="1491.1432"
       rx="58.757534"
       ry="36.248428" />
    <ellipse
       style="fill:url(#linearGradient21366);fill-opacity:1;stroke:#000000;stroke-width:15;stroke-dasharray:none"
       id="ellipse20594"
       cx="1217.6176"
       cy="1301.25"
       rx="191.46945"
       ry="191.46944" />
    <rect
       style="fill:none;stroke:#000000;stroke-width:7.2;stroke-dasharray:none"
       id="rect20596"
       width="106.99149"
       height="107.576"
       x="1166.3983"
       y="1137.3794"
       ry="23.674654" />
    <rect
       style="fill:none;stroke:#000000;stroke-width:7.2;stroke-dasharray:none"
       id="rect20598"
       width="83.304672"
       height="107.86704"
       x="1176.1747"
       y="1245.5476"
       ry="15.470479" />
    <rect
       style="fill:none;stroke:#000000;stroke-width:7.23175;stroke-dasharray:none"
       id="rect20600"
       width="28.356506"
       height="74.184135"
       x="1547.3776"
       y="531.80792"
       ry="15.827112"
       transform="matrix(0.87395604,0.48600498,-0.36632057,0.93048871,0,0)" />
    <rect
       style="fill:none;stroke:#000000;stroke-width:7.23175;stroke-dasharray:none"
       id="rect20602"
       width="28.356506"
       height="74.184135"
       x="-740.6377"
       y="1721.5342"
       ry="15.827112"
       transform="matrix(-0.87395604,0.48600498,0.36632057,0.93048871,0,0)" />
    <rect
       style="fill:none;stroke:#000000;stroke-width:6.6186;stroke-dasharray:none"
       id="rect20604"
       width="26.879574"
       height="73.740356"
       x="1224.7389"
       y="1353.8223"
       ry="4.9627333" />
    <rect
       style="fill:none;stroke:#000000;stroke-width:6.6186;stroke-dasharray:none"
       id="rect20606"
       width="26.879574"
       height="73.740356"
       x="1182.6439"
       y="1353.5299"
       ry="4.9627333" />
    <rect
       style="fill:none;stroke:#000000;stroke-width:8;stroke-dasharray:none"
       id="rect20608"
       width="46.117966"
       height="18.25515"
       x="1162.3633"
       y="1428.9861"
       ry="1.2285734" />
    <rect
       style="fill:none;stroke:#000000;stroke-width:8;stroke-dasharray:none"
       id="rect20610"
       width="42.898399"
       height="19.712803"
       x="1225.5074"
       y="1428.6958"
       ry="1.3266735" />
    <ellipse
       style="fill:none;stroke:#000000;stroke-width:15;stroke-dasharray:none"
       id="ellipse25662"
       cx="1680.662"
       cy="1301.25"
       rx="191.46945"
       ry="191.46944" />
    <path
       style="fill:#000000;fill-opacity:1;stroke:none;stroke-width:4.99999;stroke-dasharray:none"
       id="path37377"
       d="m 2861.0728,1234.5022 c 2.9329,-0.1625 5.869,-0.2552 8.8058,-0.3126 2.7692,-0.1324 5.5208,0.2343 8.2712,0.492 1.8026,0.1531 3.5695,0.5381 5.349,0.8437 1.3812,0.1183 2.6885,0.4454 3.9632,0.9799 0.6083,0.3957 1.4164,0.4507 2.035,0.809 0.041,0.024 -0.029,0.099 -0.01,0.1409 0.1659,0.3417 0.4188,0.634 0.6191,0.9568 0.6962,1.1368 1.1912,2.3558 1.3788,3.6743 0.273,1.4654 0.4029,2.9487 0.4762,4.4357 0.055,1.6035 0.057,3.208 0.059,4.8123 0,1.2508 -0.2132,2.4892 -0.2995,3.737 -0.2003,1.6569 -0.3529,3.3181 -0.4537,4.9839 -0.074,1.3802 -0.078,2.7626 -0.082,4.1444 0,1.4824 0,2.9648 0,4.4471 0,1.2136 0,2.4271 0,3.6406 -0.019,1.9728 -0.019,3.9405 0.1222,5.9087 0.2458,1.8513 0.4993,3.6977 0.6059,5.5629 0.073,1.9782 0.072,3.9542 0.2265,5.9283 0.1217,1.3155 0.2212,2.6322 0.2617,3.9527 0.029,1.2815 0.027,2.5633 0.027,3.8451 0,1.4613 0,2.9227 0,4.384 0,1.4189 0,2.8378 0,4.2566 0,1.3686 0,2.7372 0,4.1058 -0.1233,1.6386 -0.2532,3.2765 -0.3363,4.9177 -0.056,1.7821 -0.276,3.5568 -0.5885,5.3109 -0.2632,1.6936 -0.6948,3.3425 -1.3642,4.9182 -0.6955,1.5326 -1.2771,3.1068 -1.7862,4.7096 -0.409,1.0216 -0.7384,2.1485 -1.4321,3.0237 -0.7978,0.9431 -1.7593,1.7184 -2.6935,2.5187 -1.1441,1.1418 -2.5043,1.8849 -4.0225,2.3887 -1.212,0.4462 -2.4714,0.7286 -3.7549,0.8533 -1.6423,0.1506 -3.2856,0.2813 -4.9327,0.3711 -2.0084,0.094 -4.0198,0.093 -6.0301,0.1007 -1.737,0.061 -3.4663,-0.1152 -5.1961,-0.2436 -1.3301,-0.039 -2.6451,-0.2046 -3.9661,-0.343 -1.568,-0.1367 -3.1412,-0.1961 -4.7144,-0.2294 -0.9792,-0.018 -1.9587,-0.016 -2.9379,-0.015 -0.2003,10e-5 -0.4006,0 -0.6009,0 -2.4945,0 -2.491,3.53 0,3.5277 v 0 c 0.2,-2e-4 0.4,0 0.6,0 0.9536,0 1.9074,0 2.861,0.014 1.4761,0.031 2.9522,0.086 4.4238,0.2113 1.3555,0.1399 2.7059,0.3102 4.0698,0.3523 1.8212,0.1351 3.6423,0.3141 5.4708,0.2533 2.0699,-0.01 4.1408,-0.01 6.209,-0.106 1.7015,-0.093 3.3991,-0.2294 5.0956,-0.3838 1.5473,-0.1615 3.0702,-0.4849 4.5336,-1.0225 1.9328,-0.667 3.7074,-1.6074 5.184,-3.0505 1.1475,-0.9833 2.3233,-1.947 3.2639,-3.1406 0.8475,-1.2298 1.455,-2.5973 1.9283,-4.0128 0.4763,-1.5001 1.0205,-2.9725 1.6746,-4.4059 0.7649,-1.8224 1.2848,-3.7212 1.588,-5.6768 0.3323,-1.8988 0.577,-3.8173 0.6374,-5.7458 0.086,-1.7006 0.2323,-3.3966 0.3408,-5.0957 0,-1.3686 0,-2.7371 0,-4.1057 0,-1.4183 0,-2.8367 0,-4.2551 0,-1.462 0,-2.9241 0,-4.3861 0,-1.3182 0,-2.6365 -0.029,-3.9544 -0.043,-1.3761 -0.1432,-2.7485 -0.2707,-4.1192 -0.154,-1.95 -0.141,-3.9026 -0.2217,-5.8565 -0.1106,-1.8807 -0.3445,-3.7458 -0.6088,-5.6108 -0.136,-1.8842 -0.1294,-3.7679 -0.1133,-5.6566 0,-1.2143 0,-2.4286 0,-3.6429 0,-1.478 0,-2.9561 0,-4.4343 0,-1.3144 0.01,-2.6294 0.076,-3.9424 0.1,-1.6566 0.2585,-3.3077 0.4516,-4.956 0.089,-1.3287 0.3223,-2.6468 0.3077,-3.9805 0,-1.6617 -0.01,-3.3239 -0.063,-4.9849 -0.081,-1.6091 -0.2212,-3.2148 -0.5136,-4.8011 -0.2944,-1.7993 -0.9186,-3.4857 -1.8944,-5.0359 -0.3897,-0.5962 -0.7747,-1.2651 -1.3131,-1.7486 -0.8747,-0.7857 -1.909,-1.0632 -2.9586,-1.5164 -1.5174,-0.618 -3.0734,-1.0536 -4.7119,-1.1957 -1.8683,-0.3197 -3.7235,-0.7212 -5.6164,-0.879 -2.8826,-0.2698 -5.7668,-0.6447 -8.669,-0.5067 -3.0041,0.059 -6.0077,0.1534 -9.0075,0.3223 -2.4871,0.1913 -2.2167,3.7087 0.2707,3.5174 z" />
    <path
       style="fill:#afc6e9;fill-opacity:1;stroke:none;stroke-width:11.0486;stroke-dasharray:none"
       d="m 2868.701,1233.0831 c -3.3655,0.2988 -7.4239,-0.3282 -10.2235,1.5188 -8.1579,21.0719 -13.4424,43.5401 -13.1067,66.2346 0.048,12.4274 -0.1521,25.0497 2.7075,37.2157 2.5038,2.2716 6.6257,1.4619 9.7872,2.1045 8.024,0.1722 16.4944,1.0295 24.1798,-1.7449 7.0432,-3.4507 9.281,-11.896 10.6643,-18.9977 1.3763,-15.5363 -0.2424,-31.1652 -0.024,-46.7378 -0.4392,-10.5196 0.7388,-21.1337 -0.2529,-31.6455 -0.2807,-4.4513 -4.8075,-6.2312 -8.6328,-6.6311 -4.98,-0.8807 -10.0436,-1.2906 -15.0993,-1.3166 z"
       id="path38016" />
    <path
       style="fill:#000000;fill-opacity:1;stroke:none;stroke-width:4.99999;stroke-dasharray:none"
       id="path37377-3"
       d="m 3198.0527,1237.7666 c -2.9329,-0.1625 -5.869,-0.2553 -8.8058,-0.3126 -2.7692,-0.1324 -5.5208,0.2343 -8.2712,0.492 -1.8026,0.153 -3.5695,0.5381 -5.349,0.8437 -1.3812,0.1183 -2.6885,0.4454 -3.9632,0.9799 -0.6083,0.3956 -1.4164,0.4507 -2.035,0.8089 -0.041,0.024 0.029,0.099 0.01,0.141 -0.1659,0.3417 -0.4188,0.6339 -0.6191,0.9568 -0.6962,1.1367 -1.1912,2.3558 -1.3788,3.6742 -0.273,1.4655 -0.4029,2.9487 -0.4762,4.4358 -0.055,1.6034 -0.057,3.208 -0.059,4.8122 0,1.2509 0.2132,2.4893 0.2995,3.7371 0.2003,1.6569 0.3529,3.3181 0.4537,4.9838 0.074,1.3802 0.078,2.7627 0.082,4.1445 0,1.4824 0,2.9647 0,4.4471 0,1.2135 0,2.4271 0,3.6406 0.019,1.9728 0.019,3.9405 -0.1222,5.9087 -0.2458,1.8512 -0.4993,3.6977 -0.6059,5.5628 -0.073,1.9783 -0.072,3.9542 -0.2265,5.9284 -0.1217,1.3154 -0.2212,2.6321 -0.2617,3.9526 -0.029,1.2815 -0.027,2.5634 -0.027,3.8451 0,1.4614 0,2.9228 0,4.3841 0,1.4189 0,2.8377 0,4.2566 0,1.3686 0,2.7372 0,4.1058 0.1233,1.6386 0.2532,3.2765 0.3363,4.9177 0.056,1.782 0.276,3.5568 0.5885,5.3109 0.2632,1.6936 0.6948,3.3425 1.3642,4.9182 0.6955,1.5325 1.2771,3.1068 1.7862,4.7096 0.409,1.0215 0.7384,2.1485 1.4321,3.0237 0.7978,0.9431 1.7593,1.7183 2.6935,2.5187 1.1441,1.1418 2.5043,1.8849 4.0225,2.3887 1.212,0.4461 2.4714,0.7286 3.7549,0.8532 1.6423,0.1507 3.2856,0.2814 4.9327,0.3711 2.0084,0.094 4.0198,0.093 6.0301,0.1008 1.737,0.061 3.4663,-0.1153 5.1961,-0.2436 1.3301,-0.039 2.6451,-0.2047 3.9661,-0.343 1.568,-0.1367 3.1412,-0.1962 4.7144,-0.2295 0.9792,-0.018 1.9587,-0.016 2.9379,-0.015 0.2003,2e-4 0.4006,0 0.6009,0 2.4945,0 2.491,3.5301 0,3.5278 v 0 c -0.2,-2e-4 -0.4,0 -0.6,0 -0.9536,0 -1.9074,0 -2.861,0.014 -1.4761,0.031 -2.9522,0.086 -4.4238,0.2113 -1.3555,0.1399 -2.7059,0.3102 -4.0698,0.3523 -1.8212,0.1351 -3.6423,0.3141 -5.4708,0.2532 -2.0699,-0.01 -4.1408,-0.01 -6.209,-0.1059 -1.7015,-0.093 -3.3991,-0.2294 -5.0956,-0.3838 -1.5473,-0.1615 -3.0702,-0.4849 -4.5336,-1.0226 -1.9328,-0.667 -3.7074,-1.6073 -5.184,-3.0504 -1.1475,-0.9833 -2.3233,-1.947 -3.2639,-3.1406 -0.8475,-1.2298 -1.455,-2.5974 -1.9283,-4.0128 -0.4763,-1.5002 -1.0205,-2.9725 -1.6746,-4.406 -0.7649,-1.8224 -1.2848,-3.7211 -1.588,-5.6767 -0.3323,-1.8989 -0.577,-3.8173 -0.6374,-5.7458 -0.086,-1.7006 -0.2323,-3.3966 -0.3408,-5.0958 0,-1.3685 0,-2.7371 0,-4.1056 0,-1.4184 0,-2.8368 0,-4.2551 0,-1.4621 0,-2.9241 0,-4.3861 0,-1.3182 0,-2.6366 0.029,-3.9545 0.043,-1.376 0.1432,-2.7484 0.2707,-4.1192 0.154,-1.9499 0.141,-3.9025 0.2217,-5.8565 0.1106,-1.8807 0.3445,-3.7457 0.6088,-5.6107 0.136,-1.8842 0.1294,-3.7679 0.1133,-5.6566 0,-1.2143 0,-2.4286 0,-3.6429 0,-1.4781 0,-2.9562 0,-4.4343 0,-1.3144 -0.01,-2.6295 -0.076,-3.9424 -0.1,-1.6567 -0.2585,-3.3077 -0.4516,-4.956 -0.089,-1.3287 -0.3223,-2.6468 -0.3077,-3.9805 0,-1.6618 0.01,-3.324 0.063,-4.9849 0.081,-1.6092 0.2212,-3.2148 0.5136,-4.8011 0.2944,-1.7993 0.9186,-3.4857 1.8944,-5.0359 0.3897,-0.5963 0.7747,-1.2651 1.3131,-1.7487 0.8747,-0.7856 1.909,-1.0631 2.9586,-1.5164 1.5174,-0.6179 3.0734,-1.0535 4.7119,-1.1956 1.8683,-0.3197 3.7235,-0.7213 5.6164,-0.879 2.8826,-0.2698 5.7668,-0.6447 8.669,-0.5067 3.0041,0.059 6.0077,0.1533 9.0075,0.3223 2.4871,0.1913 2.2167,3.7087 -0.2707,3.5174 z" />
    <path
       style="fill:#afc6e9;fill-opacity:1;stroke:none;stroke-width:11.0486;stroke-dasharray:none"
       d="m 3190.4246,1236.3475 c 3.3655,0.2988 7.4239,-0.3283 10.2235,1.5187 8.1579,21.072 13.4424,43.5402 13.1066,66.2347 -0.048,12.4274 0.1522,25.0496 -2.7075,37.2156 -2.5037,2.2716 -6.6257,1.4619 -9.7872,2.1046 -8.024,0.1722 -16.4943,1.0295 -24.1797,-1.7449 -7.0432,-3.4508 -9.2811,-11.8961 -10.6643,-18.9977 -1.3764,-15.5363 0.2424,-31.1653 0.024,-46.7378 0.4392,-10.5196 -0.7387,-21.1338 0.253,-31.6456 0.2807,-4.4512 4.8074,-6.2311 8.6328,-6.631 4.98,-0.8808 10.0436,-1.2906 15.0992,-1.3166 z"
       id="path38016-0" />
    <path
       style="fill:#000000;fill-opacity:1;stroke:none;stroke-width:4.99999;stroke-dasharray:none"
       id="path45240"
       d="m 3482.8537,1116.2821 c 0,-5.9931 0,-11.9863 0,-17.9794 -0.1367,-6.0589 0.1739,-12.1074 0.4919,-18.155 0.098,-3.2847 0.5972,-6.5554 1.8754,-9.5903 1.3329,-2.442 2.8972,-4.9073 5.2303,-6.5054 1.515,-0.8814 3.2586,-1.3094 4.9543,-1.7145 2.3095,-0.3202 4.6222,-0.6348 6.9485,-0.8102 7.0577,-0.4429 14.1356,-0.1303 21.1968,0.077 4.21,0.1503 8.4206,0.2593 12.6331,0.295 3.9518,0.023 7.9033,0.022 11.8551,0.021 3.7288,0.021 7.4465,0.399 11.1713,0.5901 3.9632,0.066 7.9033,0.49 11.8583,0.7219 3.6108,0.204 7.2258,0.2945 10.8416,0.3301 3.4533,0.02 6.907,0.015 10.3603,0.012 3.8454,0 7.6912,0 11.5366,0 3.7325,0 7.465,0 11.1977,0 2.3559,-0.017 4.7644,-0.024 7.0567,0.5828 1.6209,0.3417 3.1126,0.9101 4.2368,2.151 0.9483,1.0868 1.0948,2.3129 1.4647,3.6605 0.8319,4.2781 0.7221,8.7375 0.8202,13.0892 -0.06,2.7953 0.2188,5.6102 0.079,8.4044 -0.03,0.593 -0.3683,2.9807 -0.4315,3.4478 -0.6152,3.6583 -0.7837,7.3671 -1.1978,11.0464 -0.2773,2.9228 -0.6321,5.8241 -1.0999,8.7219 -0.2706,1.5773 -0.3913,3.1731 -0.4921,4.7683 -0.3868,6.2243 8.4159,6.7713 8.8024,0.547 v 0 c 0.08,-1.3079 0.1723,-2.6169 0.3966,-3.9097 0.4914,-3.0447 0.865,-6.095 1.16,-9.1651 0.3884,-3.612 0.5821,-7.246 1.1721,-10.8367 0.2188,-1.6473 0.427,-2.9719 0.5096,-4.6454 0.1407,-2.8525 -0.14,-5.7252 -0.081,-8.5786 -0.1151,-5.0713 0,-10.2599 -1.133,-15.2255 -0.7868,-2.8619 -1.7039,-5.5675 -3.8811,-7.7056 -2.3927,-2.1856 -5.1158,-3.7471 -8.3405,-4.3632 -2.9734,-0.6392 -5.9955,-0.9241 -9.0411,-0.8089 -3.733,0 -7.466,0 -11.1987,0 -3.8473,0 -7.6947,0 -11.5417,0 -3.4226,0 -6.8453,0.01 -10.2677,-0.012 -3.4732,-0.034 -6.9456,-0.12 -10.414,-0.3155 -3.9756,-0.2313 -7.9369,-0.6602 -11.9213,-0.7254 -3.8754,-0.1983 -7.7436,-0.5935 -11.6247,-0.6017 -3.9262,0 -7.8523,0 -11.7785,-0.02 -4.151,-0.035 -8.3,-0.1437 -12.4486,-0.2915 -7.3793,-0.2165 -14.7765,-0.5346 -22.1515,-0.053 -2.7913,0.2292 -5.5803,0.5619 -8.341,1.0335 -2.8342,0.7003 -5.6914,1.5167 -8.1195,3.1991 -3.5536,2.7261 -6.2651,6.2627 -8.1696,10.3239 -0.3257,0.8465 -0.6969,1.6769 -0.9773,2.5393 -1.0282,3.1588 -1.3118,6.5619 -1.5124,9.8534 -0.3262,6.2018 -0.6395,12.4049 -0.5043,18.6182 0,5.9931 0,11.9862 0,17.9794 0,6.2363 8.8196,6.2363 8.8196,0 z" />
    <path
       style="fill:#000000;fill-opacity:1;stroke:none;stroke-width:4.99999;stroke-dasharray:none"
       id="path45240-6"
       d="m 3732.5471,1218.5893 c 5.9932,0 11.9863,0 17.9794,0 6.059,-0.1367 12.1075,0.1739 18.1551,0.4919 3.2847,0.098 6.5554,0.5972 9.5903,1.8754 2.442,1.3329 4.9072,2.8972 6.5053,5.2303 0.8815,1.515 1.3095,3.2586 1.7145,4.9543 0.3202,2.3095 0.6348,4.6222 0.8102,6.9485 0.4429,7.0577 0.1304,14.1356 -0.077,21.1968 -0.1502,4.21 -0.2592,8.4206 -0.2949,12.6331 -0.023,3.9518 -0.022,7.9033 -0.021,11.8551 -0.021,3.7288 -0.399,7.4465 -0.5901,11.1713 -0.066,3.9632 -0.4901,7.9033 -0.722,11.8583 -0.204,3.6108 -0.2945,7.2258 -0.33,10.8416 -0.02,3.4533 -0.015,6.907 -0.012,10.3603 0,3.8454 0,7.6912 0,11.5366 0,3.7325 0,7.465 0,11.1977 0.017,2.3559 0.024,4.7644 -0.5828,7.0567 -0.3418,1.6209 -0.9101,3.1126 -2.151,4.2368 -1.0869,0.9483 -2.3129,1.0948 -3.6606,1.4647 -4.278,0.8319 -8.7374,0.7221 -13.0892,0.8202 -2.7952,-0.06 -5.6101,0.2188 -8.4044,0.079 -0.5929,-0.03 -2.9807,-0.3683 -3.4477,-0.4315 -3.6584,-0.6152 -7.3672,-0.7837 -11.0464,-1.1978 -2.9229,-0.2773 -5.8242,-0.6321 -8.7219,-1.0999 -1.5773,-0.2706 -3.1732,-0.3913 -4.7684,-0.4921 -6.2243,-0.3868 -6.7712,8.4159 -0.5469,8.8024 v 0 c 1.3078,0.08 2.6169,0.1723 3.9097,0.3966 3.0447,0.4914 6.0949,0.865 9.1651,1.16 3.612,0.3884 7.2459,0.5821 10.8367,1.1721 1.6472,0.2188 2.9718,0.427 4.6454,0.5096 2.8524,0.1407 5.7251,-0.14 8.5785,-0.081 5.0713,-0.1151 10.26,0 15.2255,-1.133 2.8619,-0.7868 5.5676,-1.7039 7.7057,-3.8811 2.1855,-2.3927 3.747,-5.1158 4.3631,-8.3405 0.6393,-2.9734 0.9241,-5.9955 0.809,-9.0411 0,-3.733 -1e-4,-7.466 0,-11.1987 0,-3.8473 0,-7.6947 0,-11.5417 0,-3.4226 -0.01,-6.8453 0.012,-10.2677 0.034,-3.4732 0.12,-6.9456 0.3155,-10.414 0.2312,-3.9756 0.6601,-7.9369 0.7254,-11.9213 0.1982,-3.8754 0.5935,-7.7436 0.6017,-11.6247 0,-3.9262 0,-7.8523 0.02,-11.7785 0.035,-4.151 0.1436,-8.3 0.2914,-12.4486 0.2166,-7.3793 0.5347,-14.7765 0.053,-22.1515 -0.2291,-2.7913 -0.5619,-5.5803 -1.0334,-8.341 -0.7003,-2.8342 -1.5167,-5.6914 -3.1992,-8.1195 -2.7261,-3.5536 -6.2626,-6.2651 -10.3239,-8.1696 -0.8464,-0.3257 -1.6768,-0.6969 -2.5392,-0.9773 -3.1589,-1.0282 -6.5619,-1.3118 -9.8535,-1.5124 -6.2017,-0.3262 -12.4048,-0.6395 -18.6181,-0.5043 -5.9931,0 -11.9863,0 -17.9794,0 -6.2363,0 -6.2363,8.8196 0,8.8196 z" />
    <path
       style="fill:#000000;fill-opacity:1;stroke:none;stroke-width:4.99999;stroke-dasharray:none"
       id="path45272"
       d="m 3363.2432,1230.9916 c -5.9932,0 -11.9863,0 -17.9794,0 -6.059,-0.1367 -12.1075,0.1739 -18.1551,0.4919 -3.2847,0.098 -6.5554,0.5972 -9.5903,1.8754 -2.442,1.3329 -4.9072,2.8972 -6.5053,5.2303 -0.8815,1.515 -1.3095,3.2586 -1.7145,4.9543 -0.3202,2.3095 -0.6348,4.6222 -0.8102,6.9485 -0.4429,7.0577 -0.1304,14.1356 0.077,21.1968 0.1502,4.21 0.2592,8.4206 0.2949,12.6331 0.023,3.9518 0.022,7.9033 0.021,11.8551 0.021,3.7288 0.399,7.4465 0.5901,11.1713 0.066,3.9632 0.4901,7.9033 0.722,11.8583 0.204,3.6108 0.2945,7.2258 0.33,10.8416 0.02,3.4533 0.015,6.907 0.012,10.3603 0,3.8454 0,7.6912 0,11.5366 0,3.7325 0,7.465 0,11.1977 -0.017,2.3559 -0.024,4.7644 0.5828,7.0567 0.3418,1.6209 0.9101,3.1126 2.151,4.2368 1.0869,0.9483 2.3129,1.0948 3.6606,1.4647 4.278,0.8319 8.7374,0.7221 13.0892,0.8202 2.7952,-0.06 5.6101,0.2188 8.4044,0.079 0.5929,-0.03 2.9807,-0.3683 3.4477,-0.4315 3.6584,-0.6152 7.3672,-0.7837 11.0464,-1.1978 2.9229,-0.2773 5.8242,-0.6321 8.7219,-1.0999 1.5773,-0.2706 3.1732,-0.3913 4.7684,-0.4921 6.2243,-0.3868 6.7712,8.4159 0.5469,8.8024 v 0 c -1.3078,0.08 -2.6169,0.1723 -3.9097,0.3966 -3.0447,0.4914 -6.0949,0.865 -9.1651,1.16 -3.612,0.3884 -7.2459,0.5821 -10.8367,1.1721 -1.6472,0.2188 -2.9718,0.427 -4.6454,0.5096 -2.8524,0.1407 -5.7251,-0.14 -8.5785,-0.081 -5.0713,-0.1151 -10.26,0 -15.2255,-1.133 -2.8619,-0.7868 -5.5676,-1.7039 -7.7057,-3.8811 -2.1855,-2.3927 -3.747,-5.1158 -4.3631,-8.3405 -0.6393,-2.9734 -0.9241,-5.9955 -0.809,-9.0411 0,-3.733 1e-4,-7.466 0,-11.1987 0,-3.8473 0,-7.6947 0,-11.5417 0,-3.4226 0.01,-6.8453 -0.012,-10.2677 -0.034,-3.4732 -0.12,-6.9456 -0.3155,-10.414 -0.2312,-3.9756 -0.6601,-7.9369 -0.7254,-11.9213 -0.1982,-3.8754 -0.5935,-7.7436 -0.6017,-11.6247 0,-3.9262 0,-7.8523 -0.02,-11.7785 -0.035,-4.151 -0.1436,-8.3 -0.2914,-12.4486 -0.2166,-7.3793 -0.5347,-14.7765 -0.053,-22.1515 0.2291,-2.7913 0.5619,-5.5803 1.0334,-8.341 0.7003,-2.8342 1.5167,-5.6914 3.1992,-8.1195 2.7261,-3.5536 6.2626,-6.2651 10.3239,-8.1696 0.8464,-0.3257 1.6768,-0.6969 2.5392,-0.9773 3.1589,-1.0282 6.5619,-1.3118 9.8535,-1.5124 6.2017,-0.3262 12.4048,-0.6395 18.6181,-0.5043 5.9931,0 11.9863,0 17.9794,0 6.2363,0 6.2363,8.8196 0,8.8196 z" />
    <path
       style="fill:#000000;fill-opacity:1;stroke:none;stroke-width:4.99999;stroke-dasharray:none"
       id="path45274"
       d="m 3479.5464,1485.5823 c 0,5.9931 0,11.9863 0,17.9794 -0.1367,6.0589 0.1739,12.1074 0.4919,18.155 0.098,3.2847 0.5972,6.5554 1.8754,9.5904 1.3329,2.442 2.8972,4.9072 5.2303,6.5053 1.515,0.8814 3.2586,1.3095 4.9543,1.7145 2.3095,0.3202 4.6222,0.6348 6.9485,0.8102 7.0577,0.4429 14.1356,0.1304 21.1968,-0.077 4.21,-0.1503 8.4206,-0.2592 12.6331,-0.2949 3.9518,-0.023 7.9033,-0.022 11.8551,-0.021 3.7288,-0.021 7.4465,-0.3991 11.1713,-0.5902 3.9632,-0.066 7.9033,-0.49 11.8583,-0.7219 3.6108,-0.204 7.2258,-0.2945 10.8416,-0.3301 3.4533,-0.02 6.907,-0.015 10.3603,-0.012 3.8454,0 7.6912,0 11.5366,0 3.7325,0 7.465,0 11.1977,0 2.3559,0.017 4.7644,0.024 7.0567,-0.5828 1.6209,-0.3417 3.1126,-0.9101 4.2368,-2.151 0.9483,-1.0868 1.0948,-2.3129 1.4647,-3.6605 0.8319,-4.2781 0.7221,-8.7374 0.8202,-13.0892 -0.06,-2.7953 0.2188,-5.6101 0.079,-8.4044 -0.03,-0.593 -0.3683,-2.9807 -0.4315,-3.4478 -0.6152,-3.6583 -0.7837,-7.3671 -1.1978,-11.0463 -0.2773,-2.9229 -0.6321,-5.8242 -1.0999,-8.722 -0.2706,-1.5772 -0.3913,-3.1731 -0.4921,-4.7683 -0.3868,-6.2243 8.4159,-6.7712 8.8024,-0.5469 v 0 c 0.08,1.3078 0.1723,2.6169 0.3966,3.9096 0.4914,3.0447 0.865,6.095 1.16,9.1651 0.3884,3.612 0.5821,7.246 1.1721,10.8368 0.2188,1.6472 0.427,2.9718 0.5096,4.6454 0.1407,2.8524 -0.14,5.7251 -0.081,8.5785 -0.1151,5.0713 0,10.2599 -1.133,15.2255 -0.7868,2.8619 -1.7039,5.5675 -3.8811,7.7057 -2.3927,2.1855 -5.1158,3.747 -8.3405,4.3631 -2.9734,0.6393 -5.9955,0.9241 -9.0411,0.809 -3.733,0 -7.466,-10e-5 -11.1987,0 -3.8473,0 -7.6947,0 -11.5417,0 -3.4226,0 -6.8453,-0.01 -10.2677,0.012 -3.4732,0.034 -6.9456,0.1199 -10.414,0.3154 -3.9756,0.2313 -7.9369,0.6602 -11.9213,0.7254 -3.8754,0.1983 -7.7436,0.5935 -11.6247,0.6017 -3.9262,0 -7.8523,0 -11.7785,0.02 -4.151,0.035 -8.3,0.1437 -12.4486,0.2915 -7.3793,0.2165 -14.7765,0.5346 -22.1515,0.053 -2.7913,-0.2291 -5.5803,-0.5619 -8.341,-1.0335 -2.8342,-0.7002 -5.6914,-1.5167 -8.1195,-3.1991 -3.5536,-2.7261 -6.2651,-6.2626 -8.1696,-10.3239 -0.3257,-0.8464 -0.6969,-1.6768 -0.9773,-2.5393 -1.0282,-3.1588 -1.3118,-6.5619 -1.5124,-9.8534 -0.3262,-6.2017 -0.6395,-12.4049 -0.5043,-18.6181 0,-5.9932 0,-11.9863 0,-17.9795 0,-6.2363 8.8196,-6.2363 8.8196,0 z" />
    <path
       style="fill:#de87cd;fill-opacity:1;stroke:none;stroke-width:15.625;stroke-dasharray:none"
       d="m 3741.6806,1217.9328 c -3.4026,0.4501 -7.3867,-0.6575 -10.4662,1.0044 0,5.2224 3.8966,9.9908 5.1967,15.0685 13.0011,35.9726 14.6635,75.7473 6.395,112.9631 -0.9887,5.3753 -3.4748,10.5278 -4.0082,15.8566 13.6144,3.2711 28.0834,2.0437 42.0484,1.2984 6.0127,-1.7945 4.4643,-9.8509 5.2242,-14.6632 0.8792,-37.5102 2.146,-75.0413 1.7309,-112.5634 0.016,-5.4847 -0.6284,-11.7798 -5.9198,-14.8336 -7.3139,-5.5818 -17.3392,-3.2191 -25.8672,-4.0591 -4.7776,-0.072 -9.5557,-0.111 -14.3338,-0.072 z"
       id="path45418" />
    <path
       style="fill:#de87cd;fill-opacity:1;stroke:none;stroke-width:15.625;stroke-dasharray:none"
       d="m 3518.0426,1060.641 c -8.5172,0.6069 -17.5065,-0.8774 -25.7429,1.7183 -6.3151,2.8061 -10.245,9.5044 -9.5422,16.3991 -0.2212,11.5026 -1.3912,23.1766 -0.061,34.6055 2.1074,2.7793 5.9264,-1.1828 8.6572,-1.0726 31.9971,-10.0202 66.3241,-11.1312 99.0848,-4.8298 11.9822,2.1664 23.3101,6.8742 34.8816,10.3288 3.234,-3.0049 1.9519,-8.5967 2.8922,-12.6301 0.639,-12.1243 1.9333,-24.4488 0.1778,-36.511 -1.9672,-7.0968 -10.994,-5.5478 -16.6267,-6.089 -23.4497,0.098 -46.7931,-0.7886 -70.1926,-1.7401 -7.8412,-0.1634 -15.6848,-0.2133 -23.5278,-0.1791 z"
       id="path45420" />
    <path
       style="fill:#de87cd;fill-opacity:1;stroke:none;stroke-width:15.625;stroke-dasharray:none"
       d="m 3342.1328,1230.3738 c -8.8728,0.7721 -18.6934,-1.2949 -26.8523,3.0619 -4.6604,2.6865 -7.4803,7.5278 -7.125,12.9546 -0.9369,35.6768 0.7935,71.3747 1.216,107.0537 0.7575,7.046 -0.8408,14.9894 2.6953,21.3994 7.0321,4.3561 16.0494,2.209 23.9144,2.4807 9.5589,-0.3114 19.1087,-1.1689 28.5533,-2.6567 2.3101,-2.8625 -1.4372,-6.8189 -1.7254,-10.0256 -11.226,-32.4874 -12.9005,-68.0125 -6.7624,-101.673 1.8642,-10.8898 5.8652,-21.3945 8.4701,-31.9772 -3.6002,-2.1771 -9.2319,-0.1286 -13.5702,-0.7365 -2.938,0.04 -5.8759,0.079 -8.8138,0.1187 z"
       id="path45422" />
    <path
       style="fill:#de87cd;fill-opacity:1;stroke:none;stroke-width:15.625;stroke-dasharray:none"
       d="m 3621.8137,1486.219 c -17.0558,5.2247 -34.3357,10.3674 -52.2748,11.7764 -29.7658,3.0192 -60.0077,-1.121 -88.1623,-11.2079 -3.5417,0.8686 -1.6682,6.2499 -2.4545,8.9206 0.057,11.2435 -1.0729,22.785 1.2901,33.8416 2.0886,6.2106 7.4771,11.6422 14.4388,11.2939 23.1262,1.8627 46.3532,-0.5643 69.5158,-0.5804 19.0387,-0.8171 38.2397,0.1317 57.177,-2.0351 5.6425,-3.1743 4.1302,-11.1476 4.716,-16.5622 -0.1503,-11.5763 -0.2593,-23.3855 -2.6424,-34.725 -0.2913,-0.5447 -1.0118,-0.8371 -1.6037,-0.7219 z"
       id="path45424" />
    <path
       id="path49729"
       style="fill:none;stroke:#000000;stroke-width:8.81104;stroke-dasharray:none"
       d="m 3372.6071,462.2431 -1.1478,403.41672 45.4634,-68.29299 48.9608,75.40677 43.1318,-71.13829 51.2919,65.44716 40.8006,-58.33339 54.7889,51.21962 20.9833,-51.21962 1.1286,-344.31955 c -2.4818,2.18715 -4.8762,4.47133 -7.2874,6.73603 -2.4222,2.31564 -4.8999,4.5699 -7.4507,6.74377 -2.3402,2.09654 -4.7109,4.16404 -6.8818,6.43992 -2.3777,2.35761 -4.7876,4.68227 -7.1851,7.01972 -3.2223,3.02868 -6.5905,5.90233 -10.2397,8.41086 -3.7043,2.55337 -7.5103,4.98844 -11.6163,6.85385 -2.4878,1.12664 -5.0085,2.17525 -7.5081,3.27473 -1.4232,0.6262 -2.8059,1.50808 -4.2008,2.28358 -3.0469,1.58693 -6.176,3.01314 -9.3849,4.24367 -0.8835,0.30696 -1.7587,0.63902 -2.6505,0.92087 -3.7163,1.17473 -7.5635,1.82841 -11.3828,2.56212 -2.3702,0.39361 -2.7418,0.49038 -5.2854,0.74673 -2.0969,0.21132 -4.2131,0.19736 -6.3133,0.36122 -1.9718,0.0738 -3.9454,0.15733 -5.903,0.42064 -2.0314,0.27986 -4.0465,0.60808 -6.0059,1.23765 -3.1731,0.92641 -6.3016,2.02058 -9.5508,2.66702 -3.905,0.78373 -7.8466,1.35139 -11.8267,1.57562 -2.8013,0.1735 -5.6019,0.20413 -8.4083,0.17053 -2.3567,-10e-4 -4.7132,-0.003 -7.0698,-0.0103 -2.5209,-0.008 -5.0417,-0.0172 -7.5623,-0.061 -2.6429,-0.0518 -5.2887,-0.11582 -7.922,-0.36329 -2.6001,-0.24777 -5.2005,-0.52489 -7.7815,-0.92656 -2.718,-0.49661 -5.4231,-1.07344 -8.092,-1.7911 -2.3545,-0.6269 -4.6847,-1.33591 -7.0481,-1.92857 -1.5958,-0.45847 -3.2396,-0.67582 -4.8695,-0.9834 -3.4972,-0.6485 -6.9933,-1.3024 -10.4516,-2.14095 -2.1171,-0.50179 -4.2242,-1.05903 -6.3681,-1.43609 -3.0367,-0.44537 -6.0629,-0.97272 -9.0123,-1.84433 -2.9837,-0.83687 -5.9371,-1.76436 -8.8284,-2.88407 -3.494,-1.4149 -6.9337,-3.01625 -9.8325,-5.4808 -1.8726,-1.62519 -3.6938,-3.3241 -5.1806,-5.3237 -0.2481,-0.29984 -0.4996,-0.59726 -0.7446,-0.89969 -0.035,-0.0434 0.055,0.0503 0.064,0.0548 -0.3367,-0.31722 -0.6766,-0.63156 -1.0005,-0.9617 -0.1579,-0.16092 -0.3053,-0.33176 -0.4578,-0.49765 -1.3035,-0.80748 -2.573,-1.66899 -3.7843,-2.61534 -0.1047,-0.0702 -0.2095,-0.14042 -0.3137,-0.21136 -0.028,-0.0189 0.1128,0.0714 0.086,0.0517 -0.9535,-0.69203 -1.9397,-1.33987 -2.8655,-2.06861 -0.3718,-0.29273 -0.7285,-0.60393 -1.0821,-0.91881 -2.642,-0.73504 -5.2529,-1.58062 -7.7153,-2.80913 -3.2617,-1.61615 -6.4068,-3.44626 -9.3958,-5.52886 -1.744,-1.18198 -3.5183,-2.33904 -5.2498,-3.55172 -6.9569,1.9888 -15.3597,-0.67939 -21.8472,-9.11055 -2.4273,1.2349 -5.5988,-0.54852 -9.9906,-7.3763 -0.5379,-0.83617 -1.1313,-1.63915 -1.6139,-2.50837 -0.1342,-0.24179 -0.2635,-0.48499 -0.3901,-0.72916 z m 66.0099,39.21053 c 0.098,0.10054 0.2086,0.2133 0.2692,0.27337 0.03,0.0298 -0.054,-0.0661 -0.084,-0.0956 -0.062,-0.0596 -0.1232,-0.11871 -0.185,-0.17777 z" />
    <ellipse
       style="fill:none;fill-opacity:1;stroke:#000000;stroke-width:15;stroke-dasharray:none"
       id="ellipse49731"
       cx="3529.4402"
       cy="338.82812"
       rx="191.46945"
       ry="191.46944" />
    <path
       style="fill:#000000;fill-opacity:1;stroke:#000000;stroke-width:8.81104;stroke-dasharray:none"
       d="m 2907.2421,469.93396 -1.1657,409.75734 45.4634,-68.2929 48.9604,75.4067 43.132,-71.1383 51.292,65.4472 40.8004,-58.3334 54.7891,51.2196 20.9831,-51.2196 1.1657,-355.69214 z"
       id="path50356" />
    <ellipse
       style="fill:#000000;fill-opacity:1;stroke:#000000;stroke-width:15;stroke-dasharray:none"
       id="ellipse50358"
       cx="3064.0571"
       cy="352.85977"
       rx="191.46945"
       ry="191.46944" />
    <rect
       style="fill:#999999;stroke:#000000;stroke-width:7.63032;stroke-dasharray:none"
       id="rect53160"
       width="705.8006"
       height="750.93292"
       x="1355.2904"
       y="220.33693"
       transform="matrix(1,0,-0.22709749,0.97387203,0,0)" />
  </g>
</svg>
