<?xml version="1.0" encoding="UTF-8" standalone="no"?>
<!-- Created with Inkscape (http://www.inkscape.org/) -->

<svg
   width="1050mm"
   height="1485mm"
   viewBox="0 0 1050 1485"
   version="1.1"
   id="svg5"
   inkscape:version="1.2.2 (732a01da63, 2022-12-09)"
   sodipodi:docname="galactic_gateway_teleporter.svg"
   inkscape:export-filename="galactic_gateway_elements.png"
   inkscape:export-xdpi="98.310097"
   inkscape:export-ydpi="98.310097"
   xml:space="preserve"
   xmlns:inkscape="http://www.inkscape.org/namespaces/inkscape"
   xmlns:sodipodi="http://sodipodi.sourceforge.net/DTD/sodipodi-0.dtd"
   xmlns="http://www.w3.org/2000/svg"
   xmlns:svg="http://www.w3.org/2000/svg"><sodipodi:namedview
     id="namedview7"
     pagecolor="#ffffff"
     bordercolor="#000000"
     borderopacity="0.25"
     inkscape:showpageshadow="2"
     inkscape:pageopacity="0.0"
     inkscape:pagecheckerboard="0"
     inkscape:deskcolor="#d1d1d1"
     inkscape:document-units="mm"
     showgrid="false"
     inkscape:zoom="0.088388348"
     inkscape:cx="5481.4917"
     inkscape:cy="1719.6837"
     inkscape:window-width="1920"
     inkscape:window-height="986"
     inkscape:window-x="-11"
     inkscape:window-y="-11"
     inkscape:window-maximized="1"
     inkscape:current-layer="layer1" /><defs
     id="defs2" /><g
     inkscape:label="Layer 1"
     inkscape:groupmode="layer"
     id="layer1"><g
       id="g52289"><rect
         style="fill:#97b4bd;fill-opacity:1;stroke:#000000;stroke-width:1;stroke-dasharray:none;stroke-opacity:1;paint-order:markers stroke fill"
         id="rect50140"
         width="61.647915"
         height="6.614583"
         x="75.538536"
         y="469.50311" /><path
         style="fill:#424268;fill-opacity:1;stroke:#000000;stroke-width:1;stroke-dasharray:none;stroke-opacity:1;paint-order:markers stroke fill"
         d="m 170.12708,513.82083 -25.66459,-0.79375 -11.90625,-32.01459 2.91042,-23.8125 10.84792,-23.28333 20.6375,-17.72708 27.78125,-0.79375 -17.4625,89.69375 z"
         id="path48966" /><path
         style="fill:#4376a1;fill-opacity:1;stroke:#000000;stroke-width:1;stroke-dasharray:none;stroke-opacity:1;paint-order:markers stroke fill"
         d="m 207.96249,547.95208 -1.05833,0.26458 -9.78958,-1.32292 -14.81667,-20.6375 -25.66458,-34.13125 1.85208,-29.89791 11.90625,-28.83959 29.89792,-32.80833 28.575,-1.05833 -20.90209,151.34166 z"
         id="path46633" /><path
         style="fill:#497197;fill-opacity:1;stroke:#000000;stroke-width:1;stroke-dasharray:none;stroke-opacity:1;paint-order:markers stroke fill"
         d="m 326.42968,320.93957 -10.91406,10.28568 17.59479,0.56224 -2.91042,-10.64948 z"
         id="path39860" /><rect
         style="fill:#1d295e;fill-opacity:1;stroke:#000000;stroke-width:1;stroke-dasharray:none;stroke-opacity:1;paint-order:markers stroke fill"
         id="rect34035"
         width="6.5948753"
         height="9.635067"
         x="420.85242"
         y="333.65341" /><rect
         style="fill:#1d295e;fill-opacity:1;stroke:#000000;stroke-width:1;stroke-dasharray:none;stroke-opacity:1;paint-order:markers stroke fill"
         id="rect31894"
         width="6.5948753"
         height="9.635067"
         x="446.20294"
         y="337.30164" /><rect
         style="fill:#497197;fill-opacity:1;stroke:#000000;stroke-width:1;stroke-dasharray:none;stroke-opacity:1;paint-order:markers stroke fill"
         id="rect29486"
         width="143.49701"
         height="16.65089"
         x="326.9339"
         y="320.88461"
         ry="0" /><path
         style="fill:#424268;fill-opacity:1;stroke:#000000;stroke-width:1;stroke-dasharray:none;stroke-opacity:1;paint-order:markers stroke fill"
         d="m 280.98749,641.74687 -0.13229,1.32291 0.13229,67.99792 15.08125,0.92604 10.58334,-11.90625 1.19062,-19.05 6.87917,0.66146 -0.52917,6.48229 9.39271,-0.39687 0.92604,-6.61459 5.95312,0.39688 21.29896,-33.07292 z"
         id="path37483" /><rect
         style="fill:#497197;fill-opacity:1;stroke:none;stroke-width:1.19645;stroke-dasharray:none;stroke-opacity:1;paint-order:markers stroke fill"
         id="rect40414"
         width="5.0599051"
         height="7.5056357"
         x="326.27057"
         y="320.9093" /><ellipse
         style="fill:#373773;fill-opacity:1;stroke:#000000;stroke-width:5;stroke-dasharray:none;stroke-opacity:1;paint-order:markers stroke fill"
         id="ellipse34692"
         cx="322.9136"
         cy="490.09747"
         rx="122.70627"
         ry="160.05605" /><path
         style="fill:#4776a0;fill-opacity:1;stroke:#000000;stroke-width:1;stroke-dasharray:none;stroke-opacity:1;paint-order:markers stroke fill"
         d="m 380.44127,649.97356 -2.80633,4.30305 -4.49014,14.21873 -13.2833,-0.18709 1.12255,-21.70228 z"
         id="path34110" /><path
         style="fill:#373773;fill-opacity:1;stroke:#000000;stroke-width:2;stroke-dasharray:none;stroke-opacity:1;paint-order:markers stroke fill"
         d="m 463.35155,581.02499 29.63334,0.8599 -0.0661,9.65729 -10.31875,10.71562 -30.55938,-0.7276 z"
         id="path27705" /><path
         style="fill:#373773;fill-opacity:1;stroke:#000000;stroke-width:2;stroke-dasharray:none;stroke-opacity:1;paint-order:markers stroke fill"
         d="m 474.45331,551.98589 28.34394,0.14031 0.37417,10.10277 -3.69498,6.96907 -31.15027,-0.18709 z"
         id="path27703" /><path
         style="fill:#373773;fill-opacity:1;stroke:#000000;stroke-width:2;stroke-dasharray:none;stroke-opacity:1;paint-order:markers stroke fill"
         d="m 462.47964,396.84261 h 1.30961 35.54685 l 4.11597,7.29644 v 8.41899 l -35.07912,-1.02899 z"
         id="path27701" /><path
         style="fill:#373773;fill-opacity:1;stroke:#000000;stroke-width:2;stroke-dasharray:none;stroke-opacity:1;paint-order:markers stroke fill"
         d="m 442.83534,363.44727 39.75634,-0.0935 11.13176,11.50596 -0.28061,8.32546 -36.6694,1.02896 -15.06064,-20.2991 z"
         id="path26706" /><ellipse
         style="fill:#ebebf0;fill-opacity:1;stroke:#000000;stroke-width:2;stroke-dasharray:none;stroke-opacity:1;paint-order:markers stroke fill"
         id="ellipse25408"
         cx="377.54349"
         cy="490.09747"
         rx="106.24245"
         ry="160.05605" /><ellipse
         style="fill:#1d142f;fill-opacity:1;stroke:#ffff00;stroke-width:0;stroke-dasharray:none;stroke-opacity:1;paint-order:markers stroke fill"
         id="ellipse24854"
         cx="377.54349"
         cy="490.09747"
         rx="94.642944"
         ry="148.08238" /><ellipse
         style="fill:#b9f8fd;fill-opacity:1;stroke:#ffff00;stroke-width:0;stroke-dasharray:none;stroke-opacity:1;paint-order:markers stroke fill"
         id="ellipse23278"
         cx="364.4473"
         cy="492.16644"
         rx="82.669273"
         ry="137.1306" /><ellipse
         style="fill:#6ae0fe;fill-opacity:1;stroke:#ffff00;stroke-width:0;stroke-dasharray:none;stroke-opacity:1;paint-order:markers stroke fill"
         id="ellipse19181"
         cx="340.89938"
         cy="492.69565"
         rx="58.59219"
         ry="109.08477" /><ellipse
         style="fill:#5bbffd;fill-opacity:1;stroke:#ffff00;stroke-width:0;stroke-dasharray:none;stroke-opacity:1;paint-order:markers stroke fill"
         id="path19179"
         cx="323.31305"
         cy="489.70224"
         rx="25.664583"
         ry="51.461456" /><path
         style="fill:#97b4bd;fill-opacity:1;stroke:#000000;stroke-width:1;stroke-dasharray:none;stroke-opacity:1;paint-order:markers stroke fill"
         d="m 467.15685,320.69751 -14.21874,16.46381 16.46381,0.0935 14.31229,-16.27669 z"
         id="path27707" /></g><g
       id="g52333"
       transform="matrix(-1,0,0,1,1079.0239,-3.1749999)"><rect
         style="fill:#97b4bd;fill-opacity:1;stroke:#000000;stroke-width:1;stroke-dasharray:none;stroke-opacity:1;paint-order:markers stroke fill"
         id="rect52291"
         width="61.647915"
         height="6.614583"
         x="75.538536"
         y="469.50311" /><path
         style="fill:#424268;fill-opacity:1;stroke:#000000;stroke-width:1;stroke-dasharray:none;stroke-opacity:1;paint-order:markers stroke fill"
         d="m 170.12708,513.82083 -25.66459,-0.79375 -11.90625,-32.01459 2.91042,-23.8125 10.84792,-23.28333 20.6375,-17.72708 27.78125,-0.79375 -17.4625,89.69375 z"
         id="path52293" /><path
         style="fill:#4376a1;fill-opacity:1;stroke:#000000;stroke-width:1;stroke-dasharray:none;stroke-opacity:1;paint-order:markers stroke fill"
         d="m 207.96249,547.95208 -1.05833,0.26458 -9.78958,-1.32292 -14.81667,-20.6375 -25.66458,-34.13125 1.85208,-29.89791 11.90625,-28.83959 29.89792,-32.80833 28.575,-1.05833 -20.90209,151.34166 z"
         id="path52295" /><path
         style="fill:#497197;fill-opacity:1;stroke:#000000;stroke-width:1;stroke-dasharray:none;stroke-opacity:1;paint-order:markers stroke fill"
         d="m 326.42968,320.93957 -10.91406,10.28568 17.59479,0.56224 -2.91042,-10.64948 z"
         id="path52297" /><rect
         style="fill:#1d295e;fill-opacity:1;stroke:#000000;stroke-width:1;stroke-dasharray:none;stroke-opacity:1;paint-order:markers stroke fill"
         id="rect52299"
         width="6.5948753"
         height="9.635067"
         x="420.85242"
         y="333.65341" /><rect
         style="fill:#1d295e;fill-opacity:1;stroke:#000000;stroke-width:1;stroke-dasharray:none;stroke-opacity:1;paint-order:markers stroke fill"
         id="rect52301"
         width="6.5948753"
         height="9.635067"
         x="446.20294"
         y="337.30164" /><rect
         style="fill:#497197;fill-opacity:1;stroke:#000000;stroke-width:1;stroke-dasharray:none;stroke-opacity:1;paint-order:markers stroke fill"
         id="rect52303"
         width="143.49701"
         height="16.65089"
         x="326.9339"
         y="320.88461"
         ry="0" /><path
         style="fill:#424268;fill-opacity:1;stroke:#000000;stroke-width:1;stroke-dasharray:none;stroke-opacity:1;paint-order:markers stroke fill"
         d="m 280.98749,641.74687 -0.13229,1.32291 0.13229,67.99792 15.08125,0.92604 10.58334,-11.90625 1.19062,-19.05 6.87917,0.66146 -0.52917,6.48229 9.39271,-0.39687 0.92604,-6.61459 5.95312,0.39688 21.29896,-33.07292 z"
         id="path52305" /><rect
         style="fill:#497197;fill-opacity:1;stroke:none;stroke-width:1.19645;stroke-dasharray:none;stroke-opacity:1;paint-order:markers stroke fill"
         id="rect52307"
         width="5.0599051"
         height="7.5056357"
         x="326.27057"
         y="320.9093" /><ellipse
         style="fill:#373773;fill-opacity:1;stroke:#000000;stroke-width:5;stroke-dasharray:none;stroke-opacity:1;paint-order:markers stroke fill"
         id="ellipse52309"
         cx="322.9136"
         cy="490.09747"
         rx="122.70627"
         ry="160.05605" /><path
         style="fill:#4776a0;fill-opacity:1;stroke:#000000;stroke-width:1;stroke-dasharray:none;stroke-opacity:1;paint-order:markers stroke fill"
         d="m 380.44127,649.97356 -2.80633,4.30305 -4.49014,14.21873 -13.2833,-0.18709 1.12255,-21.70228 z"
         id="path52311" /><path
         style="fill:#373773;fill-opacity:1;stroke:#000000;stroke-width:2;stroke-dasharray:none;stroke-opacity:1;paint-order:markers stroke fill"
         d="m 463.35155,581.02499 29.63334,0.8599 -0.0661,9.65729 -10.31875,10.71562 -30.55938,-0.7276 z"
         id="path52313" /><path
         style="fill:#373773;fill-opacity:1;stroke:#000000;stroke-width:2;stroke-dasharray:none;stroke-opacity:1;paint-order:markers stroke fill"
         d="m 474.45331,551.98589 28.34394,0.14031 0.37417,10.10277 -3.69498,6.96907 -31.15027,-0.18709 z"
         id="path52315" /><path
         style="fill:#373773;fill-opacity:1;stroke:#000000;stroke-width:2;stroke-dasharray:none;stroke-opacity:1;paint-order:markers stroke fill"
         d="m 462.47964,396.84261 h 1.30961 35.54685 l 4.11597,7.29644 v 8.41899 l -35.07912,-1.02899 z"
         id="path52317" /><path
         style="fill:#373773;fill-opacity:1;stroke:#000000;stroke-width:2;stroke-dasharray:none;stroke-opacity:1;paint-order:markers stroke fill"
         d="m 442.83534,363.44727 39.75634,-0.0935 11.13176,11.50596 -0.28061,8.32546 -36.6694,1.02896 -15.06064,-20.2991 z"
         id="path52319" /><ellipse
         style="fill:#ebebf0;fill-opacity:1;stroke:#000000;stroke-width:2;stroke-dasharray:none;stroke-opacity:1;paint-order:markers stroke fill"
         id="ellipse52321"
         cx="377.54349"
         cy="490.09747"
         rx="106.24245"
         ry="160.05605" /><ellipse
         style="fill:#1d142f;fill-opacity:1;stroke:#ffff00;stroke-width:0;stroke-dasharray:none;stroke-opacity:1;paint-order:markers stroke fill"
         id="ellipse52323"
         cx="377.54349"
         cy="490.09747"
         rx="94.642944"
         ry="148.08238" /><ellipse
         style="fill:#b9f8fd;fill-opacity:1;stroke:#ffff00;stroke-width:0;stroke-dasharray:none;stroke-opacity:1;paint-order:markers stroke fill"
         id="ellipse52325"
         cx="364.4473"
         cy="492.16644"
         rx="82.669273"
         ry="137.1306" /><ellipse
         style="fill:#6ae0fe;fill-opacity:1;stroke:#ffff00;stroke-width:0;stroke-dasharray:none;stroke-opacity:1;paint-order:markers stroke fill"
         id="ellipse52327"
         cx="340.89938"
         cy="492.69565"
         rx="58.59219"
         ry="109.08477" /><ellipse
         style="fill:#5bbffd;fill-opacity:1;stroke:#ffff00;stroke-width:0;stroke-dasharray:none;stroke-opacity:1;paint-order:markers stroke fill"
         id="ellipse52329"
         cx="323.31305"
         cy="489.70224"
         rx="25.664583"
         ry="51.461456" /><path
         style="fill:#97b4bd;fill-opacity:1;stroke:#000000;stroke-width:1;stroke-dasharray:none;stroke-opacity:1;paint-order:markers stroke fill"
         d="m 467.15685,320.69751 -14.21874,16.46381 16.46381,0.0935 14.31229,-16.27669 z"
         id="path52331" /></g><rect
       style="fill:#97b4bd;fill-opacity:1;stroke:#000000;stroke-width:1;stroke-dasharray:none;stroke-opacity:1;paint-order:markers stroke fill"
       id="rect53109"
       width="61.647915"
       height="6.614583"
       x="-972.05444"
       y="972.21588"
       transform="scale(-1,1)" /><path
       style="fill:#424268;fill-opacity:1;stroke:#000000;stroke-width:1;stroke-dasharray:none;stroke-opacity:1;paint-order:markers stroke fill"
       d="m 877.46592,1016.5336 25.66459,-0.7938 11.90625,-32.01455 -2.91042,-23.8125 -10.84792,-23.28333 -20.6375,-17.72708 -27.78125,-0.79375 17.4625,89.69371 z"
       id="path53111" /><path
       style="fill:#4376a1;fill-opacity:1;stroke:#000000;stroke-width:1;stroke-dasharray:none;stroke-opacity:1;paint-order:markers stroke fill"
       d="m 839.63051,1050.6648 1.05833,0.2646 9.78958,-1.3229 14.81667,-20.6375 25.66458,-34.13125 -1.85208,-29.89791 -11.90625,-28.83959 -29.89792,-32.80833 -28.575,-1.05833 20.90209,151.34161 z"
       id="path53113" /><path
       style="fill:#497197;fill-opacity:1;stroke:#000000;stroke-width:1;stroke-dasharray:none;stroke-opacity:1;paint-order:markers stroke fill"
       d="m 721.16332,823.65233 10.91406,10.28568 -17.59479,0.56224 2.91042,-10.64948 z"
       id="path53115" /><rect
       style="fill:#1d295e;fill-opacity:1;stroke:#000000;stroke-width:1;stroke-dasharray:none;stroke-opacity:1;paint-order:markers stroke fill"
       id="rect53117"
       width="6.5948753"
       height="9.635067"
       x="-626.7406"
       y="836.36615"
       transform="scale(-1,1)" /><rect
       style="fill:#1d295e;fill-opacity:1;stroke:#000000;stroke-width:1;stroke-dasharray:none;stroke-opacity:1;paint-order:markers stroke fill"
       id="rect53119"
       width="6.5948753"
       height="9.635067"
       x="-601.39008"
       y="840.0144"
       transform="scale(-1,1)" /><rect
       style="fill:#497197;fill-opacity:1;stroke:#000000;stroke-width:1;stroke-dasharray:none;stroke-opacity:1;paint-order:markers stroke fill"
       id="rect53121"
       width="143.49701"
       height="16.65089"
       x="-720.65912"
       y="823.59735"
       ry="0"
       transform="scale(-1,1)" /><path
       style="fill:#424268;fill-opacity:1;stroke:#000000;stroke-width:1;stroke-dasharray:none;stroke-opacity:1;paint-order:markers stroke fill"
       d="m 766.60551,1144.4596 0.13229,1.3229 -0.13229,67.998 -15.08125,0.926 -10.58334,-11.9063 -1.19062,-19.0499 -6.87917,0.6614 0.52917,6.4823 -9.39271,-0.3969 -0.92604,-6.6146 -5.95312,0.3969 -21.29896,-33.0729 z"
       id="path53123" /><rect
       style="fill:#497197;fill-opacity:1;stroke:none;stroke-width:1.19645;stroke-dasharray:none;stroke-opacity:1;paint-order:markers stroke fill"
       id="rect53125"
       width="5.0599051"
       height="7.5056357"
       x="-721.32245"
       y="823.62207"
       transform="scale(-1,1)" /><ellipse
       style="fill:#373773;fill-opacity:1;stroke:#000000;stroke-width:5;stroke-dasharray:none;stroke-opacity:1;paint-order:markers stroke fill"
       id="ellipse53127"
       cx="-724.67938"
       cy="992.81024"
       rx="122.70627"
       ry="160.05605"
       transform="scale(-1,1)" /><path
       style="fill:#4776a0;fill-opacity:1;stroke:#000000;stroke-width:1;stroke-dasharray:none;stroke-opacity:1;paint-order:markers stroke fill"
       d="m 667.15173,1152.6863 2.80633,4.3031 4.49014,14.2187 13.2833,-0.1871 -1.12255,-21.7023 z"
       id="path53129" /><path
       style="fill:#373773;fill-opacity:1;stroke:#000000;stroke-width:2;stroke-dasharray:none;stroke-opacity:1;paint-order:markers stroke fill"
       d="m 584.24145,1083.7378 -29.63334,0.8599 0.0661,9.6572 10.31875,10.7157 30.55938,-0.7276 z"
       id="path53131" /><path
       style="fill:#373773;fill-opacity:1;stroke:#000000;stroke-width:2;stroke-dasharray:none;stroke-opacity:1;paint-order:markers stroke fill"
       d="m 573.13969,1054.6987 -28.34394,0.1403 -0.37417,10.1027 3.69498,6.9691 31.15027,-0.1871 z"
       id="path53133" /><path
       style="fill:#373773;fill-opacity:1;stroke:#000000;stroke-width:2;stroke-dasharray:none;stroke-opacity:1;paint-order:markers stroke fill"
       d="m 585.11336,899.55537 h -1.30961 -35.54685 l -4.11597,7.29644 v 8.41899 l 35.07912,-1.02899 z"
       id="path53135" /><path
       style="fill:#373773;fill-opacity:1;stroke:#000000;stroke-width:2;stroke-dasharray:none;stroke-opacity:1;paint-order:markers stroke fill"
       d="m 604.75766,866.16003 -39.75634,-0.0935 -11.13176,11.50596 0.28061,8.32546 36.6694,1.02896 15.06064,-20.2991 z"
       id="path53137" /><ellipse
       style="fill:#ebebf0;fill-opacity:1;stroke:#000000;stroke-width:2;stroke-dasharray:none;stroke-opacity:1;paint-order:markers stroke fill"
       id="ellipse53139"
       cx="-670.0495"
       cy="992.81024"
       rx="106.24245"
       ry="160.05605"
       transform="scale(-1,1)" /><ellipse
       style="fill:#1d142f;fill-opacity:1;stroke:#ffff00;stroke-width:0;stroke-dasharray:none;stroke-opacity:1;paint-order:markers stroke fill"
       id="ellipse53141"
       cx="-670.0495"
       cy="992.81024"
       rx="94.642944"
       ry="148.08238"
       transform="scale(-1,1)" /><ellipse
       style="fill:#cccccc;fill-opacity:1;stroke:#ffff00;stroke-width:0;stroke-dasharray:none;stroke-opacity:1;paint-order:markers stroke fill"
       id="ellipse53143"
       cx="-683.14569"
       cy="994.87921"
       rx="82.669273"
       ry="137.1306"
       transform="scale(-1,1)" /><path
       style="fill:#97b4bd;fill-opacity:1;stroke:#000000;stroke-width:1;stroke-dasharray:none;stroke-opacity:1;paint-order:markers stroke fill"
       d="m 580.43615,823.41027 14.21874,16.46381 -16.46381,0.0935 -14.31229,-16.27669 z"
       id="path53149" /></g></svg>
