<?xml version="1.0" encoding="UTF-8" standalone="no"?>
<!-- Created with Inkscape (http://www.inkscape.org/) -->

<svg
   width="3840mm"
   height="2160mm"
   viewBox="0 0 3840 2160"
   version="1.1"
   id="svg5"
   inkscape:version="1.2.2 (732a01da63, 2022-12-09)"
   sodipodi:docname="main_menu.svg"
   inkscape:export-filename="main_menu_test.png"
   inkscape:export-xdpi="96"
   inkscape:export-ydpi="96"
   xmlns:inkscape="http://www.inkscape.org/namespaces/inkscape"
   xmlns:sodipodi="http://sodipodi.sourceforge.net/DTD/sodipodi-0.dtd"
   xmlns="http://www.w3.org/2000/svg"
   xmlns:svg="http://www.w3.org/2000/svg">
  <sodipodi:namedview
     id="namedview7"
     pagecolor="#ffffff"
     bordercolor="#000000"
     borderopacity="0.25"
     inkscape:showpageshadow="2"
     inkscape:pageopacity="0.0"
     inkscape:pagecheckerboard="0"
     inkscape:deskcolor="#d1d1d1"
     inkscape:document-units="mm"
     showgrid="false"
     inkscape:zoom="0.04"
     inkscape:cx="2362.5"
     inkscape:cy="4975"
     inkscape:window-width="1920"
     inkscape:window-height="986"
     inkscape:window-x="-11"
     inkscape:window-y="-11"
     inkscape:window-maximized="1"
     inkscape:current-layer="layer1" />
  <defs
     id="defs2">
    <rect
       x="-5771.9298"
       y="2894.7368"
       width="122.80702"
       height="17.54386"
       id="rect19742" />
    <rect
       x="-2087.7193"
       y="6000"
       width="245.61404"
       height="17.54386"
       id="rect15206" />
  </defs>
  <g
     inkscape:label="Layer 1"
     inkscape:groupmode="layer"
     id="layer1">
    <text
       xml:space="preserve"
       style="font-style:normal;font-variant:normal;font-weight:normal;font-stretch:normal;font-size:388.053px;font-family:'MV Boli';-inkscape-font-specification:'MV Boli';fill:#000000;stroke:#000000;stroke-width:22;stroke-dasharray:none"
       x="2.8571632"
       y="390.0871"
       id="text4468"><tspan
         sodipodi:role="line"
         id="tspan4466"
         style="font-style:normal;font-variant:normal;font-weight:normal;font-stretch:normal;font-family:'MV Boli';-inkscape-font-specification:'MV Boli';fill:#000000;stroke:#000000;stroke-width:22;stroke-dasharray:none"
         x="2.8571632"
         y="390.0871">TUMBLE PEOPLE </tspan></text>
    <path
       style="fill:#ff2a2a;stroke:none;stroke-width:20;stroke-dasharray:none"
       id="path4783"
       d="m 3429.9596,76.765644 c 10.9278,-3.771392 21.0979,-9.318813 32.1792,-12.656206 15.8977,-5.028732 32.5223,-6.073164 49.041,-7.264432 15.1252,-0.507447 30.171,-2.087303 45.2617,-3.122914 14.9527,-1.714206 29.2529,2.107959 43.4489,6.287974 21.5474,6.362472 40.8873,18.183465 58.1604,32.326471 2.1828,2.295342 4.5926,4.39443 6.5487,6.886024 1.8928,2.411609 3.347,5.138579 4.9445,7.755389 6.0717,9.94629 11.0594,19.1286 13.9481,30.42959 3.9925,18.53491 2.1278,37.51531 -0.3477,56.11351 -2.4381,13.04764 -5.9902,26.105 -12.7267,37.65739 -2.6596,4.56105 -5.0281,7.28994 -8.2529,11.38446 -12.4653,16.65564 -29.2031,28.945 -46.4082,40.26464 -8.5817,5.12485 -17.2312,10.12031 -26,14.91578 -2.8774,1.57356 -8.8543,4.71689 -11.5666,6.72163 -2.1963,1.62343 -4.1701,3.5282 -6.2552,5.29231 -8.4101,9.29637 -14.3664,20.02483 -7.7912,32.88389 3.5433,6.92963 10.2333,9.11511 16.4933,12.09943 25.6394,9.56119 52.1954,16.46398 78.7638,22.90675 23.2783,4.88423 46.962,7.62471 70.5424,10.64527 6.4418,0.76081 8.9834,1.09762 15.2157,1.70495 1.9452,0.18955 3.9158,0.1761 5.8401,0.51784 0.2628,0.0466 0.7813,0.64588 0.517,0.61108 -3.2036,-0.4214 -3.406,-0.84862 -5.698,-2.3563 -0.4461,9.35641 -2.2421,18.48282 -4.208,27.62319 -1.2454,6.96111 -2.8903,13.83826 -4.2442,20.77778 -0.8472,4.34353 -1.3504,8.61923 -3.1268,12.68651 -1.075,-1.07373 1.8206,-3.16307 1.7383,-3.71872 -0.064,-0.43061 -0.871,-0.0196 -1.306,-2.4e-4 -1.2766,0.0563 -2.5503,0.17203 -3.8269,0.2268 -2.2595,0.0969 -4.5207,0.15206 -6.781,0.2281 -18.7775,0.72318 -37.5161,-0.39193 -56.1335,-2.78765 -19.295,-2.02089 -38.3019,-5.92857 -57.4712,-8.77792 -20.7007,-2.63785 -41.1149,-6.88393 -61.522,-11.15203 -20.4774,-4.93541 -40.2187,-12.4841 -60.3403,-18.68014 -4.2521,-1.40891 -12.3859,-3.10859 -13.8123,-8.71601 -0.4543,-1.78657 -0.2913,-3.67554 -0.4125,-5.51503 -0.7218,-12.5268 -2.1646,-25.3215 -0.8168,-37.85772 0.5027,-3.1001 2.8813,-4.52998 5.1568,-6.37072 6.4246,-4.26963 13.0058,-8.32093 19.3836,-12.66346 5.0292,-3.46252 11.3324,-4.40454 17.1146,-6.15151 9.7605,-2.22088 18.1462,-7.34988 26.2797,-12.9413 10.1859,-7.12022 19.1865,-15.71603 27.6495,-24.77097 7.4787,-7.46078 13.5543,-16.01539 19.2289,-24.87669 7.5091,-10.13501 12.1909,-21.51108 15.5368,-33.5821 3.0075,-13.12382 4.1087,-26.63998 3.6439,-40.0772 -1.2116,-13.20659 -7.6812,-24.07924 -17.3387,-32.7991 -9.5237,-7.61916 -21.2643,-10.64831 -32.9129,-13.30746 -16.456,-4.84249 -33.2435,-7.80658 -50.2756,-9.63909 -15.8792,-1.45579 -31.8349,-1.73137 -47.7705,-1.84735 -10.2669,-0.71401 -20.761,0.98222 -30.9866,-0.24708 2.2682,-2.48906 -0.407,0.28802 8.2372,3.89741 1.1293,0.47158 0.065,-2.45707 -0.095,-3.67047 -0.4847,-3.67817 -0.449,-4.12823 -0.6977,-7.92921 -0.3826,-9.55367 -0.2204,-19.11859 -0.1479,-28.67673 0.078,-8.877964 0.1059,-17.756211 0.1228,-26.634464 0.01,-5.176879 0,-2.631646 0.01,-7.635705 0.021,-24.945147 -35.257,-24.974417 -35.2777,-0.02927 v 0 c -0.01,4.980408 0,2.447798 -0.01,7.597833 -0.016,8.811543 -0.044,17.623081 -0.122,26.434338 -0.079,10.484188 -0.2593,20.977408 0.2366,31.454478 0.55,7.2911 1.6822,22.35938 6.1835,27.97441 3.4407,4.29188 7.7642,7.90239 12.3357,10.96149 1.7434,1.16646 4.0902,0.93211 6.1352,1.39816 11.2501,0.83879 22.5483,0.14078 33.8219,0.38167 14.7752,0.10518 29.5691,0.34057 44.295,1.65056 15.6895,1.64485 31.0877,4.5107 46.2391,8.97134 5.9618,1.32574 12.0642,2.53509 17.4805,5.4725 2.5876,2.02848 4.7381,4.45953 5.2948,7.80597 0.6348,9.78609 -0.6453,19.70911 -2.4635,29.31079 -2.2434,8.70899 -5.7322,16.56618 -11.2112,23.7837 -4.5011,7.08072 -9.2628,13.9073 -15.2971,19.80227 -6.6929,7.20231 -13.7856,14.07319 -21.8393,19.76134 -5.202,3.58121 -10.1685,7.07464 -16.5507,8.25473 -9.243,2.83559 -18.9402,4.90821 -26.8404,10.83601 -7.2827,5.08818 -15.0799,9.43594 -22.1811,14.80064 -9.3091,8.03891 -16.0655,17.61683 -17.5077,30.1785 -1.2417,15.71689 -0.3752,31.59641 1.2409,47.25416 2.0544,9.34194 1.7803,12.37644 6.7937,20.25687 7.194,11.30766 19.2529,17.78894 31.7722,21.41736 21.1606,6.50489 41.9031,14.50049 63.4934,19.49302 21.0888,4.40973 42.1896,8.777 63.5788,11.51895 19.4069,2.85816 38.6416,6.858 58.1769,8.87511 20.5364,2.59368 41.2009,3.86244 61.9093,3.04596 17.9951,-0.72475 32.7438,-1.88511 41.9282,-19.70479 4.3413,-12.41997 5.9505,-25.53523 8.7951,-38.35231 3.4861,-16.30135 7.0551,-33.01854 1.9317,-49.39136 -1.928,-3.25535 -3.198,-7.00479 -5.7846,-9.76606 -10.1187,-10.80164 -24.4935,-9.56519 -37.8267,-11.33168 -22.2948,-2.85417 -44.6849,-5.44507 -66.716,-9.93897 -24.5507,-5.94341 -49.0585,-12.33648 -72.8416,-20.90168 -0.834,-0.27459 -2.6202,-1.69381 -2.5019,-0.82376 0.2468,1.81965 2.5775,2.82689 3.0157,4.61016 0.7816,3.17987 0.6723,6.53796 0.5278,9.80924 -0.069,1.55355 -2.355,2.73664 -0.2759,-0.16494 2.7561,-3.35201 7.353,-5.16975 11.0529,-7.19667 9.6319,-5.27664 19.1463,-10.75113 28.5388,-16.44629 20.3652,-13.54182 40.0582,-28.33777 54.8484,-48.10484 5.1429,-6.73743 7.6192,-9.52491 11.8911,-17.17239 8.4434,-15.11496 13.1903,-31.93308 16.1632,-48.89338 2.9816,-23.32547 4.9217,-47.0448 -0.6604,-70.17103 -1.0732,-3.64858 -1.9381,-7.36496 -3.2192,-10.94574 -4.9707,-13.89109 -15.0778,-31.160159 -24.3959,-42.372515 -2.9041,-3.494477 -6.4035,-6.447997 -9.6049,-9.671995 -21.0635,-16.896146 -44.3326,-31.177465 -70.4612,-38.767448 -18.1991,-5.283078 -36.6549,-9.66085 -55.7639,-7.6209 -15.1339,1.042739 -30.2215,2.623444 -45.3903,3.132019 -19.1982,1.396895 -38.4847,2.884683 -56.9428,8.755716 -11.6914,3.696264 -22.6494,9.031137 -34.1154,13.318866 -23.3569,8.758827 -10.9699,41.790439 12.387,33.031611 z" />
    <path
       style="fill:#ff2a2a;stroke:none;stroke-width:416.963;stroke-dasharray:none;fill-opacity:1"
       d="m 13462.372,198.24444 c -118.616,9.4786 -239.064,9.25623 -355.733,34.52929 -42.195,12.64125 -87.01,26.30078 -124.058,48.14708 0,74.59978 0,149.19956 0,223.79934 32.954,11.71146 74.696,1.85482 111.194,5.43989 143.826,3.29875 290.795,17.00754 426.138,68.28364 68.108,27.75865 114.388,96.1127 108.867,169.53206 7.336,127.31315 -50.533,249.94713 -138.821,339.64366 -63.454,70.1279 -140.131,132.2355 -233.212,157.2773 -47.773,21.202 -102.251,43.8475 -130.522,90.0347 -8.068,57.613 -6.046,118.7507 9.718,174.8334 36.06,27.6817 85.194,34.6041 127.158,51.1588 195.623,65.6064 401.238,90.9563 604.4,121.5092 82.947,8.1956 166.404,7.0464 249.645,7.7247 19.417,-44.6204 23.241,-98.5265 34.12,-147.307 -0.414,-22.2407 16.356,-50.4402 5.236,-70.0929 -154.609,-24.0087 -311.246,-38.3251 -461.055,-85.4344 -66.94,-22.0298 -138.971,-34.9163 -200.001,-71.321 -51.259,-42.3346 -25.227,-126.1749 26.6,-156.6477 116.209,-71.4268 242.023,-136.2473 327.894,-245.87435 81.994,-107.86829 89.868,-252.37014 77.882,-382.36476 -13.406,-68.46773 -50.811,-132.19338 -98.201,-182.69818 -98.527,-85.37137 -225.061,-141.98701 -355.614,-150.40979 -3.879,0.079 -7.757,0.15801 -11.635,0.23702 z"
       id="path4860"
       transform="scale(0.26458333)" />
    <path
       style="fill:#ff2a2a;fill-opacity:1;stroke:none;stroke-width:20;stroke-dasharray:none"
       id="path5599"
       d="m 3779.0575,395.08355 c 3.4057,-0.13848 6.8209,-0.35414 10.2018,-0.80679 0.6069,-0.0813 1.515,0.25112 1.8153,-0.28265 4.667,-8.29787 8.4833,-17.04631 12.7251,-25.56947 -5.915,-3.17661 -11.5181,-7.01913 -17.7451,-9.52979 -0.6265,-0.25254 -8.3103,1.26979 -8.9077,1.38253 -4.3878,0.82767 -8.777,1.64769 -13.1651,2.47444 -1.065,0.20984 -2.1326,0.40613 -3.1949,0.62952 -0.8466,0.17809 -1.687,0.38539 -2.5312,0.57481 -3.0404,0.68206 2.935,-0.78264 3.167,-0.22083 12.6249,30.57896 18.637,26.54404 8.4021,32.83109 -0.1262,0.0691 -0.2521,0.13817 -0.3783,0.20725 22.6226,-10.51097 7.7578,-42.50412 -14.8648,-31.99315 v 0 c -0.4721,0.22981 -0.9441,0.45963 -1.4161,0.68948 -11.1493,6.39696 -5.6473,2.55579 7.1813,33.5267 0.3387,0.81791 5.8603,-0.70821 7.2673,-1.00452 0.9642,-0.20304 1.9333,-0.38179 2.8999,-0.57269 4.4047,-0.83008 8.8135,-1.63713 13.2151,-2.48385 9.2768,-1.78459 4.5318,-0.60934 -11.326,-10.42408 14.5333,-28.6139 21.5432,-25.79651 6.6543,-24.70579 -24.9452,0 -24.9452,35.27779 0,35.27779 z" />
    <path
       style="fill:#ff2a2a;fill-opacity:1;stroke:none;stroke-width:20;stroke-dasharray:none"
       id="path5666"
       d="m 3554.8136,195.06671 c -0.1,-0.0773 -0.335,-0.35349 -0.3001,-0.23197 0.051,0.17868 0.2575,0.27158 0.3567,0.42878 0.024,0.0361 -0.079,-0.0336 -0.1178,-0.0504 0.2136,0.29718 0.4342,0.58937 0.6406,0.89153 0.093,0.13572 0.3805,0.52905 0.2564,0.42128 -0.1683,-0.14597 -0.2622,-0.36 -0.3932,-0.53999 -0.041,-0.0263 -0.1347,-0.12673 -0.1238,-0.079 0.2662,1.16695 0.7908,2.25954 1.2007,3.38419 0.7511,2.0624 1.5232,4.11616 2.2952,6.1708 4.4395,12.34596 2.3548,4.3095 32.2956,-13.12079 0.6884,-0.4008 -0.7668,-1.39723 -1.1806,-2.07803 -0.7861,-1.29361 -1.6121,-2.56257 -2.418,-3.84385 -4.0621,-6.33538 -9.2437,-11.82459 -14.5545,-17.11423 -1.3123,-1.30717 -2.6246,-2.61496 -3.9764,-3.88146 -1.434,-1.34372 -2.9194,-2.63179 -4.3788,-3.94768 -5.6526,-4.74776 -11.4771,-9.33544 -17.7964,-13.17407 -4.1664,-2.53081 -5.8341,-3.29146 -10.1418,-5.50384 -8.3566,-4.12887 -16.8111,-8.13732 -25.7572,-10.83824 -2.5209,-0.76108 -5.0834,-1.37686 -7.625,-2.06529 -13.122,-3.16047 -26.4152,-5.5037 -39.7309,-7.66765 -5.8647,-0.6925 -11.5046,-2.40065 -17.1341,-4.09871 -3.2833,-1.06211 -6.622,-1.92426 -10.0161,-2.54361 -1.7672,-0.26494 -0.8993,-0.14988 -2.6027,-0.34867 -24.7989,-2.69657 -28.6126,32.37449 -3.8135,35.07105 v 0 c 0.1464,-0.003 0.052,-0.004 0.2834,0.0182 2.036,0.3131 3.992,0.9984 5.9613,1.57779 7.1134,2.14553 14.2717,4.19057 21.6628,5.14488 12.1626,1.97653 24.3059,4.10081 36.304,6.9344 4.3593,1.1362 6.1082,1.47562 10.2055,2.95298 5.587,2.01444 10.8887,4.73845 16.238,7.29119 2.9739,1.50125 4.3217,2.11803 7.1652,3.7989 4.7228,2.79192 9.0075,6.24849 13.244,9.71402 1.1014,0.98074 2.2259,1.93589 3.3038,2.94222 1.3603,1.26985 5.3637,5.23795 6.7242,6.64957 1.3467,1.39716 3.5713,3.80031 4.8085,5.39258 0.6567,0.84547 1.2369,1.74783 1.8555,2.62174 0.5067,0.78398 1.0356,1.55415 1.5206,2.35193 0.4659,0.76665 0.4805,2.62634 1.3306,2.33947 35.1906,-11.87619 36.2132,-3.28187 31.2459,-16.98533 -0.9562,-2.54408 -1.919,-5.08577 -2.8368,-7.644 -0.2786,-0.77657 -0.5213,-1.56641 -0.8216,-2.33479 -0.4098,-1.04784 -0.8723,-2.07434 -1.3083,-3.11151 -0.5125,-0.92839 -0.9949,-1.87415 -1.5378,-2.78519 -0.3897,-0.65411 -1.5004,-2.23761 -2.0227,-2.92881 -1.4902,-1.97214 -3.0282,-3.88865 -4.8731,-5.5474 -18.6441,-16.57266 -42.0815,9.79428 -23.4373,26.36694 z" />
    <path
       style="fill:#000000;stroke:none;stroke-width:20;stroke-dasharray:none"
       id="path5167"
       d="m 3418.8542,146.7115 c -2.1349,-11.97945 -3.9901,-24.00805 -6.314,-35.95286 -1.5242,-7.7502 -3.1403,-15.492237 -4.2206,-23.31998 -0.8316,-5.292889 -0.499,-9.433655 1.3015,-14.41586 1.2784,-2.40244 2.0878,-6.710635 4.9551,-7.903286 8.0595,-5.593003 16.2036,-10.968945 24.9849,-15.360753 5.9436,-2.722624 12.2232,-4.513451 18.4801,-6.337589 1.5189,-0.274002 2.9437,-0.897342 4.4394,-1.254799 1.7558,-0.419624 3.5933,-0.357047 5.3837,-0.58824 6.7675,-0.873898 9.9968,-1.375741 16.9241,-2.385224 13.5049,-2.072429 27.0589,-3.797136 40.6998,-4.617747 10.0018,-0.481319 20.0173,-0.452204 30.0278,-0.453742 11.7608,0.751081 23.4842,1.952451 35.2444,2.714914 13.4273,1.720408 26.2445,6.298805 38.7427,11.314691 11.1818,4.958184 22.7962,8.931844 33.8261,14.230808 2.4665,1.13188 5.3076,2.263635 6.6948,4.769178 2.5508,5.132808 4.4958,10.609823 6.2119,16.096737 3.0303,8.182371 6.3725,16.220318 9.3723,24.415892 2.9345,8.55113 8.3434,15.96964 10.6688,24.7204 1.3991,5.95637 1.9272,12.10168 1.6801,18.20698 -0.3961,7.20173 -0.5265,14.43963 -1.5473,21.59234 -0.3294,2.30761 -1.6719,9.03568 -2.0952,11.20883 -1.4909,6.97093 -2.7506,14.09137 -5.1816,20.82043 -1.3213,3.6571 -2.6128,5.94878 -4.3691,9.43445 -5.2141,10.69632 -12.1494,20.38149 -18.6372,30.31084 -5.315,7.70639 -9.3745,16.2303 -14.6873,23.93213 -2.0352,2.95071 -4.8718,6.31976 -7.1244,9.08717 -6.6104,8.2773 -14.4616,15.32747 -22.2486,22.4451 -6.1452,6.38019 -17.1093,15.12962 -18.4534,24.38948 -0.5937,4.09056 0.5385,8.24928 0.8076,12.3739 2.4265,3.31012 4.3799,7.02554 7.2792,9.9304 1.873,1.87666 4.4304,2.93168 6.7815,4.15723 7.3565,3.83435 15.806,4.76227 23.9075,5.60663 14.007,0.98679 27.9117,2.92336 41.7727,5.11723 14.5611,2.5578 29.3573,2.83813 44.0393,4.25333 9.5642,1.11498 19.1329,2.1639 28.7494,2.6856 4.1791,0.4888 10.0769,0.18495 14.0163,1.47826 0.7628,0.25043 1.3933,0.79817 2.0899,1.19724 3.4941,1.97863 9.3483,3.48162 12.1891,6.5142 0.8671,0.92564 -1.5232,0.21415 -1.5486,0.23952 -0.2878,0.28933 -0.032,0.81579 -0.049,1.22368 0.016,0.64328 0.123,1.2904 0.051,1.92979 -0.07,0.61671 -2.1056,4.3807 -2.1656,4.51599 -1.3068,2.94854 -2.5948,5.90547 -3.8918,8.85827 -5.0162,10.03628 -6.6953,21.09097 -8.6569,32.00821 -1.3824,7.50639 -2.8199,15.05032 -5.9835,22.03558 -2.8885,4.20786 -7.2552,7.26295 -11.6211,9.79287 -8.4987,5.0759 -17.7847,8.29778 -27.1849,11.23378 -12.8611,4.4576 -26.4564,5.09659 -39.9213,5.74395 -9.8034,0.19867 -19.6805,0.90318 -29.4675,-0.12243 -3.8327,-0.40163 -10.7839,-1.76688 -14.3721,-2.42702 -17.3729,-4.68511 -34.2488,-10.88959 -51.6078,-15.62476 -17.1477,-4.41436 -34.5805,-7.65066 -52.0036,-10.7684 -12.5307,-1.98449 -25.1248,-3.49213 -37.5544,-6.05812 -11.0043,-2.40599 -21.893,-5.26023 -32.6076,-8.72974 -6.5394,-3.06263 -11.2241,-8.69376 -15.8207,-14.06686 -2.4736,-3.47448 -5.5899,-7.05125 -6.9035,-11.22196 -0.557,-1.76816 0.1664,-8.15954 0.2508,-9.82176 0.7972,-4.23762 2.0278,-8.5118 4.0233,-12.36059 0.6818,-1.315 2.726,-4.09916 3.4681,-5.14898 6.4233,-8.81559 12.2844,-18.00992 19.2479,-26.42076 11.4358,-12.87219 25.5045,-22.94165 39.0806,-33.37906 15.5924,-12.16869 31.5103,-24.67758 43.5303,-40.58264 2.4423,-3.23191 4.5519,-6.70251 6.8278,-10.05377 8.3423,-13.65637 14.4817,-28.61107 15.5295,-44.72508 0.5342,-8.21561 -0.2945,-11.29099 -1.4301,-19.11319 -3.1856,-14.74668 -11.5766,-25.67935 -24.3837,-33.59651 -3.1766,-1.96376 -6.5712,-3.55065 -9.8571,-5.32598 -23.5053,-10.87245 -48.927,-16.43479 -74.1574,-21.64433 -17.8419,-3.9394 -36.0196,-5.15122 -54.2258,-5.66901 -2.3736,-0.0401 -4.7472,-0.0802 -7.1208,-0.12036 -24.9417,-0.4176 -25.5323,34.85523 -0.5905,35.27283 v 0 c 2.24,0.0371 4.4796,0.0742 6.7196,0.11136 16.1467,0.44851 32.2702,1.42903 48.0933,4.95611 22.0398,4.53788 44.273,9.25139 64.9589,18.36778 3.3785,1.65751 12.8082,6.125 14.6863,10.11938 0.473,1.00569 0.7016,2.10901 1.0525,3.16352 0.998,5.09565 1.7915,10.38184 0.8136,15.57699 -1.5452,8.20886 -5.2671,15.88347 -9.4255,23.03453 -1.5484,2.37499 -2.9708,4.83677 -4.6445,7.12496 -10.1704,13.90347 -24.5192,24.54478 -37.8789,35.136 -15.7093,12.07817 -31.8698,23.87293 -44.8675,38.99005 -7.5366,9.27087 -14.1636,19.1678 -21.0949,28.88782 -3.2256,4.81867 -4.2302,5.97606 -6.8202,11.28948 -3.7928,7.7815 -5.8716,16.35339 -6.7924,24.91817 -0.1526,6.35481 -0.5575,10.9407 0.6864,17.3846 2.0507,10.62408 7.8364,19.63658 14.5274,27.91156 8.9104,10.24186 18.5838,19.87833 31.6572,24.57027 11.9575,3.86614 24.108,7.05786 36.3905,9.72576 12.7262,2.58837 25.5852,4.28538 38.4225,6.22462 16.3984,2.92928 32.8078,5.96585 48.9551,10.08274 18.3308,4.96811 36.0722,11.80647 54.5428,16.28992 6.8307,1.23391 11.7268,2.25875 18.6605,2.93952 11.0376,1.0837 22.1641,0.41023 33.2182,0.13933 16.4713,-0.81198 33.047,-1.92371 48.7775,-7.32383 12.1613,-3.83897 24.1289,-8.21666 35.0941,-14.84101 10.4208,-6.58603 20.0887,-14.46164 25.5159,-25.83235 4.0417,-9.5676 6.6524,-19.56731 8.3306,-29.81793 1.4679,-8.20391 2.3927,-16.52307 6.2315,-24.04647 5.2734,-12.00391 10.8894,-23.32205 8.2013,-36.89096 -1.7854,-6.97027 -1.9926,-10.12137 -6.5638,-16.43902 -6.3423,-8.76477 -16.4367,-12.9481 -25.9702,-17.10994 -3.0411,-1.02372 -6.0261,-2.23165 -9.1231,-3.07118 -5.666,-1.53596 -11.8777,-1.21764 -17.6572,-1.86245 -9.1263,-0.47525 -18.1986,-1.55501 -27.2767,-2.57622 -13.965,-1.31935 -28.0292,-1.62052 -41.8835,-3.98047 -14.5505,-2.29505 -29.1463,-4.33451 -43.8478,-5.38229 -3.7548,-0.32777 -3.7677,-0.24559 -7.1536,-0.81261 -0.7107,-0.11901 -1.4219,-0.24189 -2.1217,-0.41249 -0.5688,-0.13859 -1.1051,-0.62815 -1.6793,-0.51382 -0.2783,0.0555 0.2278,0.52014 0.3416,0.78023 0.984,2.02112 1.968,4.04228 2.9517,6.06343 -0.9769,11.822 0.9414,4.04482 -2.9869,11.08956 -0.431,0.77266 1.048,-1.42708 1.6161,-2.10537 2.8006,-3.34484 5.9888,-6.3342 9.0829,-9.39898 9.0855,-8.30752 18.158,-16.63247 25.8667,-26.28783 3.9153,-4.85966 5.951,-7.20188 9.5427,-12.46344 5.1723,-7.57661 9.2348,-15.87103 14.387,-23.46424 7.2549,-11.12156 14.9582,-21.99931 20.7417,-34.00271 3.1412,-6.47124 4.0778,-7.93813 6.485,-14.79205 2.7715,-7.89017 4.3341,-16.17583 6.0534,-24.33502 2.4908,-12.87512 4.1259,-25.49075 4.2772,-38.62569 0.1678,-9.74693 -0.5186,-19.51129 -3.075,-28.96618 -1.719,-5.66053 -1.6703,-6.12922 -4.0611,-11.5183 -2.3145,-5.21705 -5.489,-10.04279 -7.3517,-15.469053 -2.8225,-7.706995 -5.8793,-15.300076 -8.8685,-22.939783 -3.0562,-9.56103 -6.4582,-19.189972 -12.2807,-27.462942 -5.2646,-6.282497 -11.422,-11.461155 -19.0915,-14.601825 -11.7597,-5.562906 -24.0094,-9.98828 -35.9434,-15.15511 -15.9541,-6.3092103 -32.3421,-11.998928 -49.5149,-13.7430366 -12.5193,-0.80701523 -24.9939,-2.18527488 -37.5264,-2.7884172 -10.7249,0.00191 -21.4556,-0.020681 -32.1701,0.51919876 -14.6238,0.9028124 -29.1635,2.68259014 -43.6423,4.92150194 -10.5434,1.5385854 -21.2794,2.362786 -31.5513,5.275046 -8.3283,2.4381471 -16.6589,4.9335941 -24.5028,8.7166531 -11.185,5.700232 -21.7537,12.433536 -31.8452,19.904797 -1.1888,1.064144 -2.4456,2.056776 -3.5663,3.192431 -5.7346,5.811658 -9.4359,13.189439 -12.1775,20.794538 -3.2255,10.473409 -4.295,19.276697 -2.6736,30.150805 1.1922,8.456786 2.8628,16.835396 4.5365,25.207906 2.1913,11.14847 3.8508,22.39153 5.9315,33.56065 3.094,24.75252 38.0992,20.37685 35.0051,-4.37567 z" />
    <text
       xml:space="preserve"
       style="font-style:normal;font-variant:normal;font-weight:normal;font-stretch:normal;font-size:141.111px;line-height:0.8;font-family:'Bauhaus 93';-inkscape-font-specification:'Bauhaus 93, ';fill:#000000;fill-opacity:1;stroke:none;stroke-width:79.9997;stroke-dasharray:none"
       x="88.461571"
       y="-573.26526"
       id="text7912"><tspan
         sodipodi:role="line"
         style="fill:#000000;stroke-width:79.9997"
         x="88.461571"
         y="-573.26526"
         id="tspan11760"><tspan
   style="fill:#80b3ff"
   id="tspan14046">THE SEQUEL</tspan> - <tspan
   style="fill:#ff5555"
   id="tspan14986">REVAMPED </tspan>- <tspan
   style="fill:#aa0088"
   id="tspan15092">THE FOLLOW UP</tspan> - <tspan
   style="fill:#0055d4"
   id="tspan15198">AFTERMATH</tspan>-</tspan><tspan
         sodipodi:role="line"
         style="fill:#000000;stroke-width:79.9997"
         x="88.461571"
         y="-460.37646"
         id="tspan11764"><tspan
   style="fill:#ffeeaa"
   id="tspan15528"> PART TWO</tspan><tspan
   style="fill:#ff5555"
   id="tspan15312"> </tspan>-<tspan
   style="fill:#ff55dd"
   id="tspan19098"> REMASTERED </tspan>- <tspan
   style="fill:#216778"
   id="tspan15838">AWAKENED </tspan>- <tspan
   style="fill:#ffff00"
   id="tspan16156">ULTIMATE EDITION</tspan></tspan><tspan
         sodipodi:role="line"
         style="fill:#000000;stroke-width:79.9997"
         x="88.461571"
         y="-347.48767"
         id="tspan11026" /><tspan
         sodipodi:role="line"
         style="fill:#000000;stroke-width:79.9997"
         x="88.461571"
         y="-234.59886"
         id="tspan11754" /><tspan
         sodipodi:role="line"
         style="fill:#000000;stroke-width:79.9997"
         x="88.461571"
         y="-121.71007"
         id="tspan11756" /><tspan
         sodipodi:role="line"
         style="fill:#000000;stroke-width:79.9997"
         x="88.461571"
         y="-8.8212147"
         id="tspan11758" /></text>
    <text
       xml:space="preserve"
       transform="scale(0.26458333)"
       id="text15204"
       style="font-style:normal;font-variant:normal;font-weight:normal;font-stretch:normal;font-size:10.6667px;font-family:'Showcard Gothic';-inkscape-font-specification:'Showcard Gothic';white-space:pre;shape-inside:url(#rect15206);display:inline;fill:#0055d4;fill-opacity:1;stroke:none;stroke-width:75.5906;stroke-dasharray:none" />
    <text
       xml:space="preserve"
       transform="scale(0.26458333)"
       id="text19740"
       style="font-style:normal;font-variant:normal;font-weight:normal;font-stretch:normal;font-size:10.6667px;font-family:'Showcard Gothic';-inkscape-font-specification:'Showcard Gothic';white-space:pre;shape-inside:url(#rect19742);display:inline;fill:#dd55ff;fill-opacity:1;stroke:none;stroke-width:75.5906;stroke-dasharray:none" />
  </g>
  <g
     inkscape:groupmode="layer"
     id="layer2"
     inkscape:label="CHaracters"
     transform="translate(-32.740522,-154.34815)">
    <rect
       style="fill:#ff0066;stroke:#000000;stroke-width:20"
       id="rect27153"
       width="930.76611"
       height="481.7533"
       x="2899.8743"
       y="1791.374"
       ry="80.162277" />
    <text
       xml:space="preserve"
       style="font-size:247.329px;font-family:'Showcard Gothic';-inkscape-font-specification:'Showcard Gothic';fill:#000000;stroke:none;stroke-width:1752.72"
       x="2794.604"
       y="2206.2129"
       id="text27462"
       transform="scale(1.0466568,0.95542306)"><tspan
         sodipodi:role="line"
         id="tspan27460"
         style="fill:#000000;stroke:none;stroke-width:1752.72"
         x="2794.604"
         y="2206.2129">START!</tspan></text>
  </g>
</svg>
