<?xml version="1.0" encoding="UTF-8" standalone="no"?>
<!-- Created with Inkscape (http://www.inkscape.org/) -->

<svg
   width="1050mm"
   height="1485mm"
   viewBox="0 0 1050 1485"
   version="1.1"
   id="svg5"
   inkscape:version="1.2.2 (732a01da63, 2022-12-09)"
   sodipodi:docname="oni_temple_tiles.svg"
   inkscape:export-filename="oni_temple_elements.png"
   inkscape:export-xdpi="98.310097"
   inkscape:export-ydpi="98.310097"
   xmlns:inkscape="http://www.inkscape.org/namespaces/inkscape"
   xmlns:sodipodi="http://sodipodi.sourceforge.net/DTD/sodipodi-0.dtd"
   xmlns="http://www.w3.org/2000/svg"
   xmlns:svg="http://www.w3.org/2000/svg">
  <sodipodi:namedview
     id="namedview7"
     pagecolor="#ffffff"
     bordercolor="#000000"
     borderopacity="0.25"
     inkscape:showpageshadow="2"
     inkscape:pageopacity="0.0"
     inkscape:pagecheckerboard="0"
     inkscape:deskcolor="#d1d1d1"
     inkscape:document-units="mm"
     showgrid="false"
     inkscape:zoom="0.056568542"
     inkscape:cx="-6514.2212"
     inkscape:cy="3641.5999"
     inkscape:window-width="1920"
     inkscape:window-height="986"
     inkscape:window-x="-11"
     inkscape:window-y="-11"
     inkscape:window-maximized="1"
     inkscape:current-layer="layer1" />
  <defs
     id="defs2" />
  <g
     inkscape:label="Layer 1"
     inkscape:groupmode="layer"
     id="layer1">
    <path
       style="fill:#ff6600;fill-opacity:1;stroke:none;stroke-width:24.0002;paint-order:markers stroke fill"
       id="path33068"
       d="m 364.27797,971.09604 c 7.37318,-14.34603 13.71502,-29.92179 19.99464,-45.49038 1.54723,-3.93145 3.10445,-7.85304 4.6417,-11.79434 3.0366,-7.78546 5.36803,-13.80474 8.21614,-21.70479 3.98846,-11.06317 7.72851,-22.34573 11.48446,-33.60902 1.1094,-3.33994 2.21588,-6.68231 3.32821,-10.01981 1.74243,-5.22811 3.47501,-10.46449 5.22209,-15.68868 1.48787,-4.449 2.94667,-8.86454 4.72588,-13.03569 0.23506,-0.12343 0.54434,-0.6684 0.70517,-0.37006 0.21624,0.4011 -0.21293,1.11821 -0.0526,1.58052 0.53687,1.54774 1.39764,2.75356 2.0519,4.18339 1.0683,2.33472 2.1131,4.69786 3.11403,7.10644 3.37095,8.11154 4.76917,12.16783 7.97237,20.81402 5.76105,15.86493 11.17689,32.07399 15.909,48.77906 2.30112,8.12334 3.12364,11.56563 5.17624,19.63208 3.04869,12.96177 5.96257,26.00208 8.23303,39.36357 1.88942,9.90162 3.08435,20.07097 3.87299,30.32513 0.46865,7.56982 0.78805,15.19762 0.54245,22.80102 -0.37145,7.8725 -2.45066,15.0783 -4.77754,21.9314 -1.4869,3.9528 -3.1537,7.8109 -5.22022,11.0714 -0.78787,1.2432 -1.82143,2.5492 -2.67601,3.6718 -2.07176,2.4861 -4.37534,4.4177 -6.87028,5.5667 -0.30055,0.097 -0.5959,0.2522 -0.90166,0.2898 -2.61116,0.3221 -5.57293,-1.2882 -8.04349,-2.4251 -4.88023,-1.9064 -9.54243,-4.8678 -14.09721,-8.192 -3.93438,-2.8402 -7.8413,-5.7785 -11.71107,-8.8338 -4.00863,-3.4782 -8.06715,-6.808 -12.11739,-10.1663 -3.14306,-2.593 -6.14108,-5.6221 -8.9098,-9.1255 -2.31007,-3.0885 -4.58325,-6.2415 -6.79983,-9.4974 -3.62879,-5.1826 -7.78201,-9.23111 -11.87163,-13.4053 -2.66674,-2.33715 -5.00638,-5.33475 -7.18796,-8.66953 -0.8928,-1.62681 -1.87563,-3.11811 -2.79166,-4.70905 -0.93574,-1.64642 -1.73288,-3.47728 -2.51492,-5.31 -0.46668,-1.01357 -0.38174,-1.60966 0.0124,-2.61464 0.25669,-0.97208 0.78774,-1.52272 1.26949,-2.18878 1.78981,-2.48098 -0.42407,-6.49245 -2.21387,-4.01148 v 0 c -0.8112,1.12804 -1.63143,2.22831 -2.07182,3.84397 -0.81615,2.83718 -0.95163,5.26866 0.2182,7.95645 0.87559,2.05184 1.77498,4.09338 2.82561,5.93258 0.96893,1.6589 1.98443,3.24505 2.93212,4.93696 2.33875,3.57457 4.85216,6.79091 7.70165,9.31417 3.92465,4.00545 7.91782,7.87155 11.40661,12.83355 2.27842,3.3459 4.6144,6.5875 6.99088,9.7577 2.94155,3.703 6.10958,6.9359 9.44584,9.6787 4.07022,3.3737 8.14773,6.7218 12.17683,10.2143 3.90105,3.0786 7.83858,6.0426 11.80459,8.9049 4.70759,3.4305 9.52579,6.4913 14.56696,8.4691 3.48441,1.5972 7.20073,3.4662 10.83794,2.1259 2.92336,-1.3977 5.64239,-3.6053 8.06195,-6.5761 1.07074,-1.412 2.01956,-2.6 3.00826,-4.1736 2.25411,-3.5876 4.08159,-7.8079 5.70212,-12.1484 2.55572,-7.5589 4.79077,-15.5133 5.17349,-24.1893 0.23886,-7.9085 -0.0592,-15.83785 -0.56315,-23.71041 -0.81145,-10.50309 -2.03101,-20.92152 -3.96399,-31.06549 -2.30819,-13.56647 -5.26015,-26.81175 -8.36134,-39.97057 -2.08189,-8.178 -2.91154,-11.64992 -5.24632,-19.88781 -4.77788,-16.85805 -10.2427,-33.21758 -16.05788,-49.22854 -3.20187,-8.63851 -4.72342,-13.03162 -8.11199,-21.15967 -1.05373,-2.52758 -2.11753,-5.05012 -3.28058,-7.45431 -1.75354,-3.62496 -3.02466,-7.19814 -6.31599,-6.94799 -0.72134,0.0548 -1.18191,1.31571 -1.77288,1.97358 -1.83578,4.35071 -3.36621,8.90819 -4.91327,13.53422 -1.74622,5.22147 -3.47786,10.45513 -5.21939,15.68052 -1.1115,3.33498 -2.21714,6.67483 -3.32571,10.01222 -3.73257,11.19371 -7.4487,22.40735 -11.41188,33.4026 -2.8335,7.86109 -5.14613,13.83072 -8.16889,21.581 -1.53069,3.92464 -3.08125,7.82967 -4.62184,11.74451 -6.23354,15.45796 -12.52963,30.92176 -19.85143,45.16293 -1.4267,3.01478 1.2635,6.21243 2.6902,3.19765 z" />
    <path
       style="fill:#373737;fill-opacity:1;stroke:#000000;stroke-width:20;paint-order:markers stroke fill;stroke-dasharray:none"
       d="m 422.24463,817.78134 c -3.11461,2.30494 -3.79839,9.01152 -5.73518,13.17601 -13.05807,39.47764 -26.30078,78.86076 -42.30676,115.60411 -0.81454,3.39973 -3.97425,6.57587 -2.84333,10.4152 10.88851,5.73025 22.03297,10.64543 32.42251,18.36157 21.483,15.0113 40.94066,36.51407 57.9484,62.05567 2.36478,3.46 4.78088,-1.1476 5.29871,-4.7681 5.80764,-17.9208 3.38879,-38.66042 1.22084,-57.53158 -6.85042,-50.13894 -21.35264,-96.78167 -38.20841,-140.24858 -2.50475,-5.44183 -4.5325,-11.72172 -7.12518,-16.87971 -0.21047,-0.14352 -0.44282,-0.20733 -0.6716,-0.18459 z"
       id="path33139" />
    <path
       style="fill:#ff6600;fill-opacity:1;stroke:none;stroke-width:24.0002;paint-order:markers stroke fill"
       id="path33068-9"
       d="m 218.80578,975.55086 c -7.37318,-14.346 -13.71502,-29.9218 -19.99464,-45.4904 -1.54723,-3.9314 -3.10445,-7.853 -4.6417,-11.7943 -3.0366,-7.7855 -5.36803,-13.8048 -8.21614,-21.7048 -3.98846,-11.06317 -7.72851,-22.34573 -11.48446,-33.60902 -1.1094,-3.33994 -2.21588,-6.68231 -3.32821,-10.01981 -1.74243,-5.22811 -3.47501,-10.46449 -5.22209,-15.68868 -1.48787,-4.449 -2.94667,-8.86454 -4.72588,-13.03569 -0.23506,-0.12343 -0.54434,-0.6684 -0.70517,-0.37006 -0.21624,0.4011 0.21293,1.11821 0.0526,1.58052 -0.53687,1.54774 -1.39764,2.75356 -2.0519,4.18339 -1.0683,2.33472 -2.1131,4.69786 -3.11403,7.10644 -3.37095,8.11154 -4.76917,12.16783 -7.97237,20.81402 -5.76105,15.86493 -11.17689,32.07399 -15.909,48.77909 -2.30112,8.1233 -3.12364,11.5656 -5.17624,19.6321 -3.04869,12.9617 -5.96257,26.002 -8.23303,39.3635 -1.88942,9.9016 -3.08435,20.071 -3.87299,30.3252 -0.46865,7.56984 -0.78805,15.19764 -0.54245,22.80104 0.37145,7.8725 2.45066,15.0783 4.77754,21.9314 1.4869,3.9528 3.1537,7.8109 5.22022,11.0714 0.78787,1.2432 1.82143,2.5492 2.67601,3.6718 2.07176,2.4861 4.37534,4.4177 6.87028,5.5667 0.30055,0.097 0.5959,0.2522 0.90166,0.2898 2.61116,0.3221 5.57293,-1.2882 8.04349,-2.4251 4.88023,-1.9064 9.54243,-4.8678 14.09721,-8.192 3.93438,-2.8402 7.8413,-5.7785 11.71107,-8.8338 4.00863,-3.4782 8.06715,-6.808 12.11739,-10.1663 3.14306,-2.593 6.14108,-5.6221 8.9098,-9.1255 2.31007,-3.0885 4.58325,-6.2415 6.79983,-9.4974 3.62879,-5.1826 7.78201,-9.2311 11.87163,-13.40534 2.66674,-2.3372 5.00638,-5.3348 7.18796,-8.6696 0.8928,-1.6268 1.87563,-3.1181 2.79166,-4.709 0.93574,-1.6464 1.73288,-3.4773 2.51492,-5.31 0.46668,-1.0136 0.38174,-1.6097 -0.0124,-2.6146 -0.25669,-0.9721 -0.78774,-1.5228 -1.26949,-2.1888 -1.78981,-2.481 0.42407,-6.4925 2.21387,-4.0115 v 0 c 0.8112,1.128 1.63143,2.2283 2.07182,3.844 0.81615,2.8371 0.95163,5.2686 -0.2182,7.9564 -0.87559,2.0519 -1.77498,4.0934 -2.82561,5.9326 -0.96893,1.6589 -1.98443,3.245 -2.93212,4.937 -2.33875,3.5745 -4.85216,6.79094 -7.70165,9.31414 -3.92465,4.0055 -7.91782,7.8716 -11.40661,12.8336 -2.27842,3.3459 -4.6144,6.5875 -6.99088,9.7577 -2.94155,3.703 -6.10958,6.9359 -9.44584,9.6787 -4.07022,3.3737 -8.14773,6.7218 -12.17683,10.2143 -3.90105,3.0786 -7.83858,6.0426 -11.80459,8.9049 -4.70759,3.4305 -9.52579,6.4913 -14.56696,8.4691 -3.48441,1.5972 -7.20073,3.4662 -10.83794,2.1259 -2.92336,-1.3977 -5.64239,-3.6053 -8.06195,-6.5761 -1.07074,-1.412 -2.01956,-2.6 -3.00826,-4.1736 -2.25411,-3.5876 -4.08159,-7.8079 -5.70212,-12.1484 -2.55572,-7.5589 -4.79077,-15.5133 -5.17349,-24.1893 -0.23886,-7.9085 0.0592,-15.8379 0.56315,-23.71044 0.81145,-10.5031 2.03101,-20.9216 3.96399,-31.0655 2.30819,-13.5665 5.26015,-26.8118 8.36134,-39.9706 2.08189,-8.178 2.91154,-11.6499 5.24632,-19.8878 4.77788,-16.8581 10.2427,-33.21759 16.05788,-49.22855 3.20187,-8.63851 4.72342,-13.03162 8.11199,-21.15967 1.05373,-2.52758 2.11753,-5.05012 3.28058,-7.45431 1.75354,-3.62496 3.02466,-7.19814 6.31599,-6.94799 0.72134,0.0548 1.18191,1.31571 1.77288,1.97358 1.83578,4.35071 3.36621,8.90819 4.91327,13.53422 1.74622,5.22147 3.47786,10.45513 5.21939,15.68052 1.1115,3.33498 2.21714,6.67483 3.32571,10.01222 3.73257,11.19371 7.4487,22.40735 11.41188,33.40258 2.8335,7.8611 5.14613,13.8307 8.16889,21.581 1.53069,3.9247 3.08125,7.8297 4.62184,11.7445 6.23354,15.458 12.52963,30.9218 19.85143,45.163 1.4267,3.0147 -1.2635,6.2124 -2.6902,3.1976 z" />
    <path
       style="fill:#373737;fill-opacity:1;stroke:#000000;stroke-width:20;paint-order:markers stroke fill;stroke-dasharray:none"
       d="m 160.83912,822.23617 c 3.11461,2.30494 3.79839,9.01152 5.73518,13.17601 13.05807,39.47764 26.30078,78.86078 42.30676,115.60408 0.81454,3.3998 3.97425,6.5759 2.84333,10.4152 -10.88851,5.7303 -22.03297,10.6455 -32.42251,18.3616 -21.483,15.0113 -40.94066,36.51414 -57.9484,62.05574 -2.36478,3.46 -4.78088,-1.1476 -5.29871,-4.7681 -5.80764,-17.9208 -3.38879,-38.66044 -1.22084,-57.53164 6.85042,-50.1389 21.35264,-96.78168 38.20841,-140.24859 2.50475,-5.44183 4.5325,-11.72172 7.12518,-16.87971 0.21047,-0.14352 0.44282,-0.20733 0.6716,-0.18459 z"
       id="path33139-1" />
    <ellipse
       style="fill:#373737;fill-opacity:1;stroke:#000000;stroke-width:17.9093;paint-order:markers stroke fill"
       id="path32961"
       cx="295.95395"
       cy="1133.5256"
       rx="196.17555"
       ry="191.87523" />
    <rect
       style="fill:#373737;fill-opacity:1;stroke:#000000;stroke-width:9.15285;paint-order:markers stroke fill"
       id="rect31224-2"
       width="48.433483"
       height="216.64017"
       x="353.62256"
       y="1232.736" />
    <rect
       style="fill:#404062;fill-opacity:1;stroke:none;stroke-width:1.1918"
       id="rect2244"
       width="100"
       height="100"
       x="-3.5527137e-15"
       y="0" />
    <rect
       style="fill:#404062;fill-opacity:1;stroke:none;stroke-width:1.1918"
       id="rect2404"
       width="100"
       height="100"
       x="-3.5527137e-15"
       y="0" />
    <rect
       style="fill:#404062;fill-opacity:1;stroke:none;stroke-width:1.1918"
       id="rect2406"
       width="100"
       height="100"
       x="-3.5527137e-15"
       y="0" />
    <rect
       style="fill:#515151;fill-opacity:1;stroke:none;stroke-width:2.48971"
       id="rect2408"
       width="436.4054"
       height="100"
       x="-3.5527137e-15"
       y="0" />
    <rect
       style="fill:#515151;fill-opacity:1;stroke:#000000;stroke-width:2.37071;paint-order:markers stroke fill"
       id="rect219917"
       width="37.670609"
       height="18.352291"
       x="1.1821291"
       y="1.188617" />
    <rect
       style="fill:#ff9955;fill-opacity:1;stroke:#000000;stroke-width:2.37071;paint-order:markers stroke fill"
       id="rect219919"
       width="37.670609"
       height="18.352291"
       x="40.40213"
       y="1.188617" />
    <rect
       style="fill:#515151;fill-opacity:1;stroke:none;stroke-width:1.1918"
       id="rect219923"
       width="100"
       height="100"
       x="100"
       y="0" />
    <rect
       style="fill:#515151;fill-opacity:1;stroke:none;stroke-width:1.1918"
       id="rect219925"
       width="100"
       height="100"
       x="400"
       y="0" />
    <rect
       style="fill:#515151;fill-opacity:1;stroke:none;stroke-width:1.1918"
       id="rect219927"
       width="100"
       height="100"
       x="300"
       y="0" />
    <rect
       style="fill:#515151;fill-opacity:1;stroke:none;stroke-width:1.1918"
       id="rect219929"
       width="100"
       height="100"
       x="200"
       y="0" />
    <rect
       style="fill:#515151;fill-opacity:1;stroke:#000000;stroke-width:2.37071;paint-order:markers stroke fill"
       id="rect219931"
       width="37.670609"
       height="18.352291"
       x="79.607704"
       y="1.188617" />
    <rect
       style="fill:#272727;fill-opacity:1;stroke:#000000;stroke-width:2.37071;paint-order:markers stroke fill"
       id="rect219933"
       width="37.670609"
       height="18.352291"
       x="118.82771"
       y="1.188617" />
    <rect
       style="fill:#ff9955;fill-opacity:1;stroke:#000000;stroke-width:2.37071;paint-order:markers stroke fill"
       id="rect219935"
       width="37.670609"
       height="18.352291"
       x="158.29126"
       y="1.1886181" />
    <rect
       style="fill:#515151;fill-opacity:1;stroke:#000000;stroke-width:2.37071;paint-order:markers stroke fill"
       id="rect219937"
       width="37.670609"
       height="18.352291"
       x="197.51126"
       y="1.1886181" />
    <rect
       style="fill:#515151;fill-opacity:1;stroke:#000000;stroke-width:2.37071;paint-order:markers stroke fill"
       id="rect219939"
       width="37.670609"
       height="18.352291"
       x="236.71683"
       y="1.1886181" />
    <rect
       style="fill:#272727;fill-opacity:1;stroke:#000000;stroke-width:2.37071;paint-order:markers stroke fill"
       id="rect219941"
       width="37.670609"
       height="18.352291"
       x="275.93683"
       y="1.1886181" />
    <rect
       style="fill:#515151;fill-opacity:1;stroke:#000000;stroke-width:2.37071;paint-order:markers stroke fill"
       id="rect219943"
       width="37.670609"
       height="18.352291"
       x="315.48941"
       y="1.1886181" />
    <rect
       style="fill:#ff9955;fill-opacity:1;stroke:#000000;stroke-width:2.37071;paint-order:markers stroke fill"
       id="rect219945"
       width="37.670609"
       height="18.352291"
       x="354.70941"
       y="1.1886181" />
    <rect
       style="fill:#515151;fill-opacity:1;stroke:#000000;stroke-width:2.37071;paint-order:markers stroke fill"
       id="rect219947"
       width="37.670609"
       height="18.352291"
       x="393.91498"
       y="1.1886181" />
    <rect
       style="fill:#272727;fill-opacity:1;stroke:#000000;stroke-width:2.37071;paint-order:markers stroke fill"
       id="rect219949"
       width="37.670609"
       height="18.352291"
       x="433.13498"
       y="1.1886181" />
    <rect
       style="fill:#515151;fill-opacity:1;stroke:#000000;stroke-width:2.02834;paint-order:markers stroke fill"
       id="rect219951"
       width="27.061451"
       height="18.701181"
       x="472.43054"
       y="1.0141741" />
    <rect
       style="fill:#515151;fill-opacity:1;stroke:#000000;stroke-width:2.02834;paint-order:markers stroke fill"
       id="rect219959"
       width="27.061451"
       height="18.701181"
       x="0.71687466"
       y="20.743952" />
    <rect
       style="fill:#272727;fill-opacity:1;stroke:#000000;stroke-width:2.37071;paint-order:markers stroke fill"
       id="rect219961"
       width="37.670609"
       height="18.352291"
       x="29.159742"
       y="20.918398" />
    <rect
       style="fill:#515151;fill-opacity:1;stroke:#000000;stroke-width:2.37071;paint-order:markers stroke fill"
       id="rect219963"
       width="37.670609"
       height="18.352291"
       x="68.365318"
       y="20.918398" />
    <rect
       style="fill:#ff9955;fill-opacity:1;stroke:#000000;stroke-width:2.37071;paint-order:markers stroke fill"
       id="rect219965"
       width="37.670609"
       height="18.352291"
       x="107.58531"
       y="20.918398" />
    <rect
       style="fill:#515151;fill-opacity:1;stroke:#000000;stroke-width:2.37071;paint-order:markers stroke fill"
       id="rect219967"
       width="37.670609"
       height="18.352291"
       x="147.04887"
       y="20.918402" />
    <rect
       style="fill:#272727;fill-opacity:1;stroke:#000000;stroke-width:2.37071;paint-order:markers stroke fill"
       id="rect219969"
       width="37.670609"
       height="18.352291"
       x="186.26888"
       y="20.918402" />
    <rect
       style="fill:#515151;fill-opacity:1;stroke:#000000;stroke-width:2.37071;paint-order:markers stroke fill"
       id="rect219971"
       width="37.670609"
       height="18.352291"
       x="225.47444"
       y="20.918402" />
    <rect
       style="fill:#ff9955;fill-opacity:1;stroke:#000000;stroke-width:2.37071;paint-order:markers stroke fill"
       id="rect219973"
       width="37.670609"
       height="18.352291"
       x="264.69443"
       y="20.918402" />
    <rect
       style="fill:#515151;fill-opacity:1;stroke:#000000;stroke-width:2.37071;paint-order:markers stroke fill"
       id="rect219975"
       width="37.670609"
       height="18.352291"
       x="304.24701"
       y="20.918402" />
    <rect
       style="fill:#515151;fill-opacity:1;stroke:#000000;stroke-width:2.37071;paint-order:markers stroke fill"
       id="rect219977"
       width="37.670609"
       height="18.352291"
       x="343.46701"
       y="20.918402" />
    <rect
       style="fill:#ff9955;fill-opacity:1;stroke:#000000;stroke-width:2.37071;paint-order:markers stroke fill"
       id="rect219979"
       width="37.670609"
       height="18.352291"
       x="382.67258"
       y="20.918402" />
    <rect
       style="fill:#515151;fill-opacity:1;stroke:#000000;stroke-width:2.37071;paint-order:markers stroke fill"
       id="rect219981"
       width="37.670609"
       height="18.352291"
       x="421.89255"
       y="20.918402" />
    <rect
       style="fill:#515151;fill-opacity:1;stroke:#000000;stroke-width:2.37071;paint-order:markers stroke fill"
       id="rect219983"
       width="37.670609"
       height="18.352291"
       x="461.35614"
       y="20.918402" />
    <rect
       style="fill:#ff9955;fill-opacity:1;stroke:#000000;stroke-width:2.37071;paint-order:markers stroke fill"
       id="rect219985"
       width="37.670609"
       height="18.352291"
       x="1.1821291"
       y="40.648178" />
    <rect
       style="fill:#515151;fill-opacity:1;stroke:#000000;stroke-width:2.37071;paint-order:markers stroke fill"
       id="rect219987"
       width="37.670609"
       height="18.352291"
       x="40.40213"
       y="40.648178" />
    <rect
       style="fill:#515151;fill-opacity:1;stroke:#000000;stroke-width:2.37071;paint-order:markers stroke fill"
       id="rect219989"
       width="37.670609"
       height="18.352291"
       x="79.607704"
       y="40.648178" />
    <rect
       style="fill:#515151;fill-opacity:1;stroke:#000000;stroke-width:2.37071;paint-order:markers stroke fill"
       id="rect219991"
       width="37.670609"
       height="18.352291"
       x="118.82771"
       y="40.648178" />
    <rect
       style="fill:#515151;fill-opacity:1;stroke:#000000;stroke-width:2.37071;paint-order:markers stroke fill"
       id="rect219993"
       width="37.670609"
       height="18.352291"
       x="158.29126"
       y="40.648182" />
    <rect
       style="fill:#ff9955;fill-opacity:1;stroke:#000000;stroke-width:2.37071;paint-order:markers stroke fill"
       id="rect219995"
       width="37.670609"
       height="18.352291"
       x="197.51126"
       y="40.648182" />
    <rect
       style="fill:#515151;fill-opacity:1;stroke:#000000;stroke-width:2.37071;paint-order:markers stroke fill"
       id="rect219997"
       width="37.670609"
       height="18.352291"
       x="236.71683"
       y="40.648182" />
    <rect
       style="fill:#515151;fill-opacity:1;stroke:#000000;stroke-width:2.37071;paint-order:markers stroke fill"
       id="rect219999"
       width="37.670609"
       height="18.352291"
       x="275.93683"
       y="40.648182" />
    <rect
       style="fill:#515151;fill-opacity:1;stroke:#000000;stroke-width:2.37071;paint-order:markers stroke fill"
       id="rect220001"
       width="37.670609"
       height="18.352291"
       x="315.48941"
       y="40.648182" />
    <rect
       style="fill:#272727;fill-opacity:1;stroke:#000000;stroke-width:2.37071;paint-order:markers stroke fill"
       id="rect220003"
       width="37.670609"
       height="18.352291"
       x="354.70941"
       y="40.648182" />
    <rect
       style="fill:#515151;fill-opacity:1;stroke:#000000;stroke-width:2.37071;paint-order:markers stroke fill"
       id="rect220005"
       width="37.670609"
       height="18.352291"
       x="393.91498"
       y="40.648182" />
    <rect
       style="fill:#ff9955;fill-opacity:1;stroke:#000000;stroke-width:2.37071;paint-order:markers stroke fill"
       id="rect220007"
       width="37.670609"
       height="18.352291"
       x="433.13498"
       y="40.648182" />
    <rect
       style="fill:#515151;fill-opacity:1;stroke:#000000;stroke-width:2.02834;paint-order:markers stroke fill"
       id="rect220009"
       width="27.061451"
       height="18.701181"
       x="472.43054"
       y="40.47374" />
    <rect
       style="fill:#515151;fill-opacity:1;stroke:#000000;stroke-width:2.02834;paint-order:markers stroke fill"
       id="rect220011"
       width="27.061451"
       height="18.701181"
       x="0.71687466"
       y="60.203514" />
    <rect
       style="fill:#515151;fill-opacity:1;stroke:#000000;stroke-width:2.37071;paint-order:markers stroke fill"
       id="rect220013"
       width="37.670609"
       height="18.352291"
       x="29.159742"
       y="60.37796" />
    <rect
       style="fill:#515151;fill-opacity:1;stroke:#000000;stroke-width:2.37071;paint-order:markers stroke fill"
       id="rect220015"
       width="37.670609"
       height="18.352291"
       x="68.365318"
       y="60.37796" />
    <rect
       style="fill:#515151;fill-opacity:1;stroke:#000000;stroke-width:2.37071;paint-order:markers stroke fill"
       id="rect220017"
       width="37.670609"
       height="18.352291"
       x="107.58531"
       y="60.37796" />
    <rect
       style="fill:#515151;fill-opacity:1;stroke:#000000;stroke-width:2.37071;paint-order:markers stroke fill"
       id="rect220019"
       width="37.670609"
       height="18.352291"
       x="147.04887"
       y="60.377964" />
    <rect
       style="fill:#515151;fill-opacity:1;stroke:#000000;stroke-width:2.37071;paint-order:markers stroke fill"
       id="rect220021"
       width="37.670609"
       height="18.352291"
       x="186.26888"
       y="60.377964" />
    <rect
       style="fill:#515151;fill-opacity:1;stroke:#000000;stroke-width:2.37071;paint-order:markers stroke fill"
       id="rect220023"
       width="37.670609"
       height="18.352291"
       x="225.47444"
       y="60.377964" />
    <rect
       style="fill:#515151;fill-opacity:1;stroke:#000000;stroke-width:2.37071;paint-order:markers stroke fill"
       id="rect220025"
       width="37.670609"
       height="18.352291"
       x="264.69443"
       y="60.377964" />
    <rect
       style="fill:#515151;fill-opacity:1;stroke:#000000;stroke-width:2.37071;paint-order:markers stroke fill"
       id="rect220027"
       width="37.670609"
       height="18.352291"
       x="304.24701"
       y="60.377964" />
    <rect
       style="fill:#515151;fill-opacity:1;stroke:#000000;stroke-width:2.37071;paint-order:markers stroke fill"
       id="rect220029"
       width="37.670609"
       height="18.352291"
       x="343.46701"
       y="60.377964" />
    <rect
       style="fill:#515151;fill-opacity:1;stroke:#000000;stroke-width:2.37071;paint-order:markers stroke fill"
       id="rect220031"
       width="37.670609"
       height="18.352291"
       x="382.67258"
       y="60.377964" />
    <rect
       style="fill:#515151;fill-opacity:1;stroke:#000000;stroke-width:2.37071;paint-order:markers stroke fill"
       id="rect220033"
       width="37.670609"
       height="18.352291"
       x="421.89255"
       y="60.377964" />
    <rect
       style="fill:#515151;fill-opacity:1;stroke:#000000;stroke-width:2.37071;paint-order:markers stroke fill"
       id="rect220035"
       width="37.670609"
       height="18.352291"
       x="461.35614"
       y="60.377964" />
    <rect
       style="fill:#515151;fill-opacity:1;stroke:#000000;stroke-width:2.02834;paint-order:markers stroke fill"
       id="rect220037"
       width="27.061451"
       height="18.701181"
       x="0.71687466"
       y="60.203514" />
    <rect
       style="fill:#515151;fill-opacity:1;stroke:#000000;stroke-width:2.37071;paint-order:markers stroke fill"
       id="rect220039"
       width="37.670609"
       height="18.352291"
       x="29.159742"
       y="60.37796" />
    <rect
       style="fill:#ff9955;fill-opacity:1;stroke:#000000;stroke-width:2.37071;paint-order:markers stroke fill"
       id="rect220041"
       width="37.670609"
       height="18.352291"
       x="68.365318"
       y="60.37796" />
    <rect
       style="fill:#272727;fill-opacity:1;stroke:#000000;stroke-width:2.37071;paint-order:markers stroke fill"
       id="rect220043"
       width="37.670609"
       height="18.352291"
       x="107.58531"
       y="60.37796" />
    <rect
       style="fill:#515151;fill-opacity:1;stroke:#000000;stroke-width:2.37071;paint-order:markers stroke fill"
       id="rect220045"
       width="37.670609"
       height="18.352291"
       x="147.04887"
       y="60.377964" />
    <rect
       style="fill:#515151;fill-opacity:1;stroke:#000000;stroke-width:2.37071;paint-order:markers stroke fill"
       id="rect220047"
       width="37.670609"
       height="18.352291"
       x="186.26888"
       y="60.377964" />
    <rect
       style="fill:#515151;fill-opacity:1;stroke:#000000;stroke-width:2.37071;paint-order:markers stroke fill"
       id="rect220049"
       width="37.670609"
       height="18.352291"
       x="225.47444"
       y="60.377964" />
    <rect
       style="fill:#ff9955;fill-opacity:1;stroke:#000000;stroke-width:2.37071;paint-order:markers stroke fill"
       id="rect220051"
       width="37.670609"
       height="18.352291"
       x="264.69443"
       y="60.377964" />
    <rect
       style="fill:#272727;fill-opacity:1;stroke:#000000;stroke-width:2.37071;paint-order:markers stroke fill"
       id="rect220053"
       width="37.670609"
       height="18.352291"
       x="304.24701"
       y="60.377964" />
    <rect
       style="fill:#515151;fill-opacity:1;stroke:#000000;stroke-width:2.37071;paint-order:markers stroke fill"
       id="rect220055"
       width="37.670609"
       height="18.352291"
       x="343.46701"
       y="60.377964" />
    <rect
       style="fill:#ff9955;fill-opacity:1;stroke:#000000;stroke-width:2.37071;paint-order:markers stroke fill"
       id="rect220057"
       width="37.670609"
       height="18.352291"
       x="382.67258"
       y="60.377964" />
    <rect
       style="fill:#515151;fill-opacity:1;stroke:#000000;stroke-width:2.37071;paint-order:markers stroke fill"
       id="rect220059"
       width="37.670609"
       height="18.352291"
       x="421.89255"
       y="60.377964" />
    <rect
       style="fill:#272727;fill-opacity:1;stroke:#000000;stroke-width:2.37071;paint-order:markers stroke fill"
       id="rect220061"
       width="37.670609"
       height="18.352291"
       x="461.35614"
       y="60.377964" />
    <rect
       style="fill:#ff9955;fill-opacity:1;stroke:#000000;stroke-width:2.37071;paint-order:markers stroke fill"
       id="rect220063"
       width="37.670609"
       height="18.352291"
       x="1.1821291"
       y="80.107742" />
    <rect
       style="fill:#272727;fill-opacity:1;stroke:#000000;stroke-width:2.37071;paint-order:markers stroke fill"
       id="rect220065"
       width="37.670609"
       height="18.352291"
       x="40.40213"
       y="80.107742" />
    <rect
       style="fill:#515151;fill-opacity:1;stroke:#000000;stroke-width:2.37071;paint-order:markers stroke fill"
       id="rect220067"
       width="37.670609"
       height="18.352291"
       x="79.607704"
       y="80.107742" />
    <rect
       style="fill:#515151;fill-opacity:1;stroke:#000000;stroke-width:2.37071;paint-order:markers stroke fill"
       id="rect220069"
       width="37.670609"
       height="18.352291"
       x="118.82771"
       y="80.107742" />
    <rect
       style="fill:#ff9955;fill-opacity:1;stroke:#000000;stroke-width:2.37071;paint-order:markers stroke fill"
       id="rect220071"
       width="37.670609"
       height="18.352291"
       x="158.29126"
       y="80.10775" />
    <rect
       style="fill:#515151;fill-opacity:1;stroke:#000000;stroke-width:2.37071;paint-order:markers stroke fill"
       id="rect220073"
       width="37.670609"
       height="18.352291"
       x="197.51126"
       y="80.10775" />
    <rect
       style="fill:#272727;fill-opacity:1;stroke:#000000;stroke-width:2.37071;paint-order:markers stroke fill"
       id="rect220075"
       width="37.670609"
       height="18.352291"
       x="236.71683"
       y="80.10775" />
    <rect
       style="fill:#515151;fill-opacity:1;stroke:#000000;stroke-width:2.37071;paint-order:markers stroke fill"
       id="rect220077"
       width="37.670609"
       height="18.352291"
       x="275.93683"
       y="80.10775" />
    <rect
       style="fill:#ff9955;fill-opacity:1;stroke:#000000;stroke-width:2.37071;paint-order:markers stroke fill"
       id="rect220079"
       width="37.670609"
       height="18.352291"
       x="315.48941"
       y="80.10775" />
    <rect
       style="fill:#515151;fill-opacity:1;stroke:#000000;stroke-width:2.37071;paint-order:markers stroke fill"
       id="rect220081"
       width="37.670609"
       height="18.352291"
       x="354.70941"
       y="80.10775" />
    <rect
       style="fill:#272727;fill-opacity:1;stroke:#000000;stroke-width:2.37071;paint-order:markers stroke fill"
       id="rect220083"
       width="37.670609"
       height="18.352291"
       x="393.91498"
       y="80.10775" />
    <rect
       style="fill:#515151;fill-opacity:1;stroke:#000000;stroke-width:2.37071;paint-order:markers stroke fill"
       id="rect220085"
       width="37.670609"
       height="18.352291"
       x="433.13498"
       y="80.10775" />
    <rect
       style="fill:#ff9955;fill-opacity:1;stroke:#000000;stroke-width:2.02834;paint-order:markers stroke fill"
       id="rect220087"
       width="27.061451"
       height="18.701181"
       x="472.43054"
       y="79.933304" />
    <rect
       style="fill:#404062;fill-opacity:1;stroke:none;stroke-width:1.1918"
       id="rect220269"
       width="100"
       height="100"
       x="0.29729539"
       y="200.00002" />
    <rect
       style="fill:#404062;fill-opacity:1;stroke:none;stroke-width:1.1918"
       id="rect220271"
       width="100"
       height="100"
       x="0.29729539"
       y="200.00002" />
    <rect
       style="fill:#404062;fill-opacity:1;stroke:none;stroke-width:1.1918"
       id="rect220273"
       width="100"
       height="100"
       x="0.29729539"
       y="200.00002" />
    <rect
       style="fill:#515151;fill-opacity:1;stroke:none;stroke-width:2.48971"
       id="rect220275"
       width="436.4054"
       height="100"
       x="0.29729539"
       y="200.00002" />
    <rect
       style="fill:#515151;fill-opacity:1;stroke:none;stroke-width:1.1918"
       id="rect220281"
       width="100"
       height="100"
       x="100.29729"
       y="200.00002" />
    <rect
       style="fill:#515151;fill-opacity:1;stroke:none;stroke-width:1.1918"
       id="rect220283"
       width="100"
       height="100"
       x="400.2973"
       y="200.00002" />
    <rect
       style="fill:#515151;fill-opacity:1;stroke:none;stroke-width:1.1918"
       id="rect220285"
       width="100"
       height="100"
       x="300.2973"
       y="200.00002" />
    <rect
       style="fill:#515151;fill-opacity:1;stroke:none;stroke-width:1.1918"
       id="rect220287"
       width="100"
       height="100"
       x="200.2973"
       y="200.00002" />
    <rect
       style="fill:#515151;fill-opacity:1;stroke:#000000;stroke-width:2.02834;paint-order:markers stroke fill"
       id="rect220311"
       width="27.061451"
       height="18.701181"
       x="1.0141701"
       y="201.01418" />
    <rect
       style="fill:#272727;fill-opacity:1;stroke:#000000;stroke-width:2.37071;paint-order:markers stroke fill"
       id="rect220313"
       width="37.670609"
       height="18.352291"
       x="29.457037"
       y="201.18874" />
    <rect
       style="fill:#515151;fill-opacity:1;stroke:#000000;stroke-width:2.37071;paint-order:markers stroke fill"
       id="rect220315"
       width="37.670609"
       height="18.352291"
       x="68.662613"
       y="201.18874" />
    <rect
       style="fill:#515151;fill-opacity:1;stroke:#000000;stroke-width:2.37071;paint-order:markers stroke fill"
       id="rect220317"
       width="37.670609"
       height="18.352291"
       x="107.88261"
       y="201.18874" />
    <rect
       style="fill:#272727;fill-opacity:1;stroke:#000000;stroke-width:2.37071;paint-order:markers stroke fill"
       id="rect220319"
       width="37.670609"
       height="18.352291"
       x="147.34618"
       y="201.18874" />
    <rect
       style="fill:#ff9955;fill-opacity:1;stroke:#000000;stroke-width:2.37071;paint-order:markers stroke fill"
       id="rect220321"
       width="37.670609"
       height="18.352291"
       x="186.56618"
       y="201.18874" />
    <rect
       style="fill:#515151;fill-opacity:1;stroke:#000000;stroke-width:2.37071;paint-order:markers stroke fill"
       id="rect220323"
       width="37.670609"
       height="18.352291"
       x="225.77174"
       y="201.18874" />
    <rect
       style="fill:#515151;fill-opacity:1;stroke:#000000;stroke-width:2.37071;paint-order:markers stroke fill"
       id="rect220325"
       width="37.670609"
       height="18.352291"
       x="264.99173"
       y="201.18874" />
    <rect
       style="fill:#272727;fill-opacity:1;stroke:#000000;stroke-width:2.37071;paint-order:markers stroke fill"
       id="rect220327"
       width="37.670609"
       height="18.352291"
       x="304.54431"
       y="201.18874" />
    <rect
       style="fill:#515151;fill-opacity:1;stroke:#000000;stroke-width:2.37071;paint-order:markers stroke fill"
       id="rect220329"
       width="37.670609"
       height="18.352291"
       x="343.76431"
       y="201.18874" />
    <rect
       style="fill:#ff9955;fill-opacity:1;stroke:#000000;stroke-width:2.37071;paint-order:markers stroke fill"
       id="rect220331"
       width="37.670609"
       height="18.352291"
       x="382.96988"
       y="201.18874" />
    <rect
       style="fill:#515151;fill-opacity:1;stroke:#000000;stroke-width:2.37071;paint-order:markers stroke fill"
       id="rect220333"
       width="37.670609"
       height="18.352291"
       x="422.18985"
       y="201.18874" />
    <rect
       style="fill:#272727;fill-opacity:1;stroke:#000000;stroke-width:2.37071;paint-order:markers stroke fill"
       id="rect220335"
       width="37.670609"
       height="18.352291"
       x="461.65344"
       y="201.18874" />
    <rect
       style="fill:#515151;fill-opacity:1;stroke:#000000;stroke-width:2.37071;paint-order:markers stroke fill"
       id="rect220337"
       width="37.670609"
       height="18.352291"
       x="1.4794245"
       y="220.91861" />
    <rect
       style="fill:#ff9955;fill-opacity:1;stroke:#000000;stroke-width:2.37071;paint-order:markers stroke fill"
       id="rect220339"
       width="37.670609"
       height="18.352291"
       x="40.699425"
       y="220.91861" />
    <rect
       style="fill:#515151;fill-opacity:1;stroke:#000000;stroke-width:2.37071;paint-order:markers stroke fill"
       id="rect220341"
       width="37.670609"
       height="18.352291"
       x="79.904999"
       y="220.91861" />
    <rect
       style="fill:#515151;fill-opacity:1;stroke:#000000;stroke-width:2.37071;paint-order:markers stroke fill"
       id="rect220343"
       width="37.670609"
       height="18.352291"
       x="119.12501"
       y="220.91861" />
    <rect
       style="fill:#515151;fill-opacity:1;stroke:#000000;stroke-width:2.37071;paint-order:markers stroke fill"
       id="rect220345"
       width="37.670609"
       height="18.352291"
       x="158.58856"
       y="220.91861" />
    <rect
       style="fill:#515151;fill-opacity:1;stroke:#000000;stroke-width:2.37071;paint-order:markers stroke fill"
       id="rect220347"
       width="37.670609"
       height="18.352291"
       x="197.80856"
       y="220.91861" />
    <rect
       style="fill:#272727;fill-opacity:1;stroke:#000000;stroke-width:2.37071;paint-order:markers stroke fill"
       id="rect220349"
       width="37.670609"
       height="18.352291"
       x="237.01413"
       y="220.91861" />
    <rect
       style="fill:#515151;fill-opacity:1;stroke:#000000;stroke-width:2.37071;paint-order:markers stroke fill"
       id="rect220351"
       width="37.670609"
       height="18.352291"
       x="276.23413"
       y="220.91861" />
    <rect
       style="fill:#ff9955;fill-opacity:1;stroke:#000000;stroke-width:2.37071;paint-order:markers stroke fill"
       id="rect220353"
       width="37.670609"
       height="18.352291"
       x="315.78671"
       y="220.91861" />
    <rect
       style="fill:#272727;fill-opacity:1;stroke:#000000;stroke-width:2.37071;paint-order:markers stroke fill"
       id="rect220355"
       width="37.670609"
       height="18.352291"
       x="355.00671"
       y="220.91861" />
    <rect
       style="fill:#515151;fill-opacity:1;stroke:#000000;stroke-width:2.37071;paint-order:markers stroke fill"
       id="rect220357"
       width="37.670609"
       height="18.352291"
       x="394.21228"
       y="220.91861" />
    <rect
       style="fill:#ff9955;fill-opacity:1;stroke:#000000;stroke-width:2.37071;paint-order:markers stroke fill"
       id="rect220359"
       width="37.670609"
       height="18.352291"
       x="433.43228"
       y="220.91861" />
    <rect
       style="fill:#515151;fill-opacity:1;stroke:#000000;stroke-width:2.02834;paint-order:markers stroke fill"
       id="rect220361"
       width="27.061451"
       height="18.701181"
       x="472.72784"
       y="220.74417" />
    <rect
       style="fill:#515151;fill-opacity:1;stroke:#000000;stroke-width:2.02834;paint-order:markers stroke fill"
       id="rect220363"
       width="27.061451"
       height="18.701181"
       x="1.0141701"
       y="240.47417" />
    <rect
       style="fill:#515151;fill-opacity:1;stroke:#000000;stroke-width:2.37071;paint-order:markers stroke fill"
       id="rect220365"
       width="37.670609"
       height="18.352291"
       x="29.457037"
       y="240.64848" />
    <rect
       style="fill:#515151;fill-opacity:1;stroke:#000000;stroke-width:2.37071;paint-order:markers stroke fill"
       id="rect220367"
       width="37.670609"
       height="18.352291"
       x="68.662613"
       y="240.64848" />
    <rect
       style="fill:#515151;fill-opacity:1;stroke:#000000;stroke-width:2.37071;paint-order:markers stroke fill"
       id="rect220369"
       width="37.670609"
       height="18.352291"
       x="107.88261"
       y="240.64848" />
    <rect
       style="fill:#515151;fill-opacity:1;stroke:#000000;stroke-width:2.37071;paint-order:markers stroke fill"
       id="rect220371"
       width="37.670609"
       height="18.352291"
       x="147.34618"
       y="240.64848" />
    <rect
       style="fill:#515151;fill-opacity:1;stroke:#000000;stroke-width:2.37071;paint-order:markers stroke fill"
       id="rect220373"
       width="37.670609"
       height="18.352291"
       x="186.56618"
       y="240.64848" />
    <rect
       style="fill:#515151;fill-opacity:1;stroke:#000000;stroke-width:2.37071;paint-order:markers stroke fill"
       id="rect220375"
       width="37.670609"
       height="18.352291"
       x="225.77174"
       y="240.64848" />
    <rect
       style="fill:#515151;fill-opacity:1;stroke:#000000;stroke-width:2.37071;paint-order:markers stroke fill"
       id="rect220377"
       width="37.670609"
       height="18.352291"
       x="264.99173"
       y="240.64848" />
    <rect
       style="fill:#515151;fill-opacity:1;stroke:#000000;stroke-width:2.37071;paint-order:markers stroke fill"
       id="rect220379"
       width="37.670609"
       height="18.352291"
       x="304.54431"
       y="240.64848" />
    <rect
       style="fill:#515151;fill-opacity:1;stroke:#000000;stroke-width:2.37071;paint-order:markers stroke fill"
       id="rect220381"
       width="37.670609"
       height="18.352291"
       x="343.76431"
       y="240.64848" />
    <rect
       style="fill:#515151;fill-opacity:1;stroke:#000000;stroke-width:2.37071;paint-order:markers stroke fill"
       id="rect220383"
       width="37.670609"
       height="18.352291"
       x="382.96988"
       y="240.64848" />
    <rect
       style="fill:#515151;fill-opacity:1;stroke:#000000;stroke-width:2.37071;paint-order:markers stroke fill"
       id="rect220385"
       width="37.670609"
       height="18.352291"
       x="422.18985"
       y="240.64848" />
    <rect
       style="fill:#515151;fill-opacity:1;stroke:#000000;stroke-width:2.37071;paint-order:markers stroke fill"
       id="rect220387"
       width="37.670609"
       height="18.352291"
       x="461.65344"
       y="240.64848" />
    <rect
       style="fill:#272727;fill-opacity:1;stroke:#000000;stroke-width:2.02834;paint-order:markers stroke fill"
       id="rect220389"
       width="27.061451"
       height="18.701181"
       x="1.0141701"
       y="240.47417" />
    <rect
       style="fill:#515151;fill-opacity:1;stroke:#000000;stroke-width:2.37071;paint-order:markers stroke fill"
       id="rect220391"
       width="37.670609"
       height="18.352291"
       x="29.457037"
       y="240.64848" />
    <rect
       style="fill:#515151;fill-opacity:1;stroke:#000000;stroke-width:2.37071;paint-order:markers stroke fill"
       id="rect220393"
       width="37.670609"
       height="18.352291"
       x="68.662613"
       y="240.64848" />
    <rect
       style="fill:#272727;fill-opacity:1;stroke:#000000;stroke-width:2.37071;paint-order:markers stroke fill"
       id="rect220395"
       width="37.670609"
       height="18.352291"
       x="107.88261"
       y="240.64848" />
    <rect
       style="fill:#ff9955;fill-opacity:1;stroke:#000000;stroke-width:2.37071;paint-order:markers stroke fill"
       id="rect220397"
       width="37.670609"
       height="18.352291"
       x="147.34618"
       y="240.64848" />
    <rect
       style="fill:#515151;fill-opacity:1;stroke:#000000;stroke-width:2.37071;paint-order:markers stroke fill"
       id="rect220399"
       width="37.670609"
       height="18.352291"
       x="186.56618"
       y="240.64848" />
    <rect
       style="fill:#515151;fill-opacity:1;stroke:#000000;stroke-width:2.37071;paint-order:markers stroke fill"
       id="rect220401"
       width="37.670609"
       height="18.352291"
       x="225.77174"
       y="240.64848" />
    <rect
       style="fill:#515151;fill-opacity:1;stroke:#000000;stroke-width:2.37071;paint-order:markers stroke fill"
       id="rect220403"
       width="37.670609"
       height="18.352291"
       x="264.99173"
       y="240.64848" />
    <rect
       style="fill:#272727;fill-opacity:1;stroke:#000000;stroke-width:2.37071;paint-order:markers stroke fill"
       id="rect220405"
       width="37.670609"
       height="18.352291"
       x="304.54431"
       y="240.64848" />
    <rect
       style="fill:#515151;fill-opacity:1;stroke:#000000;stroke-width:2.37071;paint-order:markers stroke fill"
       id="rect220407"
       width="37.670609"
       height="18.352291"
       x="343.76431"
       y="240.64848" />
    <rect
       style="fill:#ff9955;fill-opacity:1;stroke:#000000;stroke-width:2.37071;paint-order:markers stroke fill"
       id="rect220409"
       width="37.670609"
       height="18.352291"
       x="382.96988"
       y="240.64848" />
    <rect
       style="fill:#515151;fill-opacity:1;stroke:#000000;stroke-width:2.37071;paint-order:markers stroke fill"
       id="rect220411"
       width="37.670609"
       height="18.352291"
       x="422.18985"
       y="240.64848" />
    <rect
       style="fill:#515151;fill-opacity:1;stroke:#000000;stroke-width:2.37071;paint-order:markers stroke fill"
       id="rect220413"
       width="37.670609"
       height="18.352291"
       x="461.65344"
       y="240.64848" />
    <rect
       style="fill:#515151;fill-opacity:1;stroke:#000000;stroke-width:2.02834;paint-order:markers stroke fill"
       id="rect220363-5"
       width="27.061451"
       height="18.701181"
       x="1.0141701"
       y="280.01416" />
    <rect
       style="fill:#515151;fill-opacity:1;stroke:#000000;stroke-width:2.37071;paint-order:markers stroke fill"
       id="rect220365-8"
       width="37.670609"
       height="18.352291"
       x="29.457026"
       y="280.18848" />
    <rect
       style="fill:#515151;fill-opacity:1;stroke:#000000;stroke-width:2.37071;paint-order:markers stroke fill"
       id="rect220367-0"
       width="37.670609"
       height="18.352291"
       x="68.662621"
       y="280.18848" />
    <rect
       style="fill:#515151;fill-opacity:1;stroke:#000000;stroke-width:2.37071;paint-order:markers stroke fill"
       id="rect220369-2"
       width="37.670609"
       height="18.352291"
       x="107.88259"
       y="280.18848" />
    <rect
       style="fill:#515151;fill-opacity:1;stroke:#000000;stroke-width:2.37071;paint-order:markers stroke fill"
       id="rect220371-7"
       width="37.670609"
       height="18.352291"
       x="147.34619"
       y="280.18848" />
    <rect
       style="fill:#515151;fill-opacity:1;stroke:#000000;stroke-width:2.37071;paint-order:markers stroke fill"
       id="rect220373-5"
       width="37.670609"
       height="18.352291"
       x="186.56619"
       y="280.18848" />
    <rect
       style="fill:#515151;fill-opacity:1;stroke:#000000;stroke-width:2.37071;paint-order:markers stroke fill"
       id="rect220375-4"
       width="37.670609"
       height="18.352291"
       x="225.77176"
       y="280.18848" />
    <rect
       style="fill:#515151;fill-opacity:1;stroke:#000000;stroke-width:2.37071;paint-order:markers stroke fill"
       id="rect220377-5"
       width="37.670609"
       height="18.352291"
       x="264.99173"
       y="280.18848" />
    <rect
       style="fill:#515151;fill-opacity:1;stroke:#000000;stroke-width:2.37071;paint-order:markers stroke fill"
       id="rect220379-4"
       width="37.670609"
       height="18.352291"
       x="304.54434"
       y="280.18848" />
    <rect
       style="fill:#515151;fill-opacity:1;stroke:#000000;stroke-width:2.37071;paint-order:markers stroke fill"
       id="rect220381-1"
       width="37.670609"
       height="18.352291"
       x="343.76431"
       y="280.18848" />
    <rect
       style="fill:#515151;fill-opacity:1;stroke:#000000;stroke-width:2.37071;paint-order:markers stroke fill"
       id="rect220383-8"
       width="37.670609"
       height="18.352291"
       x="382.96988"
       y="280.18848" />
    <rect
       style="fill:#515151;fill-opacity:1;stroke:#000000;stroke-width:2.37071;paint-order:markers stroke fill"
       id="rect220385-1"
       width="37.670609"
       height="18.352291"
       x="422.18985"
       y="280.18848" />
    <rect
       style="fill:#515151;fill-opacity:1;stroke:#000000;stroke-width:2.37071;paint-order:markers stroke fill"
       id="rect220387-4"
       width="37.670609"
       height="18.352291"
       x="461.65347"
       y="280.18848" />
    <rect
       style="fill:#ff9955;fill-opacity:1;stroke:#000000;stroke-width:2.02834;paint-order:markers stroke fill"
       id="rect220389-8"
       width="27.061451"
       height="18.701181"
       x="1.0141701"
       y="280.01416" />
    <rect
       style="fill:#272727;fill-opacity:1;stroke:#000000;stroke-width:2.37071;paint-order:markers stroke fill"
       id="rect220391-9"
       width="37.670609"
       height="18.352291"
       x="29.457026"
       y="280.18848" />
    <rect
       style="fill:#515151;fill-opacity:1;stroke:#000000;stroke-width:2.37071;paint-order:markers stroke fill"
       id="rect220393-7"
       width="37.670609"
       height="18.352291"
       x="68.662621"
       y="280.18848" />
    <rect
       style="fill:#272727;fill-opacity:1;stroke:#000000;stroke-width:2.37071;paint-order:markers stroke fill"
       id="rect220395-4"
       width="37.670609"
       height="18.352291"
       x="107.88259"
       y="280.18848" />
    <rect
       style="fill:#515151;fill-opacity:1;stroke:#000000;stroke-width:2.37071;paint-order:markers stroke fill"
       id="rect220397-4"
       width="37.670609"
       height="18.352291"
       x="147.34619"
       y="280.18848" />
    <rect
       style="fill:#515151;fill-opacity:1;stroke:#000000;stroke-width:2.37071;paint-order:markers stroke fill"
       id="rect220399-4"
       width="37.670609"
       height="18.352291"
       x="186.56619"
       y="280.18848" />
    <rect
       style="fill:#ff9955;fill-opacity:1;stroke:#000000;stroke-width:2.37071;paint-order:markers stroke fill"
       id="rect220401-8"
       width="37.670609"
       height="18.352291"
       x="225.77176"
       y="280.18848" />
    <rect
       style="fill:#272727;fill-opacity:1;stroke:#000000;stroke-width:2.37071;paint-order:markers stroke fill"
       id="rect220403-9"
       width="37.670609"
       height="18.352291"
       x="264.99173"
       y="280.18848" />
    <rect
       style="fill:#515151;fill-opacity:1;stroke:#000000;stroke-width:2.37071;paint-order:markers stroke fill"
       id="rect220405-3"
       width="37.670609"
       height="18.352291"
       x="304.54434"
       y="280.18848" />
    <rect
       style="fill:#272727;fill-opacity:1;stroke:#000000;stroke-width:2.37071;paint-order:markers stroke fill"
       id="rect220407-3"
       width="37.670609"
       height="18.352291"
       x="343.76431"
       y="280.18848" />
    <rect
       style="fill:#515151;fill-opacity:1;stroke:#000000;stroke-width:2.37071;paint-order:markers stroke fill"
       id="rect220409-8"
       width="37.670609"
       height="18.352291"
       x="382.96988"
       y="280.18848" />
    <rect
       style="fill:#515151;fill-opacity:1;stroke:#000000;stroke-width:2.37071;paint-order:markers stroke fill"
       id="rect220411-6"
       width="37.670609"
       height="18.352291"
       x="422.18985"
       y="280.18848" />
    <rect
       style="fill:#ff9955;fill-opacity:1;stroke:#000000;stroke-width:2.37071;paint-order:markers stroke fill"
       id="rect220413-1"
       width="37.670609"
       height="18.352291"
       x="461.65347"
       y="280.18848" />
    <rect
       style="fill:#515151;fill-opacity:1;stroke:#000000;stroke-width:2.37071;paint-order:markers stroke fill"
       id="rect220415"
       width="37.670609"
       height="18.352291"
       x="1.4794245"
       y="260.37747" />
    <rect
       style="fill:#515151;fill-opacity:1;stroke:#000000;stroke-width:2.37071;paint-order:markers stroke fill"
       id="rect220417"
       width="37.670609"
       height="18.352291"
       x="40.699425"
       y="260.37747" />
    <rect
       style="fill:#515151;fill-opacity:1;stroke:#000000;stroke-width:2.37071;paint-order:markers stroke fill"
       id="rect220419"
       width="37.670609"
       height="18.352291"
       x="79.904999"
       y="260.37747" />
    <rect
       style="fill:#515151;fill-opacity:1;stroke:#000000;stroke-width:2.37071;paint-order:markers stroke fill"
       id="rect220421"
       width="37.670609"
       height="18.352291"
       x="119.12501"
       y="260.37747" />
    <rect
       style="fill:#ff9955;fill-opacity:1;stroke:#000000;stroke-width:2.37071;paint-order:markers stroke fill"
       id="rect220423"
       width="37.670609"
       height="18.352291"
       x="158.58856"
       y="260.37747" />
    <rect
       style="fill:#272727;fill-opacity:1;stroke:#000000;stroke-width:2.37071;paint-order:markers stroke fill"
       id="rect220425"
       width="37.670609"
       height="18.352291"
       x="197.80856"
       y="260.37747" />
    <rect
       style="fill:#515151;fill-opacity:1;stroke:#000000;stroke-width:2.37071;paint-order:markers stroke fill"
       id="rect220427"
       width="37.670609"
       height="18.352291"
       x="237.01413"
       y="260.37747" />
    <rect
       style="fill:#515151;fill-opacity:1;stroke:#000000;stroke-width:2.37071;paint-order:markers stroke fill"
       id="rect220429"
       width="37.670609"
       height="18.352291"
       x="276.23413"
       y="260.37747" />
    <rect
       style="fill:#ff9955;fill-opacity:1;stroke:#000000;stroke-width:2.37071;paint-order:markers stroke fill"
       id="rect220431"
       width="37.670609"
       height="18.352291"
       x="315.78671"
       y="260.37747" />
    <rect
       style="fill:#515151;fill-opacity:1;stroke:#000000;stroke-width:2.37071;paint-order:markers stroke fill"
       id="rect220433"
       width="37.670609"
       height="18.352291"
       x="355.00671"
       y="260.37747" />
    <rect
       style="fill:#515151;fill-opacity:1;stroke:#000000;stroke-width:2.37071;paint-order:markers stroke fill"
       id="rect220435"
       width="37.670609"
       height="18.352291"
       x="394.21228"
       y="260.37747" />
    <rect
       style="fill:#272727;fill-opacity:1;stroke:#000000;stroke-width:2.37071;paint-order:markers stroke fill"
       id="rect220437"
       width="37.670609"
       height="18.352291"
       x="433.43228"
       y="260.37747" />
    <rect
       style="fill:#515151;fill-opacity:1;stroke:#000000;stroke-width:2.02834;paint-order:markers stroke fill"
       id="rect220439"
       width="27.061451"
       height="18.701181"
       x="472.72784"
       y="260.20316" />
    <path
       style="fill:#515151;fill-opacity:1;stroke:#000000;stroke-width:7.38155;stroke-dasharray:none"
       id="path190849"
       sodipodi:type="arc"
       sodipodi:cx="615.15625"
       sodipodi:cy="465.19278"
       sodipodi:rx="296.27124"
       sodipodi:ry="246.99019"
       sodipodi:start="0"
       sodipodi:end="3.1415927"
       sodipodi:arc-type="slice"
       d="M 911.42749,465.19278 A 296.27124,246.99019 0 0 1 763.29187,679.09256 296.27124,246.99019 0 0 1 467.02062,679.09255 296.27124,246.99019 0 0 1 318.88501,465.19278 H 615.15625 Z" />
    <path
       style="fill:#ff9955;fill-opacity:1;stroke:#000000;stroke-width:0;stroke-dasharray:none"
       id="path190851"
       d="m 482.24272,676.83604 c 0.5506,-0.8679 1.00361,-1.6412 1.6624,-2.4374 1.33961,-1.6176 2.8,-3.1314 4.18721,-4.7087 6.46559,-7.3514 -0.784,0.8366 5.7092,-6.4832 5.8136,-6.3785 12.29839,-12.132 19.2824,-17.195 5.68719,-4.2209 11.4176,-7.0916 18.10429,-9.3352 9.83411,-3.1754 20.03881,-4.7909 30.2697,-6.0089 12.8422,-1.408 25.7682,-1.6125 38.673,-1.7785 10.3056,-0.04 20.6814,0.3714 30.7914,2.5331 1.6926,0.3619 3.3576,0.8432 5.0364,1.2652 5.7838,1.8056 11.5844,3.7181 16.9806,6.5101 2.8532,1.4761 4.6348,2.6299 7.3936,4.3106 11.154,7.2055 22.2192,14.5511 33.238,21.9621 5.1498,3.3929 10.4022,6.6808 15.1862,10.5876 1.9856,1.7027 3.8036,3.6247 5.418,5.6832 1.049,1.318 2.2406,2.5101 3.371,3.7553 0.1281,0.142 0.3876,0.2518 0.3644,0.4414 -0.02,0.18 -0.3116,-0.228 -0.3696,-0.398 -0.854,-2.5189 -1.567,-5.0837 -2.3506,-7.625 2.3008,-7.1456 0.6564,-5.5693 6.0837,-10.0638 0.3337,-0.2758 0.7975,-0.3458 1.1693,-0.5687 0.038,-0.03 -0.072,-0.063 -0.1166,-0.063 -0.3169,0 -0.6327,0.042 -0.9496,0.059 -0.4895,0.03 -0.9794,0.042 -1.4691,0.066 -5.9663,0.084 -11.8775,0.927 -17.7865,1.671 -6.2802,0.7728 -12.5198,1.8063 -18.8116,2.4892 -5.9736,0.8783 -11.986,1.4387 -17.9748,2.1971 -5.5504,0.6026 -11.0554,1.4557 -16.5472,2.4472 -5.1302,0.9851 -10.3098,1.6363 -15.5,2.212 -5.7498,0.4787 -11.5204,0.711 -17.283,1.007 -5.8782,0.2907 -11.7638,0.3568 -17.6478,0.4006 -5.2058,-0.082 -10.397,0.3169 -15.5966,0.4938 -6.2152,0.198 -12.4338,0.2546 -18.6516,0.2848 -4.8648,0.162 -9.7155,-0.148 -14.5678,-0.4299 -4.2515,-0.1739 -8.4106,-1.0494 -12.5612,-1.921 -7.3814,-1.345 -14.6982,-2.9841 -21.9228,-5.0059 -5.272,-1.3594 -10.4312,-2.9748 -15.3672,-5.2784 -3.8194,-1.916 -7.3854,-4.2789 -11.1264,-6.3415 -16.4074,-8.9814 -29.1144,14.2127 -12.707,23.1945 v 0 c 4.3026,2.3297 8.3306,5.1532 12.7984,7.1816 6.2314,2.8273 12.666,5.0396 19.3036,6.7186 7.7834,2.1579 15.6495,3.9763 23.5993,5.4142 5.4288,1.1332 10.8854,2.1882 16.4404,2.4376 5.4092,0.3156 10.819,0.6326 16.2411,0.4746 6.4764,-0.034 12.9536,-0.09 19.4272,-0.2998 4.9638,-0.172 9.9176,-0.5555 14.8868,-0.4792 6.2716,-0.048 12.5446,-0.124 18.8096,-0.4348 6.2858,-0.3228 12.581,-0.5705 18.8498,-1.1344 5.7856,-0.6448 11.5578,-1.3889 17.2794,-2.4713 5.0386,-0.9103 10.0882,-1.6938 15.1832,-2.2371 5.8318,-0.746 11.6908,-1.2716 17.507,-2.142 6.4358,-0.7061 12.8232,-1.73 19.2452,-2.5405 5.255,-0.6614 10.508,-1.4454 15.8155,-1.497 6.356,-0.3444 13.3547,-1.0194 17.5093,-6.7826 1.5535,-2.1548 1.895,-4.9629 2.8426,-7.4443 -0.7558,-2.9953 -1.2815,-6.058 -2.2674,-8.9857 -0.5042,-1.497 -3.5096,-3.9743 -4.6033,-5.4527 -2.8343,-3.4463 -5.8596,-6.758 -9.3248,-9.5856 -5.4194,-4.3581 -11.2205,-8.2067 -17.0619,-11.9727 -11.3678,-7.6452 -22.7792,-15.2302 -34.3014,-22.6412 -3.805,-2.2918 -5.8152,-3.5999 -9.8144,-5.6093 -7.0038,-3.5189 -14.4514,-6.0655 -21.9564,-8.2736 -2.2402,-0.5401 -4.4642,-1.1538 -6.7208,-1.6207 -11.7522,-2.4313 -23.7874,-3.0027 -35.7578,-2.938 -13.8476,0.18 -27.717,0.4273 -41.4949,1.9658 -12.0936,1.4715 -24.1513,3.4413 -35.7552,7.2732 -1.6716,0.5896 -3.363,1.1262 -5.0149,1.7684 -7.1788,2.7915 -13.8094,6.7662 -20.0672,11.2205 -8.4598,6.2346 -16.4128,13.1638 -23.4496,20.9889 -6.533,7.3668 0.4198,-0.4896 -5.7336,6.5104 -2.992,3.404 -6.154,6.7175 -8.4638,10.6466 -9.91441,15.8568 12.5194,29.8724 22.4338,14.0157 z" />
    <path
       style="fill:#ff9955;fill-opacity:1;stroke:none;stroke-width:0;stroke-dasharray:none"
       id="path190853"
       d="m 574.65233,707.49024 c -0.7106,0.03 -1.42191,0 -2.1314,0.054 -0.1039,0 0.20259,0.036 0.3042,0.053 0.2142,0.036 0.4294,0.07 0.6428,0.112 0.763,0.148 1.52139,0.3308 2.28229,0.4887 1.8851,0.4712 3.79871,0.80939 5.7233,1.06899 1.0072,0.148 2.0254,0.1619 3.03921,0.2187 0.50379,0.03 1.03279,0.1121 1.535,0.1621 2.47559,0.252 4.951,0.5046 7.43359,0.6786 2.7786,0.172 5.56501,0.066 8.3436,-0.052 2.5924,-0.088 5.1826,-0.225 7.7728,-0.3588 2.08041,-0.118 4.1632,-0.174 6.2464,-0.2011 2.2128,-0.03 4.425,-0.03 6.6364,0.054 2.042,0.07 4.0762,0.2698 6.1146,0.4 1.9162,0.112 3.836,0.112 5.7544,0.118 2.091,0 4.1806,0 6.27,-0.065 2.3232,-0.126 4.637,-0.3678 6.9566,-0.5403 3.8198,-0.2968 7.6198,-0.77859 11.3878,-1.46859 2.9402,-0.5301 5.851,-1.2065 8.784,-1.7758 1.5982,-0.366 3.2196,-0.5638 4.8476,-0.7262 2.1428,-0.2366 4.291,-0.415 6.4332,-0.6558 2.2194,-0.108 4.435,-0.231 6.6492,-0.424 2.147,-0.172 4.296,-0.314 6.4408,-0.5119 1.956,-0.1299 3.7966,-0.5604 5.651,-1.1992 0.7938,-0.2727 1.6326,-0.6664 2.4018,-1.0106 1.6282,-0.7006 3.0484,-1.7603 4.5448,-2.6869 0.068,-0.04 0.1321,-0.082 0.2016,-0.1199 0.02,0 0,0.03 -0.02,0.03 -0.072,0.046 -0.146,0.084 -0.219,0.126 -0.02,0 -0.074,0.046 -0.054,0.036 0.18,-0.076 0.3582,-0.156 0.5372,-0.2309 -0.02,0.04 -0.7288,0.2699 -0.5396,0.225 0.2448,-0.059 0.4796,-0.1539 0.72,-0.228 0.4428,-0.138 0.8866,-0.27 1.3386,-0.373 1.5294,-0.4138 3.0744,-0.7616 4.6092,-1.1526 1.4332,-0.4002 2.8982,-0.6754 4.328,-1.0897 0.4826,-0.1419 0.9602,-0.2969 1.4402,-0.4449 5.9688,-1.9435 9.4826,-4.006 10.5837,-14.1464 0.4277,-3.9419 -3.6431,-7.069 -5.8885,-10.3381 -0.2537,-0.3694 -4.1058,-2.6564 -4.5128,-2.904 -2.383,-1.3936 -4.8468,-2.6412 -7.3334,-3.8379 -1.0346,-0.498 -2.6992,-1.284 -3.7644,-1.7076 -0.8294,-0.33 -1.6752,-0.617 -2.513,-0.9257 -4.963,-1.6336 -10.0516,-2.8907 -14.9586,-4.6961 -0.558,-0.207 -1.1026,-0.4447 -1.6538,-0.6672 -0.6692,-0.4644 -1.3904,-0.8512 -2.055,-1.322 -0.8794,-0.6228 -2.6208,-2.0761 -3.3162,-2.6611 -1.907,-1.6042 -3.0234,-2.5959 -4.9092,-4.2437 -2.9844,-2.5725 -5.857,-5.2899 -9.1682,-7.4509 -2.0672,-1.3493 -3.7194,-2.2029 -5.8612,-3.3743 -3.2904,-1.8213 -6.6592,-3.5115 -9.8623,-5.486 -0.2453,-0.156 -0.4957,-0.3072 -0.7354,-0.4724 -0.1301,-0.09 -0.5487,-0.4596 -0.6459,-0.5366 -0.3852,-0.3062 -0.7681,-0.6153 -1.1653,-0.9054 -1.5249,-1.1143 -2.1422,-1.4981 -3.6739,-2.5087 -2.8094,-1.8064 -5.7416,-3.4892 -8.9219,-4.5611 -2.8687,-0.9665 -4.1945,-1.1625 -7.1016,-1.7764 -1.2191,-0.2009 -2.4357,-0.4191 -3.6575,-0.6044 -2.5297,-0.3847 -5.5959,-0.7817 -8.1287,-1.0177 -4.6898,-0.4366 -9.3964,-0.6474 -14.0999,-0.8682 -6.9193,-0.2338 -13.8427,0 -20.7619,0.126 -7.5374,0.124 -15.0758,0.126 -22.614,0.138 -5.1431,0.2638 -6.9203,0.2368 -12.1043,1.0127 -2.3826,0.3564 -4.7502,0.8109 -7.1112,1.2897 -6.3876,1.2951 -12.678,2.9857 -18.9608,4.7037 -4.3844,1.2915 -8.687,2.8457 -12.9106,4.589 -0.9172,0.379 -1.836,0.7552 -2.7334,1.1781 -2.4248,1.1427 -2.8772,1.4719 -5.0602,2.762 -2.5774,1.6524 -5.043,3.5071 -7.0266,5.8619 -1.209,1.4359 -1.7764,2.4051 -2.742,3.9105 -1.2144,1.8973 -2.2088,3.9203 -3.3086,5.8831 -0.192,0.3424 -0.3906,0.6813 -0.586,1.0219 -0.234,0.4184 -0.468,0.8368 -0.7018,1.2554 -1.9138,3.7079 -3.0744,7.1953 -2.5534,11.5131 0.437,3.6231 1.4726,4.7163 3.227,7.6672 0.868,0.9354 1.6822,1.9232 2.6038,2.8058 1.6568,1.5859 3.6564,2.8531 5.6198,4.0007 2.3412,1.3687 5.0264,2.6032 7.6058,3.3696 2.0252,0.6019 4.1178,0.9477 6.1766,1.4214 2.3676,0.3053 4.7298,0.6568 7.103,0.9156 3.647,0.3976 10.0296,0.8446 13.6938,1.1198 6.7206,0.505 13.4416,0.9937 20.1656,1.4496 1.9544,0.148 3.91,0.282 5.8632,0.4446 3.9409,0.3306 6.1611,0.5635 10.0365,1.0424 3.0868,0.3666 6.1598,0.8403 9.2444,1.2237 1.5538,0.192 3.1108,0.359 4.6662,0.5386 1.5766,0.156 3.1524,0.3225 4.73,0.4686 1.71,0.16 3.4226,0.2909 5.133,0.4458 5.8564,0.5345 11.7029,1.1717 17.5696,1.5904 2.4542,0.1741 4.9118,0.3025 7.3676,0.4535 11.3523,0.249 22.7683,0.2368 34.0507,-1.2303 5.8882,-0.7653 7.3046,-1.207 12.8614,-2.4562 4.0304,-1.1086 8.0578,-2.3236 11.8754,-4.0479 0.897,-0.4052 1.8978,-0.6762 2.6402,-1.3223 2.1394,-1.8613 5.5692,-3.3034 5.911,-6.118 0.6882,-5.6684 -2.0818,-11.2286 -3.1228,-16.8425 -1.9072,-1.2514 -3.7198,-2.6604 -5.7216,-3.7547 -1.8952,-1.036 -7.4288,-2.9623 -9.5154,-3.6509 -4.6846,-1.5458 -9.4492,-2.807 -14.2162,-4.0664 -6.0642,-1.5529 -12.0805,-3.2919 -18.16959,-4.7483 -3.8196,-0.9133 -5.1781,-1.1693 -8.9691,-1.9602 -6.26251,-1.2755 -12.626,-2.0582 -19.0174,-2.2416 -3.7475,-0.108 -7.1354,0 -10.8792,0.094 -1.7052,0.072 -3.4116,0.1139 -5.1152,0.2127 -3.9202,0.228 -6.6452,0.4861 -10.5424,1.0084 -4.6718,0.6265 -9.3144,1.4877 -13.9594,2.2823 -3.613,0.5332 -3.5916,0.6148 -7.1615,0.8184 -1.2036,0.07 -2.409,0.132 -3.6146,0.1301 -2.83,0 -4.5876,-0.2461 -7.4256,-0.4331 -1.3648,-0.09 -2.7312,-0.15 -4.0966,-0.228 -2.6918,-0.12 -5.3862,-0.184 -8.0808,-0.18 -1.4652,0 -1.309,0.156 -2.2292,-0.172 -2.2756,-0.516 -4.505,-1.229 -6.7982,-1.6691 -0.6962,-0.136 -1.3984,-0.2339 -2.0976,-0.3499 -0.5794,-0.076 -1.1586,-0.148 -1.738,-0.2189 -18.568,-2.2706 -21.7806,23.9782 -3.2124,26.2489 v 0 c 0.2814,0.032 0.563,0.063 0.8444,0.096 0.931,0.118 1.7924,0.328 2.7042,0.5656 1.912,0.4976 3.8248,0.992 5.7626,1.3825 0.8996,0.138 1.7938,0.3161 2.6986,0.4138 2.0406,0.219 2.2808,0.1539 3.9718,0.148 1.298,0 2.557,0 3.8584,0.042 0.9562,0.03 1.9116,0.064 2.8676,0.096 1.2038,0.066 2.4086,0.1199 3.6118,0.196 1.6468,0.1059 3.2898,0.2732 4.9382,0.3493 1.8228,0.084 3.648,0.148 5.4726,0.1321 1.613,0 3.2252,-0.1001 4.8344,-0.2068 4.6395,-0.3133 4.9927,-0.4488 9.3553,-1.1 4.2,-0.7189 8.3974,-1.5025 12.6188,-2.0881 3.1602,-0.4384 5.334,-0.6556 8.5316,-0.8469 1.5278,-0.09 3.0582,-0.1319 4.5874,-0.1959 2.3474,-0.054 6.4556,-0.1801 8.8904,-0.1241 5.0506,0.1181 10.0805,0.7075 15.0277,1.7239 3.2391,0.6723 4.6869,0.9484 7.9338,1.7226 5.9823,1.4267 11.8898,3.1451 17.8478,4.6659 4.1146,1.0833 8.229,2.1633 12.2786,3.4753 1.2045,0.39 2.397,0.8156 3.592,1.2341 0.7362,0.2577 1.447,0.9924 2.201,0.7932 0.4584,-0.12 -0.5516,-0.7706 -0.8274,-1.1565 -0.317,-4.8703 -1.9466,-9.8331 -0.951,-14.6113 0.444,-2.1312 3.2962,-2.8469 4.8964,-4.3237 0.1759,-0.162 -0.3998,0.2698 -0.6167,0.3744 -0.5603,0.267 -1.1313,0.5137 -1.7103,0.738 -2.3848,0.9244 -3.3174,1.1521 -5.8727,1.9328 -4.0496,0.9509 -5.3265,1.3431 -9.6525,1.9266 -9.8488,1.3282 -19.8218,1.2985 -29.7363,1.1411 -2.2685,-0.138 -4.5381,-0.2518 -6.8046,-0.4128 -4.069,-0.288 -7.93931,-0.6746 -11.99761,-1.06 -1.82169,-0.174 -3.6432,-0.3474 -5.4646,-0.5214 -1.606,-0.138 -3.2128,-0.2698 -4.8178,-0.4166 -1.4372,-0.132 -2.8728,-0.2818 -4.309,-0.4236 -1.394,-0.16 -2.7896,-0.305 -4.182,-0.4782 -11.2772,-1.4031 2.641,0.2308 -9.7196,-1.2828 -4.259,-0.5215 -6.7608,-0.7804 -11.0671,-1.1407 -2.0224,-0.168 -4.0474,-0.3064 -6.071,-0.4594 -6.663,-0.452 -13.3226,-0.9374 -19.982,-1.4369 -3.9568,-0.2968 -8.4894,-0.6086 -12.455,-0.9978 -1.6438,-0.162 -3.2826,-0.3709 -4.9236,-0.556 -1.157,-0.18 -2.8202,-0.335 -3.9994,-0.7976 -0.537,-0.21 -1.0276,-0.5254 -1.5496,-0.771 -0.196,-0.094 -0.4076,-0.154 -0.6054,-0.2428 -0.118,-0.054 -0.3876,-0.311 -0.3424,-0.19 0.124,0.3354 0.401,0.5928 0.6016,0.889 0.8876,1.8009 1.4264,2.5308 1.5558,4.7607 0.068,1.1682 -0.114,2.3409 -0.2808,3.4993 -0.054,0.3708 -0.2338,0.7127 -0.3716,1.061 -0.02,0.03 -0.072,0.084 -0.07,0.054 0.02,-0.094 0.058,-0.1741 0.088,-0.2611 0.8464,-1.5172 0.3822,-0.6918 1.3964,-2.4734 0.8304,-1.4876 1.5824,-3.0193 2.4774,-4.4707 0.6636,-1.1029 0.2888,-0.4604 -0.2282,-0.186 -0.082,0.042 0.1221,-0.1421 0.19,-0.2038 0.3926,-0.3582 0.6384,-0.5127 1.0932,-0.8427 0.5626,-0.3562 1.3196,-0.8564 1.9112,-1.14 0.6723,-0.3226 1.3625,-0.6069 2.0508,-0.8937 3.2955,-1.3732 6.6502,-2.6069 10.0704,-3.6354 5.5692,-1.5286 11.1425,-3.0183 16.7968,-4.2075 1.7863,-0.3758 3.5763,-0.7395 5.3789,-1.0274 3.8856,-0.621 5.1661,-0.6017 9.0502,-0.8309 7.6883,0 15.3771,-0.03 23.0647,-0.142 6.3434,-0.1179 12.6904,-0.3326 19.0346,-0.15 7.2976,0.3395 14.6156,0.6776 21.819,1.9821 0.6378,0.124 1.276,0.243 1.9132,0.368 0.2718,0.054 1.2874,0.228 1.668,0.3786 1.1358,0.4479 2.1742,1.1255 3.2004,1.7726 0.6658,0.4358 1.3512,0.8435 1.9966,1.3089 1.6522,1.192 3.1628,2.5882 4.9576,3.5803 3.5988,2.1916 7.3306,4.1511 11.0326,6.1611 1.2842,0.6925 2.2672,1.2055 3.502,1.9269 0.2942,0.172 0.5962,0.3338 0.869,0.5376 0.5206,0.3888 1.01,0.818 1.5064,1.2374 1.0384,0.8773 3.4568,2.9965 4.3862,3.8073 3.7926,3.3105 7.553,6.7194 11.7596,9.5079 2.421,1.6046 3.5256,2.0482 6.221,3.405 0.9322,0.3624 1.8568,0.7446 2.7964,1.087 4.8072,1.7537 9.7612,3.0686 14.6438,4.5867 0.2956,0.096 0.5964,0.174 0.8864,0.2848 0.7594,0.2878 1.9832,0.8761 2.6634,1.2013 1.7874,0.855 3.563,1.7376 5.283,2.723 0.4676,0.2789 0.932,0.5614 1.4026,0.8343 0.152,0.088 0.5354,0.4114 0.4662,0.249 -1.3086,-3.0583 -4.8672,-5.7754 -4.227,-9.0392 2.467,-12.5774 13.6136,-14.4124 7.7706,-12.4927 -1.3672,0.527 -2.8696,0.6388 -4.2578,1.1006 -1.5326,0.3932 -3.0766,0.7386 -4.604,1.1516 -1.8626,0.488 -3.723,1.0179 -5.5092,1.7428 -1.4136,0.6257 -2.8302,1.252 -4.1204,2.1157 -0.497,0.3188 -1.0022,0.6354 -1.4892,0.9699 -0.02,0 0.1641,-0.04 0.188,-0.042 -0.602,0.2941 -0.03,0.066 0.5462,-0.048 0.2048,-0.042 0.4128,-0.064 0.62,-0.09 0.034,0 -0.068,0.03 -0.104,0.03 -0.2124,0.03 -0.4258,0.042 -0.6386,0.063 -2.0912,0.207 -4.1908,0.3143 -6.284,0.4975 -0.6572,0.06 -1.313,0.1319 -1.9712,0.174 -1.7704,0.1179 -3.5498,0.102 -5.3136,0.3141 -2.0326,0.2309 -4.0714,0.3929 -6.1042,0.6211 -2.439,0.2458 -4.8682,0.5642 -7.2665,1.0816 -2.8603,0.5576 -5.7011,1.2094 -8.5671,1.7345 -2.8178,0.5364 -5.6684,0.8568 -8.5258,1.0968 -1.9938,0.15 -3.9837,0.3393 -5.9778,0.4852 -1.7355,0.07 -3.472,0.048 -5.2088,0.048 -1.3916,0 -2.7837,0 -4.1741,-0.063 -2.2673,-0.138 -4.5286,-0.3754 -6.8004,-0.4336 -2.6486,-0.094 -5.2975,-0.1081 -7.9475,-0.07 -2.4255,0.034 -4.8506,0.102 -7.2729,0.234 -2.5023,0.1299 -5.0042,0.2638 -7.5086,0.3459 -1.7986,0.076 -3.6024,0.1661 -5.4022,0.09 -2.1914,-0.15 -4.3746,-0.3857 -6.5602,-0.6033 -1.2902,-0.1319 -2.583,-0.2668 -3.8794,-0.3027 -1.2694,-0.138 -2.5074,-0.4616 -3.7508,-0.7376 -3.0084,-0.6209 -5.9918,-1.3377 -9.0986,-1.1261 -18.6137,1.8607 -15.9813,28.17409 2.6324,26.3132 z" />
    <path
       style="fill:none;fill-opacity:1;stroke:#000000;stroke-width:7.38155;stroke-dasharray:none"
       id="path190855"
       sodipodi:type="arc"
       sodipodi:cx="615.15625"
       sodipodi:cy="465.19278"
       sodipodi:rx="296.27124"
       sodipodi:ry="246.99019"
       sodipodi:start="0"
       sodipodi:end="3.1415927"
       sodipodi:arc-type="slice"
       d="M 911.42749,465.19278 A 296.27124,246.99019 0 0 1 763.29187,679.09256 296.27124,246.99019 0 0 1 467.02062,679.09255 296.27124,246.99019 0 0 1 318.88501,465.19278 H 615.15625 Z" />
    <path
       style="fill:#000000;fill-opacity:1;stroke:none;stroke-width:7.38155;stroke-dasharray:none"
       id="path190857"
       d="m 457.16472,670.87254 c 1.0648,-1.4756 2.2058,-2.8925 3.275,-4.3646 1.3234,-1.8442 2.4668,-3.8071 3.8068,-5.64 1.113,-1.4587 2.3922,-2.7792 3.614,-4.1461 1.4422,-1.5938 2.908,-3.1685 4.459,-4.6583 1.4602,-1.421 2.9952,-2.7537 4.5754,-4.0383 1.3962,-1.1006 2.7912,-2.1902 4.115,-3.3777 1.6374,-1.4434 3.4134,-2.7142 5.144,-4.0399 1.6998,-1.3838 3.425,-2.7348 5.0818,-4.1699 1.3966,-1.2392 2.8528,-2.398 4.387,-3.4612 1.9196,-1.3451 3.831,-2.6987 5.8046,-3.9638 1.6534,-0.9972 3.2326,-2.1088 4.855,-3.1545 1.6556,-1.1524 3.3914,-2.1658 5.197,-3.0608 2.1968,-1.0039 4.4552,-1.8631 6.6625,-2.8439 1.6495,-0.7392 3.3217,-1.4382 5.0409,-1.999 1.7637,-0.6705 3.5743,-1.2024 5.4132,-1.6229 1.5892,-0.486 3.2286,-0.6908 4.8581,-0.9734 2.5437,-0.498 5.1046,-0.8949 7.6512,-1.3753 2.0989,-0.3464 4.222,-0.5176 6.3325,-0.7842 3.1545,-0.3026 6.2873,-0.7709 9.4206,-1.2368 2.4336,-0.2788 4.8684,-0.5402 7.301,-0.8286 1.8619,-0.2818 3.7026,-0.6759 5.5611,-0.9825 2.0201,-0.3655 4.0257,-0.7936 6.0511,-1.1305 2.5788,-0.4018 5.1784,-0.6113 7.78241,-0.7541 2.2604,-0.126 4.52419,-0.138 6.7872,-0.144 3.0352,0 6.07039,0 9.1056,0 2.8768,0 5.7536,0 8.63059,0 4.236,0 8.47221,0 12.7082,0 3.01521,-0.063 6.024,0.064 9.0264,0.3292 2.50661,0.186 4.9868,0.5909 7.4588,1.0334 1.7882,0.3581 3.603,0.6045 5.38,1.018 1.0558,0.2461 2.0764,0.5765 3.1124,0.8917 2.9962,0.9392 6.0876,1.556 9.065,2.5502 4.1138,1.3949 7.958,3.4435 11.8542,5.3376 3.1192,1.3628 6.14621,2.899 9.073,4.6361 2.54101,1.7687 5.11121,3.4921 7.6888,5.2071 2.1984,1.5118 4.4802,2.9167 6.605,4.5321 1.47641,1.2677 3.0924,2.3643 4.5924,3.6007 0.4352,0.3588 2.13221,1.9127 2.47261,2.2223 2.859,2.6017 5.67999,5.2455 8.596,7.7844 1.8482,1.4836 3.5602,3.1109 5.252,4.7661 1.62139,1.5212 3.0534,3.2229 4.59059,4.8269 2.762,2.7608 5.7715,5.2597 8.7542,7.7766 1.7236,1.4478 3.5989,2.7009 5.33091,4.136 1.9348,1.7715 3.90509,3.5054 5.60789,5.5059 0.50261,0.7047 1.1446,1.3015 1.6514,2.0026 0.31501,0.4352 0.5589,0.9494 0.807,1.4252 0.582,1.1084 1.0088,2.2878 1.56191,3.4115 0.42939,0.844 0.7489,1.7454 0.98189,2.6624 0.3444,1.0261 0.4495,2.1265 0.9875,3.0857 0.193,0.3434 0.4433,0.6505 0.66511,0.9754 3.2794,4.0829 9.0552,-0.5531 5.7761,-4.6355 v 0 c 0.072,0.142 0.1589,0.276 0.21939,0.4207 0.024,0.053 0.088,0.2038 0.034,0.1779 -0.1769,-0.094 -0.33429,-1.6282 -0.52189,-1.917 -0.3823,-1.4129 -0.86301,-2.8042 -1.5327,-4.1094 -0.6233,-1.1445 -0.9544,-2.4349 -1.6353,-3.553 -0.9345,-1.7308 -2.0591,-3.3078 -3.3765,-4.7703 -1.995,-2.3054 -4.2372,-4.3633 -6.511,-6.3906 -1.7173,-1.4122 -3.5494,-2.6754 -5.2698,-4.0855 -2.7848,-2.348 -5.5942,-4.6793 -8.1849,-7.2426 -1.5931,-1.6584 -3.0715,-3.4248 -4.7561,-4.9942 -1.7948,-1.7553 -3.613,-3.4812 -5.5696,-5.0589 -2.8778,-2.5015 -5.6546,-5.1144 -8.476,-7.6781 -0.8708,-0.7906 -2.0362,-1.8678 -2.9414,-2.6138 -1.517,-1.2504 -3.151,-2.3606 -4.6454,-3.6407 -2.2532,-1.6887 -4.631,-3.2069 -6.9616,-4.785 -2.6856,-1.7872 -5.3538,-3.596 -8.0178,-5.4139 -3.1038,-1.8352 -6.3036,-3.4824 -9.6094,-4.925 -4.1982,-2.0402 -8.3466,-4.2331 -12.7872,-5.7148 -3.0414,-0.9815 -6.162,-1.6848 -9.2242,-2.6005 -1.5552,-0.4686 -2.2344,-0.7002 -3.8268,-1.0696 -1.82001,-0.4225 -3.6782,-0.6768 -5.5096,-1.0423 -2.688,-0.4792 -5.3854,-0.9158 -8.1106,-1.1204 -3.2192,-0.2817 -6.4452,-0.4236 -9.6776,-0.3578 -4.236,0 -8.472,2e-4 -12.7078,0 -2.8752,-4e-4 -5.7504,-4e-4 -8.6256,0 -3.0442,0 -6.0882,0 -9.1322,0 -2.3926,0 -4.7858,0.03 -7.1756,0.1561 -2.874,0.16 -5.7436,0.3955 -8.5892,0.8433 -2.022,0.3367 -4.0254,0.7567 -6.0406,1.1291 -1.7476,0.2878 -3.48081,0.6472 -5.2274,0.9354 -2.5053,0.2966 -5.0138,0.5622 -7.5193,0.8573 -3.0802,0.4586 -6.15971,0.9181 -9.26111,1.2152 -2.2584,0.2877 -4.5318,0.4629 -6.7753,0.8542 -2.5225,0.4758 -5.06,0.8675 -7.5796,1.3614 -1.7469,0.325 -3.5176,0.5218 -5.2244,1.0486 -2.0587,0.48 -4.0958,1.0555 -6.0733,1.8078 -1.9476,0.6513 -3.8566,1.4153 -5.7266,2.2643 -2.30139,1.0277 -4.6666,1.9053 -6.94759,2.9781 -2.04881,1.0214 -4.029,2.1615 -5.9114,3.4675 -1.6184,1.0432 -3.1942,2.1511 -4.8428,3.1467 -2.0504,1.317 -4.0416,2.7172 -6.0354,4.1181 -1.7454,1.219 -3.4164,2.5298 -5.0084,3.9445 -1.5434,1.3402 -3.1572,2.594 -4.7378,3.889 -1.879,1.4439 -3.81,2.8249 -5.5816,4.4033 -1.2342,1.1071 -2.543,2.1129 -3.8418,3.1445 -1.7414,1.4163 -3.4322,2.888 -5.043,4.4527 -1.6778,1.6219 -3.2798,3.3194 -4.8404,5.0542 -1.387,1.551 -2.8376,3.0521 -4.081,4.7243 -1.3372,1.8442 -2.514,3.7925 -3.8196,5.6578 -1.037,1.4418 -2.161,2.8182 -3.19799,4.2596 -3.14261,4.1887 2.78339,8.6317 5.92599,4.4429 z" />
    <rect
       style="fill:#272727;fill-opacity:1;stroke:#000000;stroke-width:8.00113;paint-order:markers stroke fill"
       id="rect220407-3-5"
       width="127.13657"
       height="61.939667"
       x="344.12558"
       y="478.61423" />
    <rect
       style="fill:#272727;fill-opacity:1;stroke:#000000;stroke-width:8.00113;paint-order:markers stroke fill"
       id="rect29776"
       width="127.13657"
       height="61.939667"
       x="385.46674"
       y="511.68716" />
    <rect
       style="fill:#272727;fill-opacity:1;stroke:#000000;stroke-width:8.00113;paint-order:markers stroke fill"
       id="rect29778"
       width="127.13657"
       height="61.939667"
       x="637.64771"
       y="476.13376" />
    <rect
       style="fill:#272727;fill-opacity:1;stroke:#000000;stroke-width:8.00113;paint-order:markers stroke fill"
       id="rect29780"
       width="127.13657"
       height="61.939667"
       x="706.27399"
       y="557.9892" />
    <rect
       style="fill:#373737;fill-opacity:1;stroke:#000000;stroke-width:9.15285;paint-order:markers stroke fill"
       id="rect31222"
       width="48.433483"
       height="216.64017"
       x="191.61131"
       y="1233.207" />
    <rect
       style="fill:#373737;fill-opacity:1;stroke:#000000;stroke-width:9.15285;paint-order:markers stroke fill"
       id="rect31224"
       width="48.433483"
       height="216.64017"
       x="245.71162"
       y="1233.207" />
    <rect
       style="fill:#373737;fill-opacity:1;stroke:#000000;stroke-width:9.15285;paint-order:markers stroke fill"
       id="rect31222-1"
       width="48.433483"
       height="216.64017"
       x="299.52219"
       y="1232.736" />
    <ellipse
       style="fill:#ff6600;fill-opacity:1;stroke:#000000;stroke-width:20.7372;paint-order:markers stroke fill"
       id="path32963"
       cx="203.39844"
       cy="1067.4285"
       rx="49.240772"
       ry="51.307823" />
    <ellipse
       style="fill:#ff6600;fill-opacity:1;stroke:#000000;stroke-width:20.7372;paint-order:markers stroke fill"
       id="ellipse33017"
       cx="385.29947"
       cy="1067.4285"
       rx="49.240772"
       ry="51.307823" />
  </g>
</svg>
