<?xml version="1.0" encoding="UTF-8" standalone="no"?>
<!-- Created with Inkscape (http://www.inkscape.org/) -->

<svg
   width="3840mm"
   height="2160mm"
   viewBox="0 0 3840 2160"
   version="1.1"
   id="svg5"
   inkscape:version="1.2.2 (732a01da63, 2022-12-09)"
   sodipodi:docname="qualified!.svg"
   inkscape:export-filename="qualified.png"
   inkscape:export-xdpi="96.096664"
   inkscape:export-ydpi="96.096664"
   xmlns:inkscape="http://www.inkscape.org/namespaces/inkscape"
   xmlns:sodipodi="http://sodipodi.sourceforge.net/DTD/sodipodi-0.dtd"
   xmlns="http://www.w3.org/2000/svg"
   xmlns:svg="http://www.w3.org/2000/svg">
  <sodipodi:namedview
     id="namedview7"
     pagecolor="#ffffff"
     bordercolor="#000000"
     borderopacity="0.25"
     inkscape:showpageshadow="2"
     inkscape:pageopacity="0.0"
     inkscape:pagecheckerboard="0"
     inkscape:deskcolor="#d1d1d1"
     inkscape:document-units="mm"
     showgrid="false"
     inkscape:zoom="0.056568542"
     inkscape:cx="5895.5028"
     inkscape:cy="5197.2348"
     inkscape:window-width="1920"
     inkscape:window-height="986"
     inkscape:window-x="-11"
     inkscape:window-y="-11"
     inkscape:window-maximized="1"
     inkscape:current-layer="layer1" />
  <defs
     id="defs2" />
  <g
     inkscape:label="Layer 1"
     inkscape:groupmode="layer"
     id="layer1">
    <text
       xml:space="preserve"
       style="font-size:564.417px;font-family:'MV Boli';-inkscape-font-specification:'MV Boli';fill:#5599ff;stroke:#000000;stroke-width:10;stroke-dasharray:none"
       x="364.69202"
       y="1189.8636"
       id="text2242"><tspan
         sodipodi:role="line"
         id="tspan2240"
         style="stroke:#000000;stroke-width:10;stroke-dasharray:none"
         x="364.69202"
         y="1189.8636">QUALIFIED!</tspan></text>
    <text
       xml:space="preserve"
       style="font-size:564.417px;font-family:'MV Boli';-inkscape-font-specification:'MV Boli';fill:#ffffff;stroke:#000000;stroke-width:10;stroke-dasharray:none"
       x="392.34558"
       y="1210.2854"
       id="text2242-5"><tspan
         sodipodi:role="line"
         id="tspan2240-7"
         style="stroke:#000000;stroke-width:10;fill:#ffffff;stroke-dasharray:none"
         x="392.34558"
         y="1210.2854">QUALIFIED!</tspan></text>
    <path
       style="fill:#ffffff;stroke:none;stroke-width:1.22337"
       d="m 272.46726,930.86169 c -2.4501,0.57999 -3.08,3.47433 -4.3805,5.18463 0.5434,17.24194 1.5101,34.52185 2.2224,51.77824 0.5316,10.28767 0.8013,20.61214 1.5193,30.87684 1.5891,1.0837 1.3915,-1.3452 1.4215,-2.2446 1.2428,-27.00516 2.4177,-54.01306 3.633,-81.01933 -1.0165,-1.67243 -2.1464,-3.91186 -4.2429,-4.57456 l -0.087,-0.003 z"
       id="path6234" />
    <ellipse
       id="path6132"
       style="fill:#ffffff;stroke:none;stroke-width:1.19259"
       cx="282.38605"
       cy="960.44116"
       rx="0.023733428"
       ry="0.028082663" />
    <ellipse
       id="path6134"
       style="fill:#ffffff;stroke:none;stroke-width:1.19259"
       cx="235.88139"
       cy="1066.0674"
       rx="0.023733428"
       ry="0.028082663" />
    <path
       style="fill:#ffffff;stroke:none;stroke-width:4.50744"
       d="m 268.48796,931.97891 -29.3995,48.06942 -58.799,0.63252 54.5227,44.27445 -15.5015,52.4969 53.9882,-37.3171"
       id="path6194" />
    <path
       style="fill:#ffffff;stroke:none;stroke-width:4.50744"
       d="m 276.40456,931.22592 29.3995,48.06942 58.7991,0.63252 -54.5228,44.27454 15.5016,52.4968 -53.9882,-37.317"
       id="path6194-1" />
    <path
       style="fill:#ffffff;stroke:none;stroke-width:5.01839"
       id="path6226"
       d="m 267.33316,931.72747 c 0.1939,-0.17814 0.3549,-0.38377 0.4975,-0.60019 0.1409,-0.21887 0.2795,-0.43824 0.4407,-0.64463 0.172,-0.22905 0.3403,-0.46216 0.5041,-0.6966 0.1883,-0.27282 0.3621,-0.55475 0.5473,-0.82975 0.3063,-0.46521 0.6086,-0.93292 0.909,-1.40165 0.2831,-0.44485 0.5648,-0.89047 0.8732,-1.32051 0.2153,-0.30946 0.4644,-0.59378 0.711,-0.88095 0.2367,-0.28707 0.491,-0.561 0.7363,-0.84161 0.024,-0.0255 0.049,-0.0529 0.073,-0.0789 0.6759,-0.73437 -0.4282,-1.63339 -1.1041,-0.89907 v 0 c -0.033,0.0356 -0.065,0.0713 -0.098,0.10688 -0.2473,0.28402 -0.5053,0.56004 -0.7442,0.85077 -0.2725,0.31812 -0.5471,0.63435 -0.786,0.9767 -0.3206,0.44994 -0.6178,0.91271 -0.9121,1.37782 -0.2949,0.46012 -0.5917,0.91933 -0.8923,1.3762 -0.1813,0.26976 -0.3522,0.54563 -0.5361,0.81356 -0.1489,0.21683 -0.306,0.42806 -0.4625,0.63964 -0.1823,0.2377 -0.3465,0.48506 -0.5059,0.73655 -0.1016,0.16186 -0.2337,0.30234 -0.373,0.43671 -0.661,0.74613 0.4608,1.6255 1.1219,0.87938 z" />
    <path
       style="fill:#ffffff;stroke:none;stroke-width:5.01839"
       id="path6228"
       d="m 271.75886,924.44221 c 0.5702,0.69115 1.2508,1.29058 1.8907,1.92279 0.2558,0.26671 0.516,0.53245 0.7325,0.82919 0.1477,0.19189 0.2634,0.40312 0.3843,0.61007 0.1427,0.25042 0.3086,0.48812 0.4736,0.72597 0.1236,0.2041 0.2367,0.41329 0.3631,0.61562 0.155,0.23871 0.3361,0.46114 0.5161,0.68331 0.1697,0.1929 0.3437,0.38174 0.5126,0.5751 0.1327,0.18324 0.2958,0.34204 0.4695,0.49117 0.1123,0.0758 0.1982,0.17204 0.2764,0.2774 0.064,0.083 0.1342,0.16084 0.2047,0.23871 0.011,0.0153 0.023,0.0255 0.034,0.0407 9e-4,0.001 0,0.005 9e-4,0.005 -0.01,-0.005 -0.01,-0.0102 -0.015,-0.0153 -0.01,-0.0102 -0.019,-0.0356 -0.017,-0.0254 0.018,0.0784 0.073,0.15117 0.1136,0.2209 0.4958,0.85199 1.7768,0.1924 1.281,-0.65954 v 0 c -0.043,-0.0748 -0.016,-0.0255 -0.095,-0.19291 -0.091,-0.14557 -0.1987,-0.27485 -0.3151,-0.40312 -0.1431,-0.18934 -0.3027,-0.36646 -0.4979,-0.51046 -0.1228,-0.0967 -0.219,-0.2153 -0.3121,-0.33695 -0.1575,-0.18069 -0.3188,-0.35781 -0.4794,-0.53565 -0.1454,-0.17967 -0.2932,-0.35782 -0.4204,-0.5494 -0.1388,-0.21937 -0.2549,-0.45096 -0.3979,-0.66845 -0.1447,-0.20818 -0.291,-0.41635 -0.4161,-0.63562 -0.1456,-0.24992 -0.2877,-0.50237 -0.4656,-0.73345 -0.2626,-0.35222 -0.5637,-0.67685 -0.8741,-0.99247 -0.5871,-0.57948 -1.2075,-1.13122 -1.7447,-1.75356 -0.5851,-0.80038 -1.7885,-0.0255 -1.2034,0.77814 z" />
    <path
       style="fill:#ffffff;stroke:none;stroke-width:5.01839"
       id="path6230"
       d="m 275.51706,931.74783 c -0.2403,-0.17763 -0.4935,-0.34153 -0.7168,-0.53901 -0.2879,-0.25501 -0.5728,-0.51154 -0.8777,-0.74837 -0.2647,-0.21224 -0.5345,-0.41533 -0.8432,-0.56772 -0.1209,-0.0458 -0.2644,-0.1079 -0.3972,-0.10689 -0.1399,4.1e-4 -0.2807,0.0153 -0.4169,0.0509 -0.2472,0.055 -0.6267,0.29114 -0.8409,0.41534 -0.4301,0.2606 -0.853,0.53138 -1.2815,0.79427 -0.2678,0.15015 -0.5506,0.27281 -0.8159,0.42704 -0.2968,0.18527 -0.5263,0.43467 -0.6966,0.72632 -0.115,0.25704 -0.2257,0.60834 -0.028,0.86746 0.1184,0.15575 0.29,0.28198 0.4756,0.36087 0.1274,0.054 0.2792,0.0153 0.4189,0.0204 0.279,-0.0672 0.5785,-0.14608 0.8117,-0.31455 0.067,-0.0509 0.1271,-0.10536 0.1906,-0.15779 0.2373,-0.22446 0.3394,-0.53168 0.5229,-0.78897 0.1043,-0.0967 0.1988,-0.20105 0.294,-0.3054 0.6683,-0.74047 -0.4451,-1.62936 -1.1133,-0.88889 v 0 c -0.1374,0.15422 -0.2915,0.29369 -0.4142,0.45962 -0.084,0.12826 -0.1582,0.25551 -0.2324,0.38886 -0.015,0.0305 -0.083,0.12165 -0.083,0.1583 0.012,-0.005 0.023,-0.0153 0.036,-0.0153 0.01,-5e-5 -0.01,0.0102 -0.015,0.0153 -0.017,0.0102 -0.034,0.0204 -0.052,0.0305 -0.044,0.0204 -0.094,0.0305 -0.1374,0.0529 0,0.003 0.01,0.005 0.011,0.005 0.077,0.0153 0.1646,10e-4 0.2298,0.0458 0.3779,0.23414 0.3775,0.27587 0.4137,0.63033 0.001,0.0153 -0.01,0.0611 -0.031,0.0728 -0.01,-0.0458 0.1363,-0.15881 0.173,-0.19138 0.2706,-0.16186 0.5719,-0.27333 0.8396,-0.44078 0.4201,-0.25806 0.835,-0.52319 1.2564,-0.77921 0.4778,-0.28401 -0.011,5e-5 0.4019,-0.22446 0.016,-0.0102 0.062,-0.0255 0.044,-0.0305 -0.1272,-0.0458 -0.1487,0.0153 -0.2218,-0.0407 0.2206,0.0865 0.3786,0.27638 0.5723,0.40159 0.2863,0.2209 0.55,0.4647 0.8211,0.7022 0.3269,0.27638 0.6758,0.53402 1.0488,0.7536 0.9236,0.43417 1.5767,-0.79422 0.6531,-1.22859 z" />
    <path
       style="fill:#ffffff;stroke:none;stroke-width:0.216264"
       d="m 271.76436,924.44984 c -1.4268,1.49927 -2.3857,3.32297 -3.5635,4.99066 -0.393,0.62936 -0.9119,1.19963 -1.2054,1.878 -0.1226,0.57582 0.508,0.8524 0.9429,1.08475 0.3774,0.27689 0.9769,0.43773 1.3097,0.0153 0.4182,-0.50338 1.0886,-0.70678 1.5995,-1.09997 0.611,-0.2606 1.1122,-0.77386 1.7822,-0.89281 0.6574,0.2209 1.1275,0.77982 1.647,1.17245 0.4235,0.3965 1.0096,0.87647 1.6466,0.59673 0.5529,-0.28248 1.1425,-0.54115 1.6122,-0.94024 0.3219,-0.33339 0.1385,-0.84217 -0.23,-1.06338 -0.7177,-0.74877 -1.329,-1.64143 -1.8679,-2.55546 -0.6652,-1.22203 -1.782,-2.13672 -2.7685,-3.12125 -0.2637,-0.21581 -0.61,-0.23974 -0.9048,-0.0626 z m -1.0528,6.9133 c -0.011,0.003 0.012,-0.004 0,0 z"
       id="path6232" />
    <path
       style="fill:#ffffff;stroke:none;stroke-width:1.22337"
       d="m 3620.2548,929.47524 c -2.4501,0.57999 -3.08,3.47433 -4.3805,5.18463 0.5434,17.24193 1.5101,34.52183 2.2224,51.77823 0.5316,10.2877 0.8013,20.6122 1.5193,30.8769 1.5891,1.0837 1.3915,-1.3452 1.4215,-2.2446 1.2428,-27.0052 2.4177,-54.0131 3.633,-81.01938 -1.0165,-1.67243 -2.1464,-3.91186 -4.2429,-4.57456 l -0.087,-0.003 z"
       id="path6234-3" />
    <ellipse
       id="path6132-4"
       style="fill:#ffffff;stroke:none;stroke-width:1.19259"
       cx="3630.1736"
       cy="959.05469"
       rx="0.023733428"
       ry="0.028082663" />
    <ellipse
       id="path6134-2"
       style="fill:#ffffff;stroke:none;stroke-width:1.19259"
       cx="3583.6689"
       cy="1064.681"
       rx="0.023733428"
       ry="0.028082663" />
    <path
       style="fill:#ffffff;stroke:none;stroke-width:4.50744"
       d="m 3616.2755,930.59246 -29.3995,48.06944 -58.799,0.6325 54.5227,44.2745 -15.5015,52.4969 53.9882,-37.3171"
       id="path6194-4" />
    <path
       style="fill:#ffffff;stroke:none;stroke-width:4.50744"
       d="m 3624.1921,929.83947 29.3995,48.06943 58.7991,0.6325 -54.5228,44.2746 15.5016,52.4968 -53.9882,-37.317"
       id="path6194-1-8" />
    <path
       style="fill:#ffffff;stroke:none;stroke-width:5.01839"
       id="path6226-9"
       d="m 3615.1207,930.34102 c 0.1939,-0.17814 0.3549,-0.38377 0.4975,-0.60019 0.1409,-0.21887 0.2795,-0.43824 0.4407,-0.64463 0.172,-0.22905 0.3403,-0.46216 0.5041,-0.6966 0.1883,-0.27282 0.3621,-0.55475 0.5473,-0.82975 0.3063,-0.46521 0.6086,-0.93292 0.909,-1.40165 0.2831,-0.44485 0.5648,-0.89047 0.8732,-1.32051 0.2153,-0.30946 0.4644,-0.59378 0.711,-0.88095 0.2367,-0.28707 0.491,-0.561 0.7363,-0.84161 0.024,-0.0255 0.049,-0.0529 0.073,-0.0789 0.6759,-0.73437 -0.4282,-1.63339 -1.1041,-0.89907 v 0 c -0.033,0.0356 -0.065,0.0713 -0.098,0.10688 -0.2473,0.28402 -0.5053,0.56004 -0.7442,0.85077 -0.2725,0.31812 -0.5471,0.63435 -0.786,0.9767 -0.3206,0.44994 -0.6178,0.91271 -0.9121,1.37782 -0.2949,0.46012 -0.5917,0.91933 -0.8923,1.3762 -0.1813,0.26976 -0.3522,0.54563 -0.5361,0.81356 -0.1489,0.21683 -0.306,0.42806 -0.4625,0.63964 -0.1823,0.2377 -0.3465,0.48506 -0.5059,0.73655 -0.1016,0.16186 -0.2337,0.30234 -0.373,0.43671 -0.661,0.74613 0.4608,1.6255 1.1219,0.87938 z" />
    <path
       style="fill:#ffffff;stroke:none;stroke-width:5.01839"
       id="path6228-2"
       d="m 3619.5464,923.05576 c 0.5702,0.69115 1.2508,1.29058 1.8907,1.92279 0.2558,0.26671 0.516,0.53245 0.7325,0.82919 0.1477,0.19189 0.2634,0.40312 0.3843,0.61007 0.1427,0.25042 0.3086,0.48812 0.4736,0.72597 0.1236,0.2041 0.2367,0.41329 0.3631,0.61562 0.155,0.23871 0.3361,0.46114 0.5161,0.68331 0.1697,0.1929 0.3437,0.38174 0.5126,0.5751 0.1327,0.18324 0.2958,0.34204 0.4695,0.49117 0.1123,0.0758 0.1982,0.17204 0.2764,0.2774 0.064,0.083 0.1342,0.16084 0.2047,0.23871 0.011,0.0153 0.023,0.0255 0.034,0.0407 9e-4,10e-4 0,0.005 9e-4,0.005 -0.01,-0.005 -0.01,-0.0102 -0.015,-0.0153 -0.01,-0.0102 -0.019,-0.0356 -0.017,-0.0254 0.018,0.0784 0.073,0.15117 0.1136,0.2209 0.4958,0.85199 1.7768,0.1924 1.281,-0.65954 v 0 c -0.043,-0.0748 -0.016,-0.0255 -0.095,-0.19291 -0.091,-0.14557 -0.1987,-0.27485 -0.3151,-0.40312 -0.1431,-0.18934 -0.3027,-0.36646 -0.4979,-0.51046 -0.1228,-0.0967 -0.219,-0.2153 -0.3121,-0.33695 -0.1575,-0.18069 -0.3188,-0.35781 -0.4794,-0.53565 -0.1454,-0.17967 -0.2932,-0.35782 -0.4204,-0.5494 -0.1388,-0.21937 -0.2549,-0.45096 -0.3979,-0.66845 -0.1447,-0.20818 -0.291,-0.41635 -0.4161,-0.63562 -0.1456,-0.24992 -0.2877,-0.50237 -0.4656,-0.73345 -0.2626,-0.35222 -0.5637,-0.67685 -0.8741,-0.99247 -0.5871,-0.57948 -1.2075,-1.13122 -1.7447,-1.75356 -0.5851,-0.80038 -1.7885,-0.0255 -1.2034,0.77814 z" />
    <path
       style="fill:#ffffff;stroke:none;stroke-width:5.01839"
       id="path6230-1"
       d="m 3623.3046,930.36138 c -0.2403,-0.17763 -0.4935,-0.34153 -0.7168,-0.53901 -0.2879,-0.25501 -0.5728,-0.51154 -0.8777,-0.74837 -0.2647,-0.21224 -0.5345,-0.41533 -0.8432,-0.56772 -0.1209,-0.0458 -0.2644,-0.1079 -0.3972,-0.10689 -0.1399,4.1e-4 -0.2807,0.0153 -0.4169,0.0509 -0.2472,0.055 -0.6267,0.29114 -0.8409,0.41534 -0.4301,0.2606 -0.853,0.53138 -1.2815,0.79427 -0.2678,0.15015 -0.5506,0.27281 -0.8159,0.42704 -0.2968,0.18527 -0.5263,0.43467 -0.6966,0.72632 -0.115,0.25704 -0.2257,0.60834 -0.028,0.86746 0.1184,0.15575 0.29,0.28198 0.4756,0.36087 0.1274,0.054 0.2792,0.0153 0.4189,0.0204 0.279,-0.0672 0.5785,-0.14608 0.8117,-0.31455 0.067,-0.0509 0.1271,-0.10536 0.1906,-0.15779 0.2373,-0.22446 0.3394,-0.53168 0.5229,-0.78897 0.1043,-0.0967 0.1988,-0.20105 0.294,-0.3054 0.6683,-0.74047 -0.4451,-1.62936 -1.1133,-0.88889 v 0 c -0.1374,0.15422 -0.2915,0.29369 -0.4142,0.45962 -0.084,0.12826 -0.1582,0.25551 -0.2324,0.38886 -0.015,0.0305 -0.083,0.12165 -0.083,0.1583 0.012,-0.005 0.023,-0.0153 0.036,-0.0153 0.01,-5e-5 -0.01,0.0102 -0.015,0.0153 -0.017,0.0102 -0.034,0.0204 -0.052,0.0305 -0.044,0.0204 -0.094,0.0305 -0.1374,0.0529 0,0.003 0.01,0.005 0.011,0.005 0.077,0.0153 0.1646,0.001 0.2298,0.0458 0.3779,0.23414 0.3775,0.27587 0.4137,0.63033 0,0.0153 -0.01,0.0611 -0.031,0.0728 -0.01,-0.0458 0.1363,-0.15881 0.173,-0.19138 0.2706,-0.16186 0.5719,-0.27333 0.8396,-0.44078 0.4201,-0.25806 0.835,-0.52319 1.2564,-0.77921 0.4778,-0.28401 -0.011,5e-5 0.4019,-0.22446 0.016,-0.0102 0.062,-0.0255 0.044,-0.0305 -0.1272,-0.0458 -0.1487,0.0153 -0.2218,-0.0407 0.2206,0.0865 0.3786,0.27638 0.5723,0.40159 0.2863,0.2209 0.55,0.4647 0.8211,0.7022 0.3269,0.27638 0.6758,0.53402 1.0488,0.7536 0.9236,0.43417 1.5767,-0.79422 0.6531,-1.22859 z" />
    <path
       style="fill:#ffffff;stroke:none;stroke-width:0.216264"
       d="m 3619.5519,923.06339 c -1.4268,1.49927 -2.3857,3.32297 -3.5635,4.99066 -0.393,0.62936 -0.9119,1.19963 -1.2054,1.878 -0.1226,0.57582 0.508,0.8524 0.9429,1.08475 0.3774,0.27689 0.9769,0.43773 1.3097,0.0153 0.4182,-0.50338 1.0886,-0.70678 1.5995,-1.09997 0.611,-0.2606 1.1122,-0.77386 1.7822,-0.89281 0.6574,0.2209 1.1275,0.77982 1.647,1.17245 0.4235,0.3965 1.0096,0.87647 1.6466,0.59673 0.5529,-0.28248 1.1425,-0.54115 1.6122,-0.94024 0.3219,-0.33339 0.1385,-0.84217 -0.23,-1.06338 -0.7177,-0.74877 -1.329,-1.64143 -1.8679,-2.55546 -0.6652,-1.22203 -1.782,-2.13672 -2.7685,-3.12125 -0.2637,-0.21581 -0.61,-0.23974 -0.9048,-0.0626 z m -1.0528,6.9133 c -0.011,0.003 0.012,-0.004 0,0 z"
       id="path6232-5" />
  </g>
</svg>
