<?xml version="1.0" encoding="UTF-8" standalone="no"?>
<!-- Created with Inkscape (http://www.inkscape.org/) -->

<svg
   width="1500mm"
   height="2000mm"
   viewBox="0 0 1500 2000"
   version="1.1"
   id="svg5"
   inkscape:version="1.2.2 (732a01da63, 2022-12-09)"
   sodipodi:docname="revamped shinobi final checkpoint tiles.svg"
   inkscape:export-filename="shinobi_ending.png"
   inkscape:export-xdpi="98.348801"
   inkscape:export-ydpi="98.348801"
   xml:space="preserve"
   xmlns:inkscape="http://www.inkscape.org/namespaces/inkscape"
   xmlns:sodipodi="http://sodipodi.sourceforge.net/DTD/sodipodi-0.dtd"
   xmlns="http://www.w3.org/2000/svg"
   xmlns:svg="http://www.w3.org/2000/svg"><sodipodi:namedview
     id="namedview7"
     pagecolor="#ffffff"
     bordercolor="#000000"
     borderopacity="0.25"
     inkscape:showpageshadow="2"
     inkscape:pageopacity="0.0"
     inkscape:pagecheckerboard="0"
     inkscape:deskcolor="#d1d1d1"
     inkscape:document-units="mm"
     showgrid="false"
     inkscape:zoom="0.11313708"
     inkscape:cx="1904.7689"
     inkscape:cy="1962.2213"
     inkscape:window-width="1920"
     inkscape:window-height="986"
     inkscape:window-x="-11"
     inkscape:window-y="-11"
     inkscape:window-maximized="1"
     inkscape:current-layer="layer1" /><defs
     id="defs2" /><g
     inkscape:label="Layer 1"
     inkscape:groupmode="layer"
     id="layer1"><rect
       style="fill:#f15858;fill-opacity:1;stroke-width:16.0452;paint-order:markers stroke fill"
       id="rect46283"
       width="200"
       height="401"
       x="0"
       y="99" /><rect
       style="fill:#333333;fill-opacity:1;stroke-width:8.01258;paint-order:markers stroke fill"
       id="rect42303"
       width="200"
       height="100"
       x="0"
       y="0" /><rect
       style="fill:#f15858;fill-opacity:1;stroke-width:11.3315;paint-order:markers stroke fill"
       id="rect47837"
       width="200"
       height="200"
       x="300"
       y="0" /><path
       style="fill:#000000;fill-opacity:1;stroke-width:8;paint-order:markers stroke fill;stroke:#000000;stroke-dasharray:none"
       d="m 390.69375,60.949979 0.43849,-26.163179 11.40074,3.215587 0.7308,1.900118 -4.09257,1.900119 v 19.439683 h 40.04868 l 9.06211,-7.74664 12.42386,9.354434 -0.4385,1.315466 -1.46164,1.461629 -60.65766,-0.584652 0.87699,24.847716 33.32517,0.292325 7.89281,-7.600476 11.10838,8.769781 -1.6078,2.046282 -47.79531,-0.146164 20.60901,24.555392 29.67108,17.83188 9.75892,3.06027 -5.9428,3.30729 -3.56566,4.65087 -19.0686,-10.43863 -18.86191,-17.46664 -13.76934,-20.53089 -1.46161,-3.654076 -0.43849,60.073006 -3.65408,3.65407 -3.21559,-0.43849 -0.73081,-55.24962 -12.13154,15.78561 -24.70155,21.04747 -17.68573,10.52374 -3.21559,-0.43849 0.73083,-1.90012 39.02552,-32.30203 14.47014,-22.070612 -44.28739,0.292325 -0.29234,-4.531053 48.52612,0.87698 -0.43847,-24.263064 -55.10347,-0.438488 -0.29231,-3.654076 z"
       id="path49457" /></g></svg>
