<?xml version="1.0" encoding="UTF-8" standalone="no"?>
<!-- Created with Inkscape (http://www.inkscape.org/) -->

<svg
   width="3840mm"
   height="2160mm"
   viewBox="0 0 3840 2160"
   version="1.1"
   id="svg5"
   inkscape:version="1.2.2 (732a01da63, 2022-12-09)"
   sodipodi:docname="round5_load_Screen.svg"
   inkscape:export-filename="roundfive_load_Screen.png"
   inkscape:export-xdpi="96"
   inkscape:export-ydpi="96"
   xmlns:inkscape="http://www.inkscape.org/namespaces/inkscape"
   xmlns:sodipodi="http://sodipodi.sourceforge.net/DTD/sodipodi-0.dtd"
   xmlns="http://www.w3.org/2000/svg"
   xmlns:svg="http://www.w3.org/2000/svg">
  <sodipodi:namedview
     id="namedview7"
     pagecolor="#ffffff"
     bordercolor="#000000"
     borderopacity="0.25"
     inkscape:showpageshadow="2"
     inkscape:pageopacity="0.0"
     inkscape:pagecheckerboard="0"
     inkscape:deskcolor="#d1d1d1"
     inkscape:document-units="mm"
     showgrid="false"
     inkscape:zoom="0.045322145"
     inkscape:cx="187.54629"
     inkscape:cy="6928.1805"
     inkscape:window-width="1920"
     inkscape:window-height="986"
     inkscape:window-x="-11"
     inkscape:window-y="-11"
     inkscape:window-maximized="1"
     inkscape:current-layer="layer1" />
  <defs
     id="defs2" />
  <g
     inkscape:label="Layer 1"
     inkscape:groupmode="layer"
     id="layer1">
    <path
       style="fill:#ffdd55;stroke:none;stroke-width:86.9553;stroke-dasharray:none"
       d="m 2368.1195,1759.9543 c -6.0273,6.7558 -11.6633,20.5075 -21.6639,18.818 -10.1347,-5.3016 -13.165,-20.926 -21.7971,-26.7956 -8.5298,7.978 -15.0444,25.7571 -28.0179,24.0684 -8.7726,-2.9207 -14.1795,-15.4342 -21.8673,-17.2585 -0.1014,33.5102 0.087,67.1166 -2.3846,100.5206 19.4078,4.2339 41.0133,2.7634 61.2432,6.146 33.1649,2.2904 66.4192,1.5504 99.6265,1.9793 9.375,-21.8584 2.6892,-48.1593 5.9789,-71.8351 0.7489,-15.3298 0.2756,-31.1067 -2.1391,-46.044 -9.3017,7.4997 -12.3284,25.5154 -23.6205,31.2144 -11.9632,-0.3376 -18.0607,-15.8284 -25.3825,-24.3829 -5.4298,-14.3684 -12.9591,-11.6117 -18.4292,1.351 l -1.1173,1.6025 z"
       id="path26653" />
    <text
       xml:space="preserve"
       style="font-style:normal;font-variant:normal;font-weight:normal;font-stretch:normal;font-size:295.821px;font-family:'Bauhaus 93';-inkscape-font-specification:'Bauhaus 93, ';fill:#ffffff;stroke:#ffffff;stroke-width:12.5773;stroke-dasharray:none"
       x="1094.7565"
       y="298.8652"
       id="text2576-1"
       transform="scale(0.96434687,1.0369713)"><tspan
         sodipodi:role="line"
         id="tspan2574-1"
         style="font-style:normal;font-variant:normal;font-weight:normal;font-stretch:normal;font-family:'MV Boli';-inkscape-font-specification:'MV Boli';fill:#ffffff;stroke:#ffffff;stroke-width:12.5773;stroke-dasharray:none"
         x="1094.7565"
         y="298.8652">THE FINAL</tspan></text>
    <rect
       style="fill:#afc6e9;stroke-width:20"
       id="rect2244"
       width="94.94342"
       height="8.255949"
       x="-454.07721"
       y="-66.047592"
       ry="4.1279745" />
    <text
       xml:space="preserve"
       style="font-style:normal;font-variant:normal;font-weight:normal;font-stretch:normal;font-size:282.242px;font-family:'Bauhaus 93';-inkscape-font-specification:'Bauhaus 93, ';fill:#ffaaee;stroke:#000000;stroke-width:12;stroke-dasharray:none"
       x="1048.9222"
       y="296.00681"
       id="text2576"><tspan
         sodipodi:role="line"
         id="tspan2574"
         style="font-style:normal;font-variant:normal;font-weight:normal;font-stretch:normal;font-family:'MV Boli';-inkscape-font-specification:'MV Boli';fill:#ffaaee;stroke:#000000;stroke-width:12;stroke-dasharray:none"
         x="1048.9222"
         y="296.00681">THE FINAL</tspan></text>
    <text
       xml:space="preserve"
       style="font-style:normal;font-variant:normal;font-weight:normal;font-stretch:normal;font-size:225.794px;font-family:'Bauhaus 93';-inkscape-font-specification:'Bauhaus 93, ';white-space:pre;inline-size:4162.83;display:inline;fill:#000000;stroke:#000000;stroke-width:12;stroke-dasharray:none"
       x="29.590513"
       y="2048.7581"
       id="text6061"
       transform="translate(255.93443)"><tspan
         x="29.590513"
         y="2048.7581"
         id="tspan26713"><tspan
           dx="0 0 0 0 0 0 0 0 0 0 0 0 0 0 0 0 0 0 0 0 0 0 -0.00015258789"
           style="font-family:'MV Boli';-inkscape-font-specification:'MV Boli'"
           id="tspan26711">8 REMAINING  - 1 WINNER </tspan></tspan></text>
    <path
       style="fill:#000000;stroke:none;stroke-width:9.59997;stroke-dasharray:none"
       id="path26558"
       d="m 2280.8335,1858.376 c -0.097,-6.0304 0.2455,-12.0535 0.4914,-18.0764 0.2426,-6.3499 0.2869,-12.7053 0.323,-19.0591 0.023,-5.3495 0.018,-10.6991 0.015,-16.0487 0,-4.2628 0,-8.5257 -0.01,-12.7885 -0.1049,-2.4206 0.03,-4.8066 0.322,-7.2054 0.2184,-1.0003 0.099,-0.4464 0.3577,-1.6619 2.0684,-9.7613 -11.7361,-12.6865 -13.8046,-2.9252 v 0 c -0.3777,1.7907 -0.1871,0.8298 -0.5612,2.885 -0.3589,2.9625 -0.5307,5.9246 -0.425,8.9105 0,4.2632 0,8.5265 0.01,12.7897 0,5.3215 0.01,10.6429 -0.015,15.9643 -0.035,6.1886 -0.077,12.3788 -0.3116,18.5637 -0.2537,6.2146 -0.6004,12.4297 -0.5031,18.652 0,9.9781 14.111,9.9781 14.111,0 z" />
    <path
       style="fill:#000000;stroke:none;stroke-width:9.59997;stroke-dasharray:none"
       id="path26578"
       d="m 2281.7147,1781.8452 c 0.3226,-3.4143 0.4298,-6.8411 1.0449,-10.2211 0.6848,-3.1251 0.8163,-6.3324 1.2908,-9.4854 0.1698,-1.1912 0.3666,-2.3926 0.6636,-3.5604 0.049,-0.1914 0.2726,-0.7416 0.1971,-0.559 -0.1876,0.4546 -0.1144,1.119 -0.5342,1.3754 -2.0576,1.2576 -4.3947,1.9866 -6.5921,2.9799 -0.9261,-0.3807 -1.8181,-0.8583 -2.7783,-1.1423 -0.1578,-0.046 0.1754,0.2798 0.2826,0.4045 0.6081,0.7063 1.2389,1.3928 1.8616,2.0864 2.3503,2.6175 4.7375,5.1867 7.1848,7.7137 3.4624,3.2825 6.6588,6.8438 10.1272,10.119 0.8039,0.7591 1.5569,1.5909 2.4717,2.2118 1.2013,0.8154 2.5558,1.3784 3.8336,2.0676 2.0189,0.062 4.0722,0.5622 6.0566,0.1852 5.6967,-1.0826 11.218,-8.3619 14.9143,-12.5178 2.9024,-3.4658 5.8858,-6.873 8.6261,-10.4698 0.741,-0.9245 1.2258,-2.0506 2.0652,-2.8984 0.1201,-0.1214 0.513,-0.4462 0.3676,-0.3566 -0.941,0.5798 -1.6868,1.583 -2.7636,1.8327 -1.4916,0.3458 -3.0612,-0.085 -4.5918,-0.1273 4.7495,6.2828 9.3537,12.6715 13.7345,19.2166 1.7465,2.9004 4.7063,7.6183 8.5121,7.7881 5.6865,0.2539 6.1217,-0.8757 9.8486,-3.685 5.7689,-5.5185 10.7656,-11.7521 15.5108,-18.1506 2.4742,-3.2661 4.7633,-6.6984 7.4521,-9.799 0.341,-0.3933 1.5415,-1.3765 1.0885,-1.1199 -0.6487,0.3674 -1.1284,0.9747 -1.6926,1.462 -0.7469,0.1436 -1.4801,0.42 -2.2405,0.4306 -0.5377,0.01 -1.0402,-0.2773 -1.5686,-0.3777 -0.066,-0.013 -0.2344,-0.017 -0.1995,0.042 0.2809,0.4702 0.6668,0.8691 1.0025,1.3019 2.0563,2.65 2.4948,3.1972 4.7422,6.0563 5.4162,6.4987 10.5383,13.2422 16.034,19.6739 0.5369,0.6324 1.074,1.2648 1.611,1.8972 6.4587,7.6057 17.2148,-1.5284 10.756,-9.1341 v 0 c -0.5494,-0.647 -1.0988,-1.2938 -1.6482,-1.9408 -5.3809,-6.2699 -10.3527,-12.8835 -15.6589,-19.2168 -0.9008,-1.1459 -1.8034,-2.2904 -2.7024,-3.4378 -2.5988,-3.317 -5.3656,-7.8931 -9.9079,-8.7591 -1.4816,-0.2824 -3.0165,0.018 -4.5248,0.026 -1.4193,0.7614 -2.9372,1.3622 -4.258,2.2839 -0.7307,0.5099 -1.2374,1.2838 -1.8202,1.9579 -2.8088,3.2489 -5.2179,6.8295 -7.802,10.2518 -4.0768,5.5057 -8.3582,10.853 -13.2055,15.7105 -1.3256,1.7954 -0.3815,0.1059 3.0677,0.9609 0.5444,0.1349 0.9767,0.5733 1.379,0.9641 0.1991,0.1934 0.5519,0.958 0.3776,0.7421 -0.3762,-0.4657 -0.6654,-0.9955 -0.9889,-1.4992 -0.4855,-0.7557 -0.9586,-1.5194 -1.4378,-2.279 -4.896,-7.3125 -9.9888,-14.5112 -15.5065,-21.3686 -2.7265,-1.2326 -5.2077,-3.3498 -8.1796,-3.698 -3.3345,-0.3908 -6.537,4.2971 -8.1002,6.7286 -2.4942,3.3187 -5.2833,6.4102 -7.9222,9.6128 -1.3466,1.5141 -2.667,3.0515 -4.0245,4.5557 -0.5752,0.6373 -1.1576,1.2685 -1.7565,1.8835 -0.3854,0.3959 -0.9325,0.662 -1.1955,1.1479 -0.4104,0.7581 5.2337,0.7487 2.2771,1.2267 -0.642,0.98 -0.1504,0.433 -2.0882,-1.3944 -3.4062,-3.2124 -6.5409,-6.7106 -9.941,-9.9304 -2.3155,-2.3847 -4.5672,-4.816 -6.7888,-7.2884 -0.5763,-0.6413 -1.1463,-1.2881 -1.7231,-1.9289 -0.4879,-0.542 -0.8755,-1.1984 -1.4708,-1.6196 -1.2507,-0.8846 -2.67,-1.5027 -4.0051,-2.2541 -2.5522,0.9243 -5.3248,1.3833 -7.6568,2.7728 -1.5733,0.9373 -2.4472,6.9861 -2.7433,8.8682 -0.4097,3.0116 -0.608,6.0533 -1.2202,9.0372 -0.6221,3.6734 -0.8939,7.3735 -1.1681,11.0859 -1.102,9.917 12.9228,11.4754 14.0248,1.5582 z" />
    <path
       style="fill:#000000;stroke:none;stroke-width:9.59997;stroke-dasharray:none"
       id="path26580"
       d="m 2414.8212,1786.6647 c 3.0129,-4.3328 6.1056,-8.5946 8.8742,-13.0912 0.493,-0.7274 0.9555,-1.4766 1.4792,-2.1822 0.7242,-0.9759 2.7491,-3.2886 3.4557,-4.1172 1.6864,-1.9775 3.3045,-4.0053 4.9631,-6.0055 1.2294,-0.9106 2.0424,-2.7727 3.5042,-3.3192 -1.8472,1.4007 -0.3287,0.3405 -6.2312,-0.047 -0.1644,-0.011 -0.407,-0.322 -0.4648,-0.1679 -0.083,0.2216 0.1936,0.4321 0.2836,0.651 0.4263,1.0361 0.3016,0.6909 0.555,1.7367 0.4762,2.2426 0.5826,4.5342 0.6304,6.8187 -0.081,2.8589 0.2571,5.6999 0.5119,8.5419 0.2295,3.6854 0.2403,7.3721 0.5313,11.0557 0.3187,3.2027 0.449,6.4179 0.5318,9.6338 0.092,2.3249 -0.6116,4.5843 -0.9633,6.8735 -0.3974,2.7416 -0.4651,5.5071 -0.8083,8.2526 -0.3975,3.4438 -0.5182,6.9118 -0.6104,10.3749 0.014,2.8896 0.8622,5.6745 1.3082,8.5109 0.2096,1.7415 0.3845,3.5172 0.2116,5.2683 -0.2887,2.498 -0.5079,5.0016 -0.6346,7.513 0.058,1.5907 -0.1,3.0299 -0.6868,4.5 -0.9478,2.8548 -1.7612,5.7382 -2.2721,8.7035 -0.3341,2.0537 -0.3651,4.231 -0.4995,6.2433 -1.3425,9.8874 12.6403,11.786 13.9827,1.8986 v 0 c 0.209,-1.9443 0.1968,-3.8976 0.4388,-5.8396 0.33,-2.1719 1.0261,-4.2507 1.6695,-6.3456 0.9182,-2.7452 1.5525,-5.547 1.4612,-8.4626 0.118,-2.443 0.3677,-4.8736 0.6228,-7.3056 0.1438,-2.8063 0.076,-5.6195 -0.3595,-8.4016 -0.3208,-1.9815 -0.747,-3.9476 -1.1362,-5.9092 0.079,-3.0039 0.1748,-6.0126 0.5068,-9.0011 0.3272,-2.6267 0.4362,-5.264 0.7584,-7.8908 0.4587,-3.1068 1.3737,-6.1734 1.117,-9.3477 -0.09,-3.4687 -0.2326,-6.9367 -0.5717,-10.3914 -0.3013,-3.7286 -0.259,-7.4645 -0.5431,-11.1936 -0.2268,-2.5282 -0.5504,-5.0502 -0.4588,-7.5939 -0.082,-3.5504 -0.3184,-7.1113 -1.2225,-10.5622 -0.7466,-2.3276 -1.5236,-4.6992 -2.9931,-6.7011 -0.6902,-0.9401 -1.218,-2.1858 -2.2899,-2.6452 -2.4527,-1.0514 -5.168,-1.4442 -7.8252,-1.6906 -0.6467,-0.06 -1.1844,0.5332 -1.7767,0.8 -2.7521,1.7264 -4.9977,4.0087 -7.1442,6.4373 -3.7763,4.5625 -7.7728,8.9832 -11.0546,13.9202 -2.6119,4.2625 -5.5724,8.2746 -8.4112,12.3857 -5.722,8.1744 5.8382,16.2666 11.5603,8.0922 z" />
    <path
       style="fill:#000000;stroke:none;stroke-width:9.59997;stroke-dasharray:none"
       id="path26582"
       d="m 2432.13,1858.2847 c -3.578,0 -7.1559,0 -10.7338,0 -5.6481,0 -11.2961,0 -16.9441,0 -5.3624,0 -10.7248,0 -16.0873,0 -4.3034,0 -8.6069,0 -12.9104,0 -4.8118,0 -9.6237,0 -14.4356,0 -3.4373,-0.092 -6.886,0.1251 -10.3221,0 -0.9829,-0.036 -3.8933,-0.3459 -4.784,-0.4355 -6.2153,-0.527 -12.4059,-1.24 -18.5926,-2.025 -4.2296,-0.456 -8.4649,-0.8852 -12.7089,-1.1821 -4.2139,-0.2551 -8.4335,-0.4008 -12.6544,-0.4684 -3.1499,-0.037 -6.3002,-0.026 -9.4502,-0.023 -3.5464,0 -7.0929,0.01 -10.6393,0.01 -2.3486,0 -4.6972,0 -7.0458,0 -9.9781,1e-4 -9.978,14.1112 0,14.1111 v 0 c 2.3499,0 4.6998,0 7.0496,0 3.548,0 7.096,0 10.644,-0.01 3.0724,0 6.1451,-0.013 9.2173,0.022 3.9731,0.062 7.9451,0.2002 11.9118,0.437 3.9744,0.2669 7.9386,0.6886 11.8997,1.1031 6.3127,0.8009 12.6297,1.528 18.9711,2.0679 5.4947,0.5419 10.9845,0.5971 16.5038,0.5048 4.8119,0 9.6238,0 14.4356,0 4.3035,0 8.607,0 12.9104,0 5.3625,0 10.7249,0 16.0873,0 5.648,0 11.296,0 16.9441,0 3.5779,0 7.1558,0 10.7338,0 9.978,0 9.978,-14.1111 0,-14.1111 z" />
  </g>
</svg>
