<?xml version="1.0" encoding="UTF-8" standalone="no"?>
<!-- Created with Inkscape (http://www.inkscape.org/) -->

<svg
   width="200mm"
   height="200mm"
   viewBox="0 0 200 200"
   version="1.1"
   id="svg5"
   inkscape:version="1.2.2 (732a01da63, 2022-12-09)"
   sodipodi:docname="tumble people logo.svg"
   inkscape:export-filename="tumble people logo.png"
   inkscape:export-xdpi="96"
   inkscape:export-ydpi="96"
   xmlns:inkscape="http://www.inkscape.org/namespaces/inkscape"
   xmlns:sodipodi="http://sodipodi.sourceforge.net/DTD/sodipodi-0.dtd"
   xmlns="http://www.w3.org/2000/svg"
   xmlns:svg="http://www.w3.org/2000/svg">
  <sodipodi:namedview
     id="namedview7"
     pagecolor="#ffffff"
     bordercolor="#000000"
     borderopacity="0.25"
     inkscape:showpageshadow="2"
     inkscape:pageopacity="0.0"
     inkscape:pagecheckerboard="0"
     inkscape:deskcolor="#d1d1d1"
     inkscape:document-units="mm"
     showgrid="false"
     inkscape:zoom="0.45254834"
     inkscape:cx="-175.67184"
     inkscape:cy="439.73203"
     inkscape:window-width="1920"
     inkscape:window-height="986"
     inkscape:window-x="-11"
     inkscape:window-y="-11"
     inkscape:window-maximized="1"
     inkscape:current-layer="layer1" />
  <defs
     id="defs2" />
  <g
     inkscape:label="Layer 1"
     inkscape:groupmode="layer"
     id="layer1">
    <rect
       style="fill:#ffaaee;stroke-width:0.504114;paint-order:markers stroke fill;fill-opacity:1"
       id="rect1514"
       width="206.54054"
       height="206.90541"
       x="-2.1891906"
       y="-2.9189231" />
    <rect
       style="fill:#ffaaee;fill-opacity:1;stroke:#000000;stroke-width:1.49077;stroke-dasharray:none"
       id="rect14575"
       width="9.3198128"
       height="31.927904"
       x="-28.355579"
       y="196.68687"
       ry="5.785593"
       transform="matrix(-0.67840848,0.73468492,0.73463745,0.67845988,0,0)" />
    <rect
       style="fill:#ffaaee;fill-opacity:1;stroke:#000000;stroke-width:1.49077;stroke-dasharray:none"
       id="rect14577"
       width="9.3198128"
       height="31.927904"
       x="-189.43256"
       y="-51.538895"
       ry="5.785593"
       transform="matrix(-0.60879945,-0.79332417,-0.79336676,0.60874394,0,0)"
       inkscape:transform-center-x="-10.241275"
       inkscape:transform-center-y="11.809731" />
    <rect
       style="fill:#ffaaee;fill-opacity:1;stroke:#000000;stroke-width:1.48751;stroke-dasharray:none"
       id="rect14579"
       width="17.123968"
       height="7.7408967"
       x="172.19145"
       y="-27.733606"
       ry="2.1941497"
       transform="rotate(52.617404)" />
    <rect
       style="fill:#ffaaee;fill-opacity:1;stroke:#000000;stroke-width:1.48751;stroke-dasharray:none"
       id="rect14581"
       width="17.123968"
       height="7.7408967"
       x="19.212542"
       y="220.77274"
       ry="2.1941497"
       transform="rotate(-47.16045)" />
    <rect
       style="fill:#ffaaee;fill-opacity:1;stroke:#000000;stroke-width:1.49084;stroke-dasharray:none"
       id="rect14583"
       width="9.3591166"
       height="31.797209"
       x="-48.261971"
       y="-164.62743"
       ry="5.7619095"
       transform="matrix(-0.73610657,0.67686566,-0.68753503,-0.72615121,0,0)" />
    <rect
       style="fill:#ffaaee;fill-opacity:1;stroke:#000000;stroke-width:1.49084;stroke-dasharray:none"
       id="rect14585"
       width="9.3591166"
       height="31.797207"
       x="175.81564"
       y="71.016121"
       ry="5.76191"
       transform="matrix(0.6451324,0.7640708,0.77340336,-0.63391422,0,0)" />
    <rect
       style="fill:#ffaaee;fill-opacity:1;stroke:#000000;stroke-width:1.48751;stroke-dasharray:none"
       id="rect14587"
       width="33.677135"
       height="53.218674"
       x="142.52948"
       y="69.94912"
       ry="14.357579" />
    <rect
       style="fill:#ffaaee;fill-opacity:1;stroke:#000000;stroke-width:1.48751;stroke-dasharray:none"
       id="rect14589"
       width="44.248253"
       height="45.005493"
       x="138.34251"
       y="38.876305"
       ry="14.357579" />
    <rect
       style="fill:#ffffff;fill-opacity:1;stroke-width:0.699419"
       id="rect14591"
       width="37.018135"
       height="12.330557"
       x="141.90546"
       y="47.309525"
       ry="3.9336736" />
    <ellipse
       style="fill:#000000;fill-opacity:1;stroke-width:1.58579"
       id="ellipse14593"
       cx="168.80983"
       cy="52.84639"
       rx="4.4248252"
       ry="4.5005493" />
    <ellipse
       style="fill:#000000;fill-opacity:1;stroke-width:1.58579"
       id="ellipse14595"
       cx="151.56715"
       cy="52.919144"
       rx="4.4248252"
       ry="4.5005493" />
    <rect
       style="fill:#5599ff;fill-opacity:1;stroke:#000000;stroke-width:1.49077;stroke-dasharray:none"
       id="rect14575-0"
       width="9.3198128"
       height="31.927904"
       x="51.815411"
       y="108.16596"
       ry="5.785593"
       transform="matrix(-0.67840848,0.73468492,0.73463745,0.67845988,0,0)" />
    <rect
       style="fill:#5599ff;fill-opacity:1;stroke:#000000;stroke-width:1.49077;stroke-dasharray:none"
       id="rect14577-5"
       width="9.3198128"
       height="31.927904"
       x="-115.8184"
       y="42.494778"
       ry="5.785593"
       transform="matrix(-0.60879945,-0.79332417,-0.79336676,0.60874394,0,0)"
       inkscape:transform-center-x="-10.241275"
       inkscape:transform-center-y="11.809731" />
    <rect
       style="fill:#5599ff;fill-opacity:1;stroke:#000000;stroke-width:1.48751;stroke-dasharray:none"
       id="rect14579-1"
       width="17.123968"
       height="7.7408967"
       x="98.768059"
       y="66.454239"
       ry="2.1941497"
       transform="rotate(52.617404)" />
    <rect
       style="fill:#5599ff;fill-opacity:1;stroke:#000000;stroke-width:1.48751;stroke-dasharray:none"
       id="rect14581-8"
       width="17.123968"
       height="7.7408967"
       x="-61.137703"
       y="132.42012"
       ry="2.1941497"
       transform="rotate(-47.16045)" />
    <rect
       style="fill:#5599ff;fill-opacity:1;stroke:#000000;stroke-width:1.49084;stroke-dasharray:none"
       id="rect14583-9"
       width="9.3591166"
       height="31.797209"
       x="71.657021"
       y="36.943092"
       ry="5.7619095"
       transform="matrix(0.69080955,0.72303677,-0.71287933,0.70128672,0,0)" />
    <rect
       style="fill:#5599ff;fill-opacity:1;stroke:#000000;stroke-width:1.49084;stroke-dasharray:none"
       id="rect14585-2"
       width="9.3591166"
       height="31.797207"
       x="10.807552"
       y="93.113159"
       ry="5.76191"
       transform="matrix(-0.71305075,0.70111242,0.69063278,0.72320561,0,0)" />
    <rect
       style="fill:#5599ff;fill-opacity:1;stroke:#000000;stroke-width:1.48751;stroke-dasharray:none"
       id="rect14587-5"
       width="33.677135"
       height="53.218674"
       x="23.110025"
       y="68.791649"
       ry="14.357579" />
    <rect
       style="fill:#5599ff;fill-opacity:1;stroke:#000000;stroke-width:1.48751;stroke-dasharray:none"
       id="rect14589-6"
       width="44.248253"
       height="45.005493"
       x="18.923059"
       y="37.718834"
       ry="14.357579" />
    <rect
       style="fill:#ffffff;fill-opacity:1;stroke-width:0.699419"
       id="rect14591-0"
       width="37.018135"
       height="12.330557"
       x="22.486002"
       y="46.152054"
       ry="3.9336736" />
    <ellipse
       style="fill:#000000;fill-opacity:1;stroke-width:1.58579"
       id="ellipse14593-0"
       cx="49.390377"
       cy="51.688919"
       rx="4.4248252"
       ry="4.5005493" />
    <ellipse
       style="fill:#000000;fill-opacity:1;stroke-width:1.58579"
       id="ellipse14595-9"
       cx="32.147701"
       cy="51.761673"
       rx="4.4248252"
       ry="4.5005493" />
    <rect
       style="fill:#ff5555;fill-opacity:1;stroke:#000000;stroke-width:1.49077;stroke-dasharray:none"
       id="rect1439"
       width="9.3198128"
       height="31.927904"
       x="-108.36951"
       y="152.9812"
       ry="5.785593"
       transform="matrix(-0.9999978,0.002097,0.00202703,0.99999795,0,0)" />
    <rect
       style="fill:#ff5555;fill-opacity:1;stroke:#000000;stroke-width:1.49077;stroke-dasharray:none"
       id="rect1441"
       width="9.3198128"
       height="31.927904"
       x="-92.823837"
       y="152.75508"
       ry="5.785593"
       transform="matrix(-0.9999978,0.002097,0.00202703,0.99999795,0,0)"
       inkscape:transform-center-x="-15.601835"
       inkscape:transform-center-y="-0.96761179" />
    <rect
       style="fill:#ff5555;fill-opacity:1;stroke:#000000;stroke-width:1.48751;stroke-dasharray:none"
       id="rect1469"
       width="17.123968"
       height="7.7408967"
       x="75.99707"
       y="176.76254"
       ry="2.1941497" />
    <rect
       style="fill:#ff5555;fill-opacity:1;stroke:#000000;stroke-width:1.48751;stroke-dasharray:none"
       id="rect1471"
       width="17.123968"
       height="7.7408967"
       x="99.137703"
       y="176.89937"
       ry="2.1941497" />
    <rect
       style="fill:#ff5555;fill-opacity:1;stroke:#000000;stroke-width:1.49084;stroke-dasharray:none"
       id="rect1420"
       width="9.3591166"
       height="31.797209"
       x="126.3774"
       y="62.277866"
       ry="5.7619095"
       transform="matrix(0.8653418,0.50118218,-0.48850154,0.87256303,0,0)" />
    <rect
       style="fill:#ff5555;fill-opacity:1;stroke:#000000;stroke-width:1.49084;stroke-dasharray:none"
       id="rect1423"
       width="9.3591166"
       height="31.797207"
       x="-43.069958"
       y="160.04851"
       ry="5.76191"
       transform="matrix(-0.8653418,0.50118218,0.48850155,0.87256303,0,0)" />
    <rect
       style="fill:#ff5555;fill-opacity:1;stroke:#000000;stroke-width:1.48751;stroke-dasharray:none"
       id="rect1196"
       width="33.677135"
       height="53.218674"
       x="79.690948"
       y="109.22321"
       ry="14.357579" />
    <rect
       style="fill:#ff5555;stroke:#000000;stroke-width:1.48751;stroke-dasharray:none"
       id="rect842"
       width="44.248253"
       height="45.005493"
       x="75.503983"
       y="78.150391"
       ry="14.357579" />
    <rect
       style="fill:#ffffff;stroke-width:0.699419"
       id="rect842-8"
       width="37.018135"
       height="12.330557"
       x="79.066925"
       y="86.583611"
       ry="3.9336736" />
    <ellipse
       style="fill:#000000;stroke-width:1.58579"
       id="path1026-0"
       cx="105.97129"
       cy="92.120476"
       rx="4.4248252"
       ry="4.5005493" />
    <ellipse
       style="fill:#000000;stroke-width:1.58579"
       id="path1026-0-8"
       cx="88.728615"
       cy="92.19323"
       rx="4.4248252"
       ry="4.5005493" />
    <text
       xml:space="preserve"
       style="font-style:normal;font-variant:normal;font-weight:normal;font-stretch:normal;font-size:19.4027px;font-family:'MV Boli';-inkscape-font-specification:'MV Boli';fill:#000000;stroke:#000000;stroke-width:1.1;stroke-dasharray:none"
       x="0.82578921"
       y="23.440931"
       id="text4468"><tspan
         sodipodi:role="line"
         id="tspan4466"
         style="font-style:normal;font-variant:normal;font-weight:normal;font-stretch:normal;font-family:'MV Boli';-inkscape-font-specification:'MV Boli';fill:#000000;stroke:#000000;stroke-width:1.1;stroke-dasharray:none"
         x="0.82578921"
         y="23.440931">TUMBLE PEOPLE </tspan></text>
    <path
       style="fill:#ff2a2a;stroke:none;stroke-width:1.00001;stroke-dasharray:none"
       id="path4783"
       d="m 172.18082,7.7748269 c 0.5464,-0.1885713 1.0549,-0.4659432 1.60895,-0.6328143 0.79486,-0.2514367 1.6261,-0.303662 2.45201,-0.3632224 0.75629,-0.02535 1.50859,-0.1043708 2.26309,-0.1561511 0.7477,-0.085711 1.4627,0.1054007 2.17245,0.3144021 1.07735,0.3181272 2.04435,0.9091811 2.90805,1.616336 0.1091,0.1147658 0.22961,0.2197215 0.32745,0.3443023 0.0946,0.1205808 0.1673,0.2569318 0.2472,0.3877726 0.30355,0.4973186 0.55295,0.9564369 0.6974,1.5214919 0.1996,0.926751 0.1064,1.875778 -0.0175,2.805689 -0.1219,0.65239 -0.29949,1.305259 -0.6363,1.882883 -0.13299,0.228057 -0.2514,0.364503 -0.4127,0.569229 -0.6232,0.832786 -1.46015,1.44726 -2.32035,2.013244 -0.42915,0.256246 -0.86155,0.506018 -1.30005,0.745795 -0.14385,0.07868 -0.44265,0.235846 -0.5783,0.336082 -0.1098,0.08117 -0.2085,0.176411 -0.31275,0.264617 -0.4205,0.464823 -0.71834,1.001246 -0.38955,1.644206 0.17715,0.346482 0.5116,0.455758 0.82465,0.604974 1.282,0.478063 2.60975,0.823205 3.9382,1.145348 1.1639,0.244211 2.34806,0.381237 3.52711,0.532263 0.3221,0.03805 0.44914,0.05489 0.76074,0.08525 0.0973,0.0095 0.19581,0.0088 0.29205,0.0259 0.013,0.0025 0.0395,0.0323 0.0255,0.03055 -0.16015,-0.02105 -0.17024,-0.04245 -0.28489,-0.117816 -0.022,0.467824 -0.11211,0.924147 -0.21036,1.38117 -0.0623,0.348057 -0.14449,0.691914 -0.21224,1.038897 -0.042,0.217176 -0.0675,0.430963 -0.15635,0.634329 -0.0537,-0.05369 0.0911,-0.158156 0.0869,-0.185941 -0.005,-0.02155 -0.0435,-0.001 -0.0653,-10e-6 -0.0639,0.003 -0.12749,0.0086 -0.19135,0.01135 -0.11295,0.005 -0.22604,0.0076 -0.33905,0.0114 -0.93885,0.03615 -1.8758,-0.0196 -2.80664,-0.139381 -0.96476,-0.101046 -1.91511,-0.296432 -2.87361,-0.438903 -1.03505,-0.131891 -2.0557,-0.344197 -3.07605,-0.557604 -1.0239,-0.246771 -2.01094,-0.624209 -3.01704,-0.934011 -0.21261,-0.07044 -0.61925,-0.155431 -0.69061,-0.435803 -0.0225,-0.08933 -0.0145,-0.183781 -0.0205,-0.275757 -0.036,-0.626339 -0.10825,-1.266078 -0.0411,-1.892898 0.025,-0.155006 0.14406,-0.226496 0.25781,-0.318537 0.32125,-0.213481 0.65035,-0.416048 0.9692,-0.633174 0.2515,-0.173131 0.5666,-0.220232 0.85575,-0.307577 0.488,-0.111046 0.90725,-0.367498 1.314,-0.64707 0.50925,-0.356017 0.95931,-0.78581 1.38245,-1.238558 0.3739,-0.373042 0.6777,-0.800775 0.96145,-1.243843 0.37545,-0.506754 0.60955,-1.075563 0.77686,-1.679117 0.15034,-0.656194 0.20544,-1.332004 0.18219,-2.003874 -0.0606,-0.660329 -0.3841,-1.203968 -0.86699,-1.639966 -0.47616,-0.380957 -1.06321,-0.532418 -1.64566,-0.665374 -0.82275,-0.242127 -1.6621,-0.390333 -2.51375,-0.481958 -0.79395,-0.07279 -1.59176,-0.08657 -2.3885,-0.09237 -0.51335,-0.0357 -1.03805,0.0491 -1.54935,-0.01235 0.1134,-0.124456 -0.02,0.0144 0.41185,0.194873 0.0565,0.0236 0.005,-0.122858 -0.005,-0.183528 -0.024,-0.183911 -0.0225,-0.206412 -0.0345,-0.396463 -0.019,-0.4776881 -0.011,-0.9559365 -0.007,-1.4338448 0.005,-0.443903 0.005,-0.8878161 0.006,-1.3317341 5e-4,-0.2588417 0,-0.1315809 5e-4,-0.3817875 0,-1.2472635 -1.76291,-1.2487285 -1.7639,-0.0015 v 0 c 0,0.2490216 0,0.1223908 0,0.3798975 0,0.440578 0,0.881156 -0.006,1.321724 -0.005,0.5242136 -0.013,1.0488773 0.012,1.5727359 0.0275,0.364559 0.0841,1.117974 0.30914,1.398731 0.17205,0.214591 0.3882,0.395118 0.6168,0.548074 0.0871,0.05832 0.20451,0.0466 0.3067,0.06991 0.56256,0.04195 1.12745,0.007 1.69115,0.0191 0.73876,0.0052 1.47846,0.01705 2.21476,0.08253 0.7845,0.08225 1.55439,0.225536 2.3119,0.448573 0.29809,0.06629 0.60324,0.126756 0.87404,0.273627 0.1294,0.101425 0.23695,0.222976 0.26475,0.390297 0.0315,0.489309 -0.032,0.985462 -0.12315,1.46555 -0.11215,0.435453 -0.28665,0.828316 -0.5606,1.189193 -0.22504,0.354038 -0.46314,0.69537 -0.76484,0.990122 -0.33465,0.360117 -0.6893,0.703665 -1.09201,0.988072 -0.26004,0.179061 -0.50839,0.353732 -0.82749,0.412737 -0.4621,0.141781 -0.947,0.245412 -1.34201,0.541804 -0.36409,0.254412 -0.75399,0.471803 -1.10904,0.74004 -0.46546,0.401948 -0.80331,0.880846 -0.8754,1.508935 -0.0621,0.785851 -0.0185,1.579831 0.0621,2.362721 0.10275,0.467103 0.089,0.61883 0.3397,1.012852 0.35965,0.565384 0.9626,0.889451 1.5886,1.070872 1.05805,0.325248 2.09515,0.72503 3.17465,0.974657 1.05446,0.220492 2.10945,0.438853 3.17895,0.575954 0.97035,0.142911 1.93205,0.342902 2.90885,0.443758 1.0268,0.129686 2.06005,0.193121 3.09545,0.152301 0.89975,-0.03625 1.6372,-0.09426 2.0964,-0.985247 0.2171,-0.621004 0.29755,-1.276768 0.4398,-1.917628 0.17431,-0.815075 0.3527,-1.650941 0.0965,-2.469586 -0.0963,-0.162767 -0.15984,-0.350243 -0.28925,-0.488304 -0.50589,-0.540088 -1.22464,-0.478263 -1.89129,-0.566589 -1.11475,-0.142711 -2.23426,-0.272256 -3.33581,-0.496953 -1.22754,-0.297172 -2.4529,-0.616824 -3.64205,-1.045087 -0.042,-0.01375 -0.13105,-0.0847 -0.1251,-0.0412 0.012,0.09098 0.12885,0.141346 0.15075,0.230511 0.0395,0.158991 0.0335,0.326897 0.0265,0.490464 -0.005,0.07767 -0.11775,0.136831 -0.0135,-0.0083 0.13774,-0.167607 0.36759,-0.258492 0.5526,-0.359838 0.48159,-0.263837 0.9573,-0.537559 1.4269,-0.82232 1.01829,-0.677095 2.00294,-1.4169 2.74249,-2.405257 0.2571,-0.336877 0.38095,-0.476248 0.59455,-0.858626 0.42215,-0.755755 0.6595,-1.596665 0.80815,-2.444686 0.1491,-1.166278 0.24605,-2.352256 -0.033,-3.508575 -0.0537,-0.182432 -0.0969,-0.3682479 -0.16099,-0.5472891 -0.24856,-0.6945599 -0.75391,-1.5580208 -1.2198,-2.1186396 -0.14521,-0.1747262 -0.32016,-0.3224022 -0.48021,-0.4836032 -1.0532,-0.8448158 -2.21665,-1.5588856 -3.5231,-1.9383832 -0.90995,-0.2641568 -1.83275,-0.4830482 -2.7882,-0.3810476 -0.7567,0.052135 -1.5111,0.1311709 -2.26955,0.1566011 -0.9599,0.069846 -1.9242,0.144236 -2.8471,0.437788 -0.5846,0.1848112 -1.13245,0.451558 -1.70575,0.6659445 -1.16785,0.437948 -0.54855,2.0895391 0.61935,1.6515912 z" />
    <path
       style="fill:#ff2a2a;fill-opacity:1;stroke:none;stroke-width:5.51607;stroke-dasharray:none"
       d="m 178.77877,6.5591437 c -1.56915,0.1253958 -3.16264,0.1224558 -4.70599,0.4567981 -0.55826,0.1672311 -1.15116,0.3479373 -1.64125,0.6369492 0,0.9868968 0,1.9737985 0,2.9607 0.43595,0.154933 0.98819,0.02455 1.47099,0.07197 1.90271,0.04365 3.847,0.224998 5.6375,0.903343 0.901,0.367222 1.51325,1.271499 1.4402,2.24278 0.097,1.684257 -0.66855,3.306613 -1.8365,4.493231 -0.83939,0.927741 -1.85379,1.749377 -3.0852,2.080664 -0.63194,0.280487 -1.35265,0.580069 -1.7267,1.191087 -0.1067,0.762181 -0.08,1.570987 0.12861,2.312917 0.47704,0.366208 1.12704,0.457788 1.68215,0.676794 2.58794,0.867921 5.30804,1.203283 7.99569,1.607476 1.09735,0.10842 2.20141,0.09322 3.3026,0.10219 0.2569,-0.590294 0.3075,-1.303429 0.4514,-1.948758 -0.005,-0.294232 0.2164,-0.667289 0.0693,-0.927281 -2.0453,-0.317617 -4.1175,-0.507009 -6.09935,-1.130233 -0.88554,-0.291437 -1.83845,-0.461913 -2.64585,-0.943521 -0.67815,-0.560054 -0.3337,-1.669202 0.3519,-2.072334 1.5373,-0.944922 3.2018,-1.802448 4.33775,-3.252732 1.0847,-1.427015 1.1889,-3.338668 1.03031,-5.058399 -0.17731,-0.905778 -0.67216,-1.7488238 -1.29911,-2.4169634 -1.30345,-1.1293977 -2.97735,-1.8783827 -4.7045,-1.9898085 -0.0513,0.001 -0.1026,0.002 -0.1539,0.003 z"
       id="path4860" />
    <path
       style="fill:#ff2a2a;fill-opacity:1;stroke:none;stroke-width:1.00001;stroke-dasharray:none"
       id="path5599"
       d="m 189.63567,23.690827 c 0.1703,-0.0069 0.34106,-0.0177 0.5101,-0.04035 0.03,-0.004 0.0758,0.01255 0.0907,-0.01415 0.2334,-0.414893 0.42421,-0.852321 0.63625,-1.278478 -0.29575,-0.158832 -0.57585,-0.350958 -0.88724,-0.476494 -0.031,-0.0126 -0.41551,0.06349 -0.44535,0.06913 -0.21941,0.0414 -0.43886,0.08239 -0.65826,0.123726 -0.0533,0.0105 -0.10665,0.0203 -0.15974,0.0315 -0.042,0.0089 -0.0844,0.01925 -0.12656,0.02875 -0.15204,0.0341 0.14675,-0.03915 0.15835,-0.01105 0.63125,1.528955 0.93185,1.327209 0.4201,1.641561 -0.006,0.0035 -0.0125,0.0069 -0.019,0.01035 1.1311,-0.525553 0.3879,-2.125219 -0.74325,-1.599666 v 0 c -0.0235,0.0115 -0.0475,0.023 -0.0708,0.03445 -0.55749,0.319852 -0.2824,0.12779 0.35905,1.676346 0.017,0.0409 0.293,-0.0354 0.36335,-0.05023 0.0486,-0.01015 0.0966,-0.0191 0.145,-0.02865 0.22025,-0.0415 0.44065,-0.08186 0.66076,-0.12419 0.46385,-0.08923 0.22654,-0.03045 -0.56631,-0.521209 0.72665,-1.430705 1.07715,-1.289834 0.3327,-1.235298 -1.24725,0 -1.24725,1.763902 0,1.763902 z" />
    <path
       style="fill:#ff2a2a;fill-opacity:1;stroke:none;stroke-width:1.00001;stroke-dasharray:none"
       id="path5666"
       d="m 178.42352,13.689919 c -0.005,-0.004 -0.0165,-0.01765 -0.015,-0.0116 0.005,0.009 0.013,0.0136 0.0175,0.02145 0,0.002 -0.005,-0.0015 -0.006,-0.0025 0.0105,0.01485 0.0215,0.02945 0.032,0.04455 0.005,0.0068 0.019,0.02645 0.0125,0.02105 -0.008,-0.0073 -0.013,-0.018 -0.0195,-0.027 0,-0.0015 -0.006,-0.0063 -0.006,-0.004 0.013,0.05835 0.04,0.11298 0.0601,0.169211 0.0375,0.10312 0.0762,0.205811 0.11475,0.308542 0.222,0.617304 0.11775,0.215476 1.6148,-0.656045 0.034,-0.02005 -0.0379,-0.06986 -0.0591,-0.1039 -0.0395,-0.06468 -0.0806,-0.128131 -0.1209,-0.192192 -0.2031,-0.316772 -0.46215,-0.591234 -0.7277,-0.85572 -0.0656,-0.06536 -0.13125,-0.130746 -0.19885,-0.194072 -0.0717,-0.06719 -0.14595,-0.131591 -0.21895,-0.197386 -0.2826,-0.237392 -0.57384,-0.466773 -0.8898,-0.65871 -0.2083,-0.12654 -0.29169,-0.164571 -0.50709,-0.275191 -0.41786,-0.206447 -0.84055,-0.40687 -1.28785,-0.541916 -0.12601,-0.03805 -0.2542,-0.06885 -0.38125,-0.103265 -0.65605,-0.158026 -1.32076,-0.275187 -1.9865,-0.383388 -0.29326,-0.03465 -0.57526,-0.1200306 -0.85675,-0.2049362 -0.16416,-0.053105 -0.3311,-0.096211 -0.50081,-0.127181 -0.0883,-0.01325 -0.0445,-0.0075 -0.1301,-0.01745 -1.24,-0.1348259 -1.43065,1.6187372 -0.1907,1.7535682 v 0 c 0.008,-1.5e-4 0.005,-2e-4 0.014,10e-4 0.1018,0.01565 0.19965,0.0499 0.29805,0.07889 0.3557,0.107276 0.71361,0.209527 1.08315,0.257242 0.60815,0.09883 1.2153,0.205041 1.8152,0.346722 0.218,0.05681 0.30545,0.07379 0.51025,0.147651 0.2794,0.100726 0.54445,0.236927 0.81196,0.364563 0.14869,0.07507 0.21604,0.105901 0.35824,0.189946 0.23615,0.139596 0.45036,0.312427 0.6622,0.485703 0.0551,0.04905 0.1113,0.0968 0.1652,0.147111 0.068,0.06349 0.26815,0.261902 0.3362,0.332483 0.0674,0.06986 0.1786,0.190016 0.2404,0.269632 0.033,0.0423 0.0619,0.08739 0.0928,0.131085 0.025,0.0392 0.0518,0.07771 0.0761,0.117601 0.023,0.03835 0.024,0.131316 0.0665,0.116971 1.75955,-0.593814 1.8107,-0.164091 1.5623,-0.849271 -0.048,-0.127206 -0.0959,-0.254291 -0.14185,-0.382202 -0.014,-0.03885 -0.026,-0.07832 -0.0411,-0.116741 -0.0205,-0.05239 -0.0435,-0.103716 -0.0654,-0.155576 -0.0255,-0.0464 -0.05,-0.09371 -0.0769,-0.139261 -0.0195,-0.0327 -0.075,-0.111881 -0.10115,-0.146441 -0.0745,-0.09861 -0.1514,-0.194431 -0.2436,-0.277372 -0.9322,-0.828636 -2.1041,0.489718 -1.17185,1.318354 z" />
    <path
       style="fill:#000000;stroke:none;stroke-width:1.00001;stroke-dasharray:none"
       id="path5167"
       d="m 171.62552,11.272142 c -0.10675,-0.598975 -0.1995,-1.200409 -0.31569,-1.7976536 -0.0762,-0.3875126 -0.157,-0.7746202 -0.21106,-1.1660079 -0.0421,-0.2646468 -0.025,-0.4716882 0.0651,-0.7207999 0.0639,-0.1201208 0.1044,-0.3355322 0.24775,-0.3951676 0.403,-0.2796469 0.8102,-0.5484488 1.24925,-0.7680403 0.2972,-0.1361309 0.6112,-0.2256715 0.924,-0.3168821 0.076,-0.0137 0.1472,-0.04485 0.222,-0.06274 0.0877,-0.021 0.17965,-0.01785 0.26915,-0.0294 0.3384,-0.0437 0.49985,-0.068791 0.8462,-0.1192608 0.67525,-0.1036257 1.35301,-0.1898613 2.035,-0.2308916 0.5001,-0.02405 1.00086,-0.0226 1.5014,-0.0227 0.58805,0.03755 1.17425,0.097621 1.76225,0.1357459 0.67135,0.086021 1.31215,0.3149421 1.9371,0.5657388 0.55911,0.2479117 1.1398,0.446593 1.6913,0.7115448 0.1233,0.05659 0.26535,0.1131808 0.33475,0.2384566 0.12755,0.2566467 0.22476,0.5304986 0.3106,0.8048455 0.1515,0.4091228 0.31866,0.8110205 0.4686,1.2208033 0.14676,0.4275581 0.41715,0.7984856 0.53345,1.2360286 0.07,0.297818 0.0963,0.605086 0.084,0.910353 -0.0195,0.360092 -0.026,0.721989 -0.0774,1.079627 -0.0165,0.115381 -0.0836,0.451783 -0.10479,0.560444 -0.0745,0.348547 -0.13751,0.704574 -0.25906,1.041027 -0.0661,0.182856 -0.13065,0.297442 -0.21845,0.471728 -0.2607,0.534819 -0.6075,1.019077 -0.9319,1.51555 -0.26569,0.385323 -0.4687,0.811521 -0.7343,1.196613 -0.1018,0.147536 -0.24365,0.315993 -0.35624,0.454364 -0.33056,0.413867 -0.72306,0.766375 -1.11246,1.122262 -0.3072,0.319012 -0.85545,0.756485 -0.92265,1.219478 -0.0295,0.204532 0.0265,0.412468 0.0405,0.6187 0.1213,0.165511 0.219,0.351282 0.36395,0.496523 0.0936,0.09384 0.2215,0.146586 0.33905,0.207866 0.36786,0.191717 0.7903,0.238112 1.1954,0.280332 0.70035,0.04935 1.3956,0.146171 2.0886,0.255862 0.72805,0.127891 1.4679,0.141911 2.20195,0.212671 0.47825,0.05575 0.9567,0.108196 1.4375,0.134281 0.20896,0.02445 0.50385,0.0092 0.7008,0.07391 0.0385,0.0125 0.0697,0.0399 0.1045,0.05986 0.1747,0.09893 0.46741,0.174081 0.60946,0.325712 0.0435,0.0463 -0.0762,0.0107 -0.0774,0.01195 -0.0145,0.01445 0,0.0408 0,0.06118 0,0.03215 0.006,0.06452 0.005,0.09649 -0.005,0.03085 -0.10525,0.219036 -0.10825,0.225801 -0.0654,0.147431 -0.12975,0.295277 -0.1946,0.442918 -0.25085,0.501819 -0.33474,1.054557 -0.43285,1.600421 -0.0691,0.375323 -0.14094,0.75252 -0.29914,1.101787 -0.14446,0.210392 -0.36275,0.363148 -0.58111,0.489644 -0.42489,0.253797 -0.8892,0.414893 -1.3592,0.561694 -0.6431,0.222881 -1.3228,0.254831 -1.99605,0.287202 -0.4902,0.0099 -0.9841,0.04515 -1.4734,-0.0061 -0.19164,-0.0201 -0.5392,-0.08834 -0.71859,-0.121351 -0.86866,-0.234257 -1.71246,-0.544484 -2.58041,-0.781241 -0.8574,-0.220721 -1.729,-0.382537 -2.60019,-0.538423 -0.62651,-0.09923 -1.25626,-0.174611 -1.87771,-0.302912 -0.55025,-0.120296 -1.09465,-0.263012 -1.6304,-0.436488 -0.32695,-0.153131 -0.5612,-0.434693 -0.79105,-0.70335 -0.12365,-0.173721 -0.27945,-0.352562 -0.3451,-0.561099 -0.0275,-0.08841 0.008,-0.407978 0.0125,-0.491093 0.0401,-0.211882 0.1014,-0.425593 0.20121,-0.618034 0.034,-0.06575 0.13625,-0.204957 0.17335,-0.257447 0.32119,-0.440783 0.61425,-0.900501 0.96239,-1.321049 0.57181,-0.643614 1.27526,-1.147088 1.95406,-1.668961 0.7796,-0.608439 1.57555,-1.233889 2.1765,-2.029149 0.12215,-0.161596 0.2276,-0.335127 0.34139,-0.502689 0.4171,-0.682824 0.7241,-1.430564 0.7765,-2.23627 0.0265,-0.410783 -0.0145,-0.564554 -0.0715,-0.955666 -0.15935,-0.73734 -0.5789,-1.283974 -1.21919,-1.679837 -0.15885,-0.09819 -0.3286,-0.177531 -0.49291,-0.266301 -1.17524,-0.543624 -2.44629,-0.821741 -3.70784,-1.082223 -0.89205,-0.196971 -1.80096,-0.257562 -2.71131,-0.283452 -0.11864,-0.002 -0.23735,-0.004 -0.35599,-0.006 -1.2471,-0.0209 -1.27666,1.742772 -0.0295,1.763652 v 0 c 0.112,0.002 0.22399,0.0035 0.336,0.0056 0.80735,0.0224 1.61345,0.07145 2.40465,0.247807 1.10195,0.226896 2.21365,0.462573 3.24795,0.918396 0.16895,0.08288 0.6404,0.306252 0.7343,0.505973 0.0235,0.05029 0.0351,0.105451 0.0527,0.158177 0.05,0.254786 0.0895,0.519098 0.0409,0.778855 -0.0773,0.410448 -0.2633,0.79418 -0.4713,1.151733 -0.0774,0.118751 -0.1485,0.241841 -0.23221,0.356252 -0.50849,0.695175 -1.22594,1.227249 -1.89394,1.756812 -0.78545,0.603909 -1.59345,1.193653 -2.24335,1.949513 -0.37686,0.463549 -0.70821,0.958397 -1.05476,1.4444 -0.1613,0.240937 -0.2115,0.298807 -0.34104,0.564479 -0.1896,0.389078 -0.29356,0.817676 -0.33956,1.245918 -0.008,0.317743 -0.0275,0.547039 0.0341,0.869231 0.10254,0.531209 0.39179,0.981837 0.72635,1.39559 0.44555,0.512098 0.92919,0.993922 1.58285,1.228523 0.59789,0.193306 1.20545,0.352893 1.81954,0.486288 0.6363,0.129421 1.27925,0.214272 1.92116,0.311233 0.81989,0.146466 1.64034,0.298297 2.44774,0.504143 0.9165,0.248407 1.80355,0.590324 2.7271,0.8145 0.34155,0.0617 0.58635,0.112936 0.93305,0.146976 0.55185,0.05419 1.1082,0.0205 1.66085,0.007 0.82361,-0.0406 1.6524,-0.09619 2.4389,-0.366193 0.6081,-0.191951 1.20651,-0.410833 1.75475,-0.742055 0.52105,-0.329302 1.00445,-0.723085 1.27576,-1.291624 0.20209,-0.478383 0.33264,-0.978371 0.41654,-1.49091 0.0734,-0.410198 0.11966,-0.826155 0.3116,-1.202328 0.26365,-0.600199 0.54445,-1.166113 0.41006,-1.844563 -0.0893,-0.348512 -0.0996,-0.506068 -0.32821,-0.821955 -0.31709,-0.438238 -0.82185,-0.647409 -1.29849,-0.855501 -0.15206,-0.05119 -0.30136,-0.111586 -0.45616,-0.153561 -0.2833,-0.0768 -0.5939,-0.06088 -0.8829,-0.09312 -0.45625,-0.02375 -0.9099,-0.07775 -1.3638,-0.128815 -0.69825,-0.06597 -1.4015,-0.08103 -2.09415,-0.199022 -0.72755,-0.114756 -1.45735,-0.216726 -2.1924,-0.269117 -0.18774,-0.0164 -0.1884,-0.0123 -0.3577,-0.04065 -0.036,-0.006 -0.0711,-0.0121 -0.1061,-0.0206 -0.0285,-0.0069 -0.0553,-0.0314 -0.0839,-0.0257 -0.014,0.003 0.0115,0.026 0.017,0.039 0.0495,0.101056 0.0983,0.202116 0.1476,0.303172 -0.049,0.591104 0.0465,0.202241 -0.14935,0.554484 -0.0215,0.03865 0.0524,-0.07136 0.0808,-0.105271 0.14,-0.167241 0.29944,-0.316712 0.4541,-0.469953 0.4543,-0.415378 0.9079,-0.831626 1.29334,-1.314399 0.19575,-0.242987 0.29755,-0.360097 0.47715,-0.623174 0.25861,-0.378833 0.4617,-0.793561 0.71935,-1.173223 0.3627,-0.556079 0.7479,-1.099973 1.03705,-1.700147 0.15705,-0.323562 0.2039,-0.396908 0.32425,-0.739605 0.1386,-0.394513 0.21676,-0.808795 0.3027,-1.216758 0.1245,-0.643759 0.2063,-1.274549 0.21385,-1.931298 0.008,-0.487349 -0.026,-0.975573 -0.15375,-1.448322 -0.0859,-0.2830264 -0.0835,-0.3064616 -0.20305,-0.5759186 -0.11575,-0.2608518 -0.27444,-0.5021434 -0.3676,-0.7734552 -0.14115,-0.3853526 -0.29394,-0.7650103 -0.4434,-1.1469979 -0.1528,-0.4780531 -0.32295,-0.9595064 -0.61405,-1.3731542 -0.26325,-0.3141271 -0.5711,-0.5730639 -0.9546,-0.7300949 -0.58795,-0.2781469 -1.2004,-0.4994184 -1.79715,-0.7577602 -0.7977,-0.3154671 -1.6171,-0.5999541 -2.4757,-0.6871597 -0.626,-0.04035 -1.24975,-0.1092657 -1.87634,-0.1394209 -0.53625,10e-5 -1.0728,-0.001 -1.6085,0.02595 -0.73126,0.04515 -1.45816,0.1341309 -2.18216,0.2460766 -0.52715,0.076931 -1.06395,0.1181408 -1.57755,0.2637518 -0.41639,0.1219108 -0.83295,0.2466817 -1.22514,0.435838 -0.55925,0.2850119 -1.0877,0.6216792 -1.59225,0.9952467 -0.0595,0.053205 -0.12225,0.1028407 -0.17831,0.1596211 -0.28675,0.290587 -0.47179,0.6594795 -0.6089,1.0397371 -0.16124,0.5236735 -0.21475,0.9638364 -0.13365,1.5075452 0.0596,0.4228428 0.1431,0.8417757 0.2268,1.2604037 0.10961,0.5574284 0.19256,1.1195894 0.29655,1.6780474 0.15475,1.237634 1.905,1.018847 1.75031,-0.218786 z" />
  </g>
</svg>
